STARTFONT 2.1
COMMENT
COMMENT Converted from OpenType font "ipaexm.ttf" by "otf2bdf 3.0".
COMMENT
FONT -FreeType-IPAexMincho-Medium-R-Normal--24-240-72-72-P-210-ISO10646-1
SIZE 24 72 72
FONTBOUNDINGBOX 30 29 -6 -7
STARTPROPERTIES 19
FOUNDRY "FreeType"
FAMILY_NAME "IPAexMincho"
WEIGHT_NAME "Medium"
SLANT "R"
SETWIDTH_NAME "Normal"
ADD_STYLE_NAME ""
PIXEL_SIZE 24
POINT_SIZE 240
RESOLUTION_X 72
RESOLUTION_Y 72
SPACING "P"
AVERAGE_WIDTH 210
CHARSET_REGISTRY "ISO10646"
CHARSET_ENCODING "1"
FONT_ASCENT 21
FONT_DESCENT 2
COPYRIGHT "Copyright(c) Information-technology Promotion Agency, Japan (IPA), 2003-2019. You must accept "https://opensource.org/licenses/IPA/" to use this product."
_OTF_FONTFILE "ipaexm.ttf"
_OTF_PSNAME "IPAexMincho"
ENDPROPERTIES
CHARS 11691
STARTCHAR 0020
ENCODING 32
SWIDTH 291 0
DWIDTH 7 0
BBX 0 0 0 0
BITMAP
ENDCHAR
STARTCHAR 0021
ENCODING 33
SWIDTH 291 0
DWIDTH 7 0
BBX 3 17 2 0
BITMAP
40
40
40
40
40
40
40
40
40
40
40
40
00
00
C0
E0
E0
ENDCHAR
STARTCHAR 0022
ENCODING 34
SWIDTH 333 0
DWIDTH 8 0
BBX 5 6 2 12
BITMAP
98
D8
98
98
98
98
ENDCHAR
STARTCHAR 0023
ENCODING 35
SWIDTH 625 0
DWIDTH 15 0
BBX 13 17 1 0
BITMAP
0460
0460
0440
0C40
0C40
7FF8
08C0
0880
1880
1880
FFF0
1180
1180
1100
3100
3100
2100
ENDCHAR
STARTCHAR 0024
ENCODING 36
SWIDTH 625 0
DWIDTH 15 0
BBX 11 20 2 -1
BITMAP
0400
0400
3F80
4440
C4C0
C4C0
C400
6400
7400
1E00
0780
04C0
0460
0460
C460
C460
C4C0
3F80
0400
0400
ENDCHAR
STARTCHAR 0025
ENCODING 37
SWIDTH 791 0
DWIDTH 19 0
BBX 17 17 1 1
BITMAP
380600
440400
460800
C21800
C21000
C22000
464000
444000
389E00
011300
032100
022100
042180
082180
082100
101300
201E00
ENDCHAR
STARTCHAR 0026
ENCODING 38
SWIDTH 708 0
DWIDTH 17 0
BBX 15 17 2 0
BITMAP
0F00
3180
2080
2080
2080
3100
1E00
087E
3C08
4608
C310
C190
C0D0
C0E0
C070
60B8
1F1E
ENDCHAR
STARTCHAR 0027
ENCODING 39
SWIDTH 208 0
DWIDTH 5 0
BBX 2 6 2 12
BITMAP
80
C0
80
80
80
80
ENDCHAR
STARTCHAR 0028
ENCODING 40
SWIDTH 375 0
DWIDTH 9 0
BBX 5 23 2 -5
BITMAP
08
10
30
20
20
60
40
40
C0
C0
C0
C0
C0
C0
C0
40
40
60
20
20
10
10
08
ENDCHAR
STARTCHAR 0029
ENCODING 41
SWIDTH 375 0
DWIDTH 9 0
BBX 5 23 2 -5
BITMAP
80
C0
40
60
20
30
30
10
10
10
18
18
18
10
10
10
30
30
20
60
40
C0
80
ENDCHAR
STARTCHAR 002A
ENCODING 42
SWIDTH 250 0
DWIDTH 6 0
BBX 6 6 0 11
BITMAP
30
AC
78
78
A4
30
ENDCHAR
STARTCHAR 002B
ENCODING 43
SWIDTH 666 0
DWIDTH 16 0
BBX 13 13 2 1
BITMAP
0200
0200
0200
0200
0200
0200
FFF8
0200
0200
0200
0200
0200
0200
ENDCHAR
STARTCHAR 002C
ENCODING 44
SWIDTH 250 0
DWIDTH 6 0
BBX 3 6 1 -3
BITMAP
60
60
60
20
40
80
ENDCHAR
STARTCHAR 002D
ENCODING 45
SWIDTH 291 0
DWIDTH 7 0
BBX 5 1 1 7
BITMAP
F8
ENDCHAR
STARTCHAR 002E
ENCODING 46
SWIDTH 250 0
DWIDTH 6 0
BBX 2 3 2 0
BITMAP
C0
C0
C0
ENDCHAR
STARTCHAR 002F
ENCODING 47
SWIDTH 500 0
DWIDTH 12 0
BBX 8 21 2 -4
BITMAP
01
01
03
02
02
04
04
0C
08
08
18
10
10
20
20
60
40
40
80
80
80
ENDCHAR
STARTCHAR 0030
ENCODING 48
SWIDTH 625 0
DWIDTH 15 0
BBX 11 17 2 0
BITMAP
1F00
3180
60C0
C060
C060
C060
C060
8060
8060
8060
8060
C060
C060
C040
60C0
3180
1F00
ENDCHAR
STARTCHAR 0031
ENCODING 49
SWIDTH 625 0
DWIDTH 15 0
BBX 9 17 3 0
BITMAP
0800
F800
1800
0800
0800
0800
0800
0800
0800
0800
0800
0800
0800
0800
0800
0C00
FF80
ENDCHAR
STARTCHAR 0032
ENCODING 50
SWIDTH 625 0
DWIDTH 15 0
BBX 11 17 2 0
BITMAP
1F00
61C0
40C0
E060
6060
0040
00C0
0180
0300
0400
0800
3000
2020
4020
8060
FFE0
FFE0
ENDCHAR
STARTCHAR 0033
ENCODING 51
SWIDTH 625 0
DWIDTH 15 0
BBX 11 17 2 0
BITMAP
3F00
4180
E0C0
E040
00C0
00C0
0180
1E00
0380
00C0
0040
0060
C060
C060
80C0
4180
3F00
ENDCHAR
STARTCHAR 0034
ENCODING 52
SWIDTH 625 0
DWIDTH 15 0
BBX 13 17 1 0
BITMAP
00C0
00C0
01C0
02C0
04C0
04C0
08C0
10C0
20C0
40C0
40C0
FFF8
00C0
00C0
00C0
00C0
03F0
ENDCHAR
STARTCHAR 0035
ENCODING 53
SWIDTH 625 0
DWIDTH 15 0
BBX 11 17 2 0
BITMAP
7FC0
7FC0
4000
4000
4000
4000
4F00
7180
40C0
4060
0060
0060
E060
E060
E0C0
61C0
1F00
ENDCHAR
STARTCHAR 0036
ENCODING 54
SWIDTH 625 0
DWIDTH 15 0
BBX 11 17 2 0
BITMAP
0F80
1840
20E0
60C0
4000
C000
CF00
D0C0
E040
C060
C020
C020
C020
4060
6060
30C0
0F00
ENDCHAR
STARTCHAR 0037
ENCODING 55
SWIDTH 625 0
DWIDTH 15 0
BBX 12 17 2 0
BITMAP
7FF0
7FF0
4020
C040
8040
0080
0080
0100
0100
0200
0200
0600
0600
0400
0C00
0C00
0C00
ENDCHAR
STARTCHAR 0038
ENCODING 56
SWIDTH 625 0
DWIDTH 15 0
BBX 11 17 2 0
BITMAP
1F00
60C0
4040
C040
C040
60C0
7180
1F00
2300
40C0
C040
8060
8060
8060
C060
60C0
1F00
ENDCHAR
STARTCHAR 0039
ENCODING 57
SWIDTH 625 0
DWIDTH 15 0
BBX 11 17 2 0
BITMAP
1F00
6180
C0C0
C0C0
8060
8060
8060
C060
C0E0
6160
3E60
0040
0040
E0C0
E080
4300
3E00
ENDCHAR
STARTCHAR 003A
ENCODING 58
SWIDTH 291 0
DWIDTH 7 0
BBX 3 12 2 0
BITMAP
C0
E0
C0
00
00
00
00
00
00
40
E0
40
ENDCHAR
STARTCHAR 003B
ENCODING 59
SWIDTH 291 0
DWIDTH 7 0
BBX 3 15 2 -3
BITMAP
C0
E0
C0
00
00
00
00
00
00
E0
E0
60
60
C0
80
ENDCHAR
STARTCHAR 003C
ENCODING 60
SWIDTH 666 0
DWIDTH 16 0
BBX 12 13 2 1
BITMAP
0010
0070
0180
0600
1800
6000
8000
6000
1C00
0700
01C0
0070
0010
ENDCHAR
STARTCHAR 003D
ENCODING 61
SWIDTH 666 0
DWIDTH 16 0
BBX 13 5 2 5
BITMAP
FFF8
0000
0000
0000
FFF8
ENDCHAR
STARTCHAR 003E
ENCODING 62
SWIDTH 666 0
DWIDTH 16 0
BBX 13 13 2 1
BITMAP
8000
6000
1800
0700
01C0
0070
0018
0060
0180
0E00
3800
E000
8000
ENDCHAR
STARTCHAR 003F
ENCODING 63
SWIDTH 500 0
DWIDTH 12 0
BBX 10 17 1 0
BITMAP
1E00
6180
C0C0
C0C0
E0C0
00C0
0180
0300
0600
0C00
0800
0800
0000
0000
0800
1C00
1C00
ENDCHAR
STARTCHAR 0040
ENCODING 64
SWIDTH 916 0
DWIDTH 22 0
BBX 18 17 2 0
BITMAP
03F800
0E0E00
180300
30FD80
619880
C31880
C61840
C61040
CC1040
CC3080
CC3080
CC7100
4CE200
673C00
300000
1C0600
07F800
ENDCHAR
STARTCHAR 0041
ENCODING 65
SWIDTH 708 0
DWIDTH 17 0
BBX 18 17 0 0
BITMAP
008000
00C000
014000
014000
016000
022000
023000
041000
041800
041800
0FF800
080C00
180C00
100600
100600
300700
FC1FC0
ENDCHAR
STARTCHAR 0042
ENCODING 66
SWIDTH 708 0
DWIDTH 17 0
BBX 15 17 1 0
BITMAP
FFE0
1018
1008
100C
100C
1018
1030
1FC0
1038
100C
100C
1006
1006
1004
100C
3818
FFE0
ENDCHAR
STARTCHAR 0043
ENCODING 67
SWIDTH 750 0
DWIDTH 18 0
BBX 15 17 1 0
BITMAP
03F2
0C1E
1806
3002
6002
6000
6000
C000
C000
C000
6000
6000
6002
3002
1804
0C18
03E0
ENDCHAR
STARTCHAR 0044
ENCODING 68
SWIDTH 791 0
DWIDTH 19 0
BBX 17 17 1 0
BITMAP
FFE000
381800
100400
100600
100300
100300
100300
100100
100180
100100
100300
100300
100300
100600
100400
381800
FFE000
ENDCHAR
STARTCHAR 0045
ENCODING 69
SWIDTH 708 0
DWIDTH 17 0
BBX 14 17 1 0
BITMAP
FFFC
300C
1004
1004
1004
1040
1040
1040
1FC0
1040
1040
1000
1000
1004
1004
300C
FFFC
ENDCHAR
STARTCHAR 0046
ENCODING 70
SWIDTH 625 0
DWIDTH 15 0
BBX 14 17 1 0
BITMAP
FFFC
380C
1004
1004
1004
1040
1040
1040
1FC0
1040
1040
1000
1000
1000
1000
3000
FE00
ENDCHAR
STARTCHAR 0047
ENCODING 71
SWIDTH 791 0
DWIDTH 19 0
BBX 17 17 1 0
BITMAP
03F200
0C1E00
180600
300200
600200
600000
600000
C00000
C00000
C01F80
600600
600200
600200
300600
180600
0C0E00
03F200
ENDCHAR
STARTCHAR 0048
ENCODING 72
SWIDTH 833 0
DWIDTH 20 0
BBX 18 17 1 0
BITMAP
FE1FC0
380600
100600
100600
100600
100600
100600
100600
1FFE00
100600
100600
100600
100600
100600
100600
300600
FE1FC0
ENDCHAR
STARTCHAR 0049
ENCODING 73
SWIDTH 375 0
DWIDTH 9 0
BBX 7 17 1 0
BITMAP
FE
38
10
10
10
10
10
10
10
10
10
10
10
10
10
18
FE
ENDCHAR
STARTCHAR 004A
ENCODING 74
SWIDTH 458 0
DWIDTH 11 0
BBX 10 17 0 0
BITMAP
0FC0
0300
0300
0300
0300
0300
0300
0300
0300
0300
0300
0300
0300
E300
E300
4600
3C00
ENDCHAR
STARTCHAR 004B
ENCODING 75
SWIDTH 708 0
DWIDTH 17 0
BBX 16 17 1 0
BITMAP
FE3F
3808
1010
1020
1040
1080
1100
1200
1700
1980
10C0
1060
1030
1030
1018
180C
FE3F
ENDCHAR
STARTCHAR 004C
ENCODING 76
SWIDTH 625 0
DWIDTH 15 0
BBX 14 17 1 0
BITMAP
FE00
3800
1000
1000
1000
1000
1000
1000
1000
1000
1000
1000
1004
1008
1008
1818
FFF8
ENDCHAR
STARTCHAR 004D
ENCODING 77
SWIDTH 958 0
DWIDTH 23 0
BBX 21 17 1 0
BITMAP
F800F8
3C01E0
3C0140
340140
360240
360240
320640
330440
330440
318840
318840
308840
30D040
30D040
307040
306060
FC23F8
ENDCHAR
STARTCHAR 004E
ENCODING 78
SWIDTH 833 0
DWIDTH 20 0
BBX 18 17 1 0
BITMAP
F80FC0
380300
3C0300
360300
360300
330300
318300
30C300
30C300
306300
303300
303300
301B00
300F00
300700
300700
FC0300
ENDCHAR
STARTCHAR 004F
ENCODING 79
SWIDTH 791 0
DWIDTH 19 0
BBX 17 17 1 0
BITMAP
03F000
0C1800
180600
300600
600300
600300
600180
C00180
C00180
C00180
600180
600300
600300
300600
180600
0C1C00
03F000
ENDCHAR
STARTCHAR 0050
ENCODING 80
SWIDTH 625 0
DWIDTH 15 0
BBX 14 17 1 0
BITMAP
FFE0
1818
100C
100C
100C
100C
101C
1038
1FE0
1000
1000
1000
1000
1000
1000
3800
FE00
ENDCHAR
STARTCHAR 0051
ENCODING 81
SWIDTH 791 0
DWIDTH 19 0
BBX 18 20 1 -3
BITMAP
07F000
1C1800
380600
300600
600300
600300
600180
C00180
C00180
400180
400180
600180
61C300
222300
141600
0A1C00
07F800
000C40
000640
000380
ENDCHAR
STARTCHAR 0052
ENCODING 82
SWIDTH 708 0
DWIDTH 17 0
BBX 16 17 1 0
BITMAP
FFE0
3818
1008
100C
100C
100C
1018
1030
1FC0
10C0
1060
1030
1030
1018
1018
380C
FE0F
ENDCHAR
STARTCHAR 0053
ENCODING 83
SWIDTH 625 0
DWIDTH 15 0
BBX 11 17 2 0
BITMAP
3F20
61E0
C060
C020
C020
C000
6000
3C00
0F00
01C0
00E0
0060
8060
8060
C060
E0C0
3F00
ENDCHAR
STARTCHAR 0054
ENCODING 84
SWIDTH 625 0
DWIDTH 15 0
BBX 15 17 0 0
BITMAP
FFFE
C106
8102
8102
0100
0100
0100
0100
0100
0100
0100
0100
0100
0100
0100
0300
0FE0
ENDCHAR
STARTCHAR 0055
ENCODING 85
SWIDTH 791 0
DWIDTH 19 0
BBX 19 17 0 0
BITMAP
FE07E0
180180
180100
180100
180100
180100
180100
180100
180100
180100
180100
180100
180100
080300
0C0200
060C00
01F800
ENDCHAR
STARTCHAR 0056
ENCODING 86
SWIDTH 708 0
DWIDTH 17 0
BBX 17 17 0 0
BITMAP
FC0F80
300200
100200
180400
180400
080C00
0C0800
040800
061000
061000
021000
032000
032000
014000
01C000
00C000
008000
ENDCHAR
STARTCHAR 0057
ENCODING 87
SWIDTH 958 0
DWIDTH 23 0
BBX 23 17 0 0
BITMAP
FC7E3E
301808
301808
101810
181810
181C10
082C30
0C2420
0C2620
044620
064240
064240
028340
028380
038180
030180
010100
ENDCHAR
STARTCHAR 0058
ENCODING 88
SWIDTH 708 0
DWIDTH 17 0
BBX 17 17 0 0
BITMAP
FE1F80
380600
180C00
0C0800
061000
033000
036000
01C000
00C000
016000
036000
063000
041800
080800
180C00
300600
FC1F80
ENDCHAR
STARTCHAR 0059
ENCODING 89
SWIDTH 666 0
DWIDTH 16 0
BBX 17 17 0 0
BITMAP
FE1F80
300600
180C00
180800
0C1800
041000
062000
036000
034000
018000
018000
018000
018000
018000
018000
018000
07F000
ENDCHAR
STARTCHAR 005A
ENCODING 90
SWIDTH 625 0
DWIDTH 15 0
BBX 13 17 1 0
BITMAP
7FF8
E030
C030
8060
80C0
0180
0180
0300
0600
0E00
0C00
1800
3008
3008
6008
C018
FFF8
ENDCHAR
STARTCHAR 005B
ENCODING 91
SWIDTH 333 0
DWIDTH 8 0
BBX 4 23 3 -5
BITMAP
F0
80
80
80
80
80
80
80
80
80
80
80
80
80
80
80
80
80
80
80
80
80
F0
ENDCHAR
STARTCHAR 005C
ENCODING 92
SWIDTH 500 0
DWIDTH 12 0
BBX 8 21 2 -4
BITMAP
80
80
40
40
40
20
20
30
10
10
08
08
08
04
04
06
02
02
01
01
01
ENDCHAR
STARTCHAR 005D
ENCODING 93
SWIDTH 333 0
DWIDTH 8 0
BBX 4 23 1 -5
BITMAP
F0
10
10
10
10
10
10
10
10
10
10
10
10
10
10
10
10
10
10
10
10
10
F0
ENDCHAR
STARTCHAR 005E
ENCODING 94
SWIDTH 500 0
DWIDTH 12 0
BBX 10 6 1 9
BITMAP
0C00
1200
3300
6180
C080
8040
ENDCHAR
STARTCHAR 005F
ENCODING 95
SWIDTH 500 0
DWIDTH 12 0
BBX 12 1 0 -3
BITMAP
FFF0
ENDCHAR
STARTCHAR 0060
ENCODING 96
SWIDTH 500 0
DWIDTH 12 0
BBX 4 4 3 14
BITMAP
40
E0
20
10
ENDCHAR
STARTCHAR 0061
ENCODING 97
SWIDTH 541 0
DWIDTH 13 0
BBX 11 12 1 0
BITMAP
1F00
2180
6080
6080
00C0
1FC0
60C0
40C0
C0C0
C0C0
63C0
3E60
ENDCHAR
STARTCHAR 0062
ENCODING 98
SWIDTH 583 0
DWIDTH 14 0
BBX 12 18 1 0
BITMAP
6000
E000
6000
6000
6000
6000
6780
78E0
7060
6030
6030
6030
6030
6030
6030
7060
7840
6780
ENDCHAR
STARTCHAR 0063
ENCODING 99
SWIDTH 541 0
DWIDTH 13 0
BBX 11 12 1 0
BITMAP
0F00
30C0
60C0
60C0
4000
C000
C000
4000
6000
6020
30C0
0F00
ENDCHAR
STARTCHAR 0064
ENCODING 100
SWIDTH 625 0
DWIDTH 15 0
BBX 13 18 1 0
BITMAP
0060
00E0
0060
0060
0060
0060
1F60
30E0
6060
6060
C060
C060
C060
C060
4060
6060
30E0
1F38
ENDCHAR
STARTCHAR 0065
ENCODING 101
SWIDTH 541 0
DWIDTH 13 0
BBX 11 12 1 0
BITMAP
0F00
30C0
6040
4060
C060
FFE0
C000
4000
4000
6020
3040
0F80
ENDCHAR
STARTCHAR 0066
ENCODING 102
SWIDTH 333 0
DWIDTH 8 0
BBX 8 17 1 0
BITMAP
1F
33
30
20
20
FE
20
20
20
20
20
20
20
20
20
30
FC
ENDCHAR
STARTCHAR 0067
ENCODING 103
SWIDTH 541 0
DWIDTH 13 0
BBX 12 19 1 -5
BITMAP
0070
00F0
1F80
31C0
60C0
4040
4040
40C0
2180
3F00
6000
3000
1FC0
60E0
C060
C020
C060
60C0
1F80
ENDCHAR
STARTCHAR 0068
ENCODING 104
SWIDTH 625 0
DWIDTH 15 0
BBX 13 18 1 0
BITMAP
6000
E000
2000
2000
2000
2000
27C0
2860
3060
2020
2020
2020
2020
2020
2020
2020
2020
F8F8
ENDCHAR
STARTCHAR 0069
ENCODING 105
SWIDTH 291 0
DWIDTH 7 0
BBX 6 17 1 0
BITMAP
30
30
00
00
00
F0
30
30
30
30
30
30
30
30
30
30
FC
ENDCHAR
STARTCHAR 006A
ENCODING 106
SWIDTH 291 0
DWIDTH 7 0
BBX 6 22 -1 -5
BITMAP
0C
0C
00
00
00
3C
0C
0C
0C
0C
0C
0C
0C
0C
0C
0C
0C
0C
0C
C8
D8
70
ENDCHAR
STARTCHAR 006B
ENCODING 107
SWIDTH 583 0
DWIDTH 14 0
BBX 12 18 1 0
BITMAP
6000
E000
2000
2000
2000
2000
21F0
20C0
2180
2200
2400
2C00
3600
2300
2180
20C0
2060
FDF0
ENDCHAR
STARTCHAR 006C
ENCODING 108
SWIDTH 291 0
DWIDTH 7 0
BBX 5 17 1 0
BITMAP
E0
20
20
20
20
20
20
20
20
20
20
20
20
20
20
20
F8
ENDCHAR
STARTCHAR 006D
ENCODING 109
SWIDTH 916 0
DWIDTH 22 0
BBX 20 12 1 0
BITMAP
F78F00
38D080
3060C0
3060C0
3060C0
3060C0
3060C0
3060C0
3060C0
3060C0
3060C0
FDFBF0
ENDCHAR
STARTCHAR 006E
ENCODING 110
SWIDTH 625 0
DWIDTH 15 0
BBX 14 12 1 0
BITMAP
F7C0
3860
3020
3030
3030
3030
3030
3030
3030
3030
3030
FCFC
ENDCHAR
STARTCHAR 006F
ENCODING 111
SWIDTH 583 0
DWIDTH 14 0
BBX 12 12 1 0
BITMAP
0F00
30C0
6060
6020
4030
C030
C030
4030
6020
6060
30C0
0F00
ENDCHAR
STARTCHAR 0070
ENCODING 112
SWIDTH 625 0
DWIDTH 15 0
BBX 12 16 1 -4
BITMAP
E7C0
2860
3030
3030
2010
2010
2010
2010
2030
3030
2860
2780
2000
2000
2000
FC00
ENDCHAR
STARTCHAR 0071
ENCODING 113
SWIDTH 583 0
DWIDTH 14 0
BBX 13 16 1 -4
BITMAP
0F20
30A0
6060
6060
4060
C060
C060
C060
4060
6060
30E0
1F60
0060
0060
0060
01F8
ENDCHAR
STARTCHAR 0072
ENCODING 114
SWIDTH 416 0
DWIDTH 10 0
BBX 9 12 1 0
BITMAP
F780
3980
3000
3000
3000
3000
3000
3000
3000
3000
3000
FC00
ENDCHAR
STARTCHAR 0073
ENCODING 115
SWIDTH 458 0
DWIDTH 11 0
BBX 9 12 1 0
BITMAP
3F80
6380
4080
4080
6000
3C00
0700
0180
8080
C080
E180
9E00
ENDCHAR
STARTCHAR 0074
ENCODING 116
SWIDTH 333 0
DWIDTH 8 0
BBX 8 15 0 0
BITMAP
10
10
30
FF
30
30
30
30
30
30
30
30
30
11
1E
ENDCHAR
STARTCHAR 0075
ENCODING 117
SWIDTH 625 0
DWIDTH 15 0
BBX 13 12 1 0
BITMAP
E1E0
6060
2020
2020
2020
2020
2020
2020
2060
2060
30A0
1F38
ENDCHAR
STARTCHAR 0076
ENCODING 118
SWIDTH 541 0
DWIDTH 13 0
BBX 13 12 0 0
BITMAP
F8F8
3020
3020
1040
1040
1840
0880
0C80
0500
0500
0700
0200
ENDCHAR
STARTCHAR 0077
ENCODING 119
SWIDTH 791 0
DWIDTH 19 0
BBX 19 12 0 0
BITMAP
F9F3E0
204080
306080
306100
10A100
18B100
189200
091200
0D1A00
060C00
060C00
040C00
ENDCHAR
STARTCHAR 0078
ENCODING 120
SWIDTH 500 0
DWIDTH 12 0
BBX 13 12 0 0
BITMAP
F8F0
3040
18C0
0880
0D00
0600
0700
0900
1980
10C0
2060
F9F8
ENDCHAR
STARTCHAR 0079
ENCODING 121
SWIDTH 541 0
DWIDTH 13 0
BBX 13 16 0 -4
BITMAP
F8F8
3020
3020
1040
1840
1880
0C80
0C80
0500
0700
0200
0200
0200
0400
3400
3800
ENDCHAR
STARTCHAR 007A
ENCODING 122
SWIDTH 458 0
DWIDTH 11 0
BBX 9 12 1 0
BITMAP
FF80
C180
8300
8600
0400
0C00
1800
3000
3000
6080
C080
FF80
ENDCHAR
STARTCHAR 007B
ENCODING 123
SWIDTH 333 0
DWIDTH 8 0
BBX 6 23 1 -5
BITMAP
18
30
20
20
20
20
20
20
20
20
40
C0
60
20
20
20
20
20
20
20
20
30
1C
ENDCHAR
STARTCHAR 007C
ENCODING 124
SWIDTH 208 0
DWIDTH 5 0
BBX 1 22 2 -4
BITMAP
80
80
80
80
80
80
80
80
80
80
80
80
80
80
80
80
80
80
80
80
80
80
ENDCHAR
STARTCHAR 007D
ENCODING 125
SWIDTH 333 0
DWIDTH 8 0
BBX 6 23 1 -5
BITMAP
70
10
10
10
10
10
10
10
10
18
08
0C
18
10
10
10
10
10
10
10
10
30
E0
ENDCHAR
STARTCHAR 007E
ENCODING 126
SWIDTH 500 0
DWIDTH 12 0
BBX 6 3 3 14
BITMAP
60
94
0C
ENDCHAR
STARTCHAR 00A0
ENCODING 160
SWIDTH 291 0
DWIDTH 7 0
BBX 0 0 0 0
BITMAP
ENDCHAR
STARTCHAR 00A1
ENCODING 161
SWIDTH 291 0
DWIDTH 7 0
BBX 3 17 2 0
BITMAP
E0
E0
C0
00
00
40
40
40
40
40
40
40
40
40
C0
C0
40
ENDCHAR
STARTCHAR 00A2
ENCODING 162
SWIDTH 541 0
DWIDTH 13 0
BBX 10 17 2 1
BITMAP
0100
0200
1F00
7280
64C0
C4C0
C400
8400
8800
8800
C800
D040
7080
1F00
2000
2000
2000
ENDCHAR
STARTCHAR 00A3
ENCODING 163
SWIDTH 750 0
DWIDTH 18 0
BBX 14 18 2 0
BITMAP
03E0
0E30
0C30
1830
1800
0800
0800
0C00
7FE0
0400
0600
0600
0200
7E00
8704
87C4
84F8
7838
ENDCHAR
STARTCHAR 00A4
ENCODING 164
SWIDTH 625 0
DWIDTH 15 0
BBX 11 11 2 2
BITMAP
9E60
71C0
40C0
4040
C060
8060
8040
4040
4040
71C0
8E00
ENDCHAR
STARTCHAR 00A5
ENCODING 165
SWIDTH 625 0
DWIDTH 15 0
BBX 15 17 0 0
BITMAP
FC3E
3008
3010
1810
0820
0C40
0640
0280
3FF8
0100
0100
3FF8
0100
0100
0100
0300
0FE0
ENDCHAR
STARTCHAR 00A6
ENCODING 166
SWIDTH 208 0
DWIDTH 5 0
BBX 1 22 2 -4
BITMAP
80
80
80
80
80
80
80
80
80
00
00
00
00
80
80
80
80
80
80
80
80
80
ENDCHAR
STARTCHAR 00A7
ENCODING 167
SWIDTH 666 0
DWIDTH 16 0
BBX 10 21 3 -1
BITMAP
1F00
6080
41C0
C0C0
4000
6000
3800
2E00
4380
C0C0
C0C0
6040
3840
0E80
0300
00C0
C0C0
E040
C0C0
6180
1F00
ENDCHAR
STARTCHAR 00A8
ENCODING 168
SWIDTH 500 0
DWIDTH 12 0
BBX 6 2 3 15
BITMAP
CC
CC
ENDCHAR
STARTCHAR 00A9
ENCODING 169
SWIDTH 1000 0
DWIDTH 24 0
BBX 20 19 2 -1
BITMAP
01F800
060600
180180
30FAC0
230E40
460620
460220
840030
8C0010
8C0010
8C0010
8C0210
460220
460620
230C40
30F0C0
180180
060600
01F800
ENDCHAR
STARTCHAR 00AA
ENCODING 170
SWIDTH 416 0
DWIDTH 10 0
BBX 8 10 1 7
BITMAP
3C
66
06
3E
46
46
46
7B
00
FF
ENDCHAR
STARTCHAR 00AB
ENCODING 171
SWIDTH 500 0
DWIDTH 12 0
BBX 8 10 2 2
BITMAP
11
23
62
46
CC
C4
66
22
21
10
ENDCHAR
STARTCHAR 00AC
ENCODING 172
SWIDTH 666 0
DWIDTH 16 0
BBX 12 5 2 4
BITMAP
FFF0
0030
0030
0030
0030
ENDCHAR
STARTCHAR 00AD
ENCODING 173
SWIDTH 666 0
DWIDTH 16 0
BBX 13 1 2 7
BITMAP
FFF8
ENDCHAR
STARTCHAR 00AE
ENCODING 174
SWIDTH 1000 0
DWIDTH 24 0
BBX 20 19 2 -1
BITMAP
01F800
060600
180180
37F8C0
230C40
410620
410620
810430
813810
81F010
811810
810C10
410C20
430620
27C740
3000C0
180180
060600
01F800
ENDCHAR
STARTCHAR 00AF
ENCODING 175
SWIDTH 500 0
DWIDTH 12 0
BBX 6 1 3 15
BITMAP
FC
ENDCHAR
STARTCHAR 00B0
ENCODING 176
SWIDTH 291 0
DWIDTH 7 0
BBX 5 5 1 15
BITMAP
70
88
88
88
70
ENDCHAR
STARTCHAR 00B1
ENCODING 177
SWIDTH 666 0
DWIDTH 16 0
BBX 13 13 2 2
BITMAP
0200
0200
0200
0200
0200
FFF8
0200
0200
0200
0200
0200
0000
FFF8
ENDCHAR
STARTCHAR 00B2
ENCODING 178
SWIDTH 375 0
DWIDTH 9 0
BBX 6 9 1 8
BITMAP
78
44
C4
04
08
30
40
44
FC
ENDCHAR
STARTCHAR 00B3
ENCODING 179
SWIDTH 375 0
DWIDTH 9 0
BBX 7 9 1 8
BITMAP
3C
44
44
0C
1C
46
C6
44
38
ENDCHAR
STARTCHAR 00B4
ENCODING 180
SWIDTH 500 0
DWIDTH 12 0
BBX 4 3 5 15
BITMAP
30
60
80
ENDCHAR
STARTCHAR 00B6
ENCODING 182
SWIDTH 1000 0
DWIDTH 24 0
BBX 10 22 6 -2
BITMAP
3FC0
7840
F840
F840
F840
F840
7840
3840
0840
0840
0840
0840
0840
0840
0840
0840
0840
0840
0840
0840
0840
0840
ENDCHAR
STARTCHAR 00B7
ENCODING 183
SWIDTH 250 0
DWIDTH 6 0
BBX 2 3 2 6
BITMAP
C0
C0
C0
ENDCHAR
STARTCHAR 00B8
ENCODING 184
SWIDTH 500 0
DWIDTH 12 0
BBX 4 6 4 -6
BITMAP
40
E0
30
10
70
80
ENDCHAR
STARTCHAR 00B9
ENCODING 185
SWIDTH 375 0
DWIDTH 9 0
BBX 5 9 2 9
BITMAP
20
E0
20
20
20
20
20
20
F8
ENDCHAR
STARTCHAR 00BA
ENCODING 186
SWIDTH 416 0
DWIDTH 10 0
BBX 8 10 1 7
BITMAP
3C
62
43
C3
C3
43
62
3C
00
FF
ENDCHAR
STARTCHAR 00BB
ENCODING 187
SWIDTH 500 0
DWIDTH 12 0
BBX 8 10 2 2
BITMAP
88
44
46
23
33
23
62
44
84
88
ENDCHAR
STARTCHAR 00BC
ENCODING 188
SWIDTH 750 0
DWIDTH 18 0
BBX 15 17 2 1
BITMAP
E00C
2008
2010
2030
2020
2040
2080
F980
0108
0218
0628
0448
0888
10FE
1008
2008
401E
ENDCHAR
STARTCHAR 00BD
ENCODING 189
SWIDTH 750 0
DWIDTH 18 0
BBX 15 17 2 1
BITMAP
E00C
2008
2010
2030
2020
2040
2080
F9BC
0166
0262
0666
0406
080C
1010
1022
2042
407E
ENDCHAR
STARTCHAR 00BE
ENCODING 190
SWIDTH 750 0
DWIDTH 18 0
BBX 15 17 2 1
BITMAP
780C
8808
8810
1830
3820
8C40
8C80
F980
0108
0218
0628
0448
0888
10FE
1008
2008
401E
ENDCHAR
STARTCHAR 00BF
ENCODING 191
SWIDTH 500 0
DWIDTH 12 0
BBX 10 17 1 0
BITMAP
0600
0E00
0600
0000
0400
0400
0400
0C00
1800
3000
6000
40C0
C0C0
C040
60C0
7180
1F00
ENDCHAR
STARTCHAR 00C0
ENCODING 192
SWIDTH 708 0
DWIDTH 17 0
BBX 18 22 0 0
BITMAP
020000
070000
018000
000000
000000
008000
00C000
014000
016000
036000
022000
023000
043000
041800
0C1800
0FF800
080C00
180C00
100600
300600
300700
FC1FC0
ENDCHAR
STARTCHAR 00C1
ENCODING 193
SWIDTH 708 0
DWIDTH 17 0
BBX 18 22 0 0
BITMAP
002000
007000
00C000
008000
000000
008000
00C000
014000
016000
036000
022000
023000
043000
041800
0C1800
0FF800
080C00
180C00
100600
300600
300700
FC1FC0
ENDCHAR
STARTCHAR 00C2
ENCODING 194
SWIDTH 708 0
DWIDTH 17 0
BBX 18 22 0 0
BITMAP
008000
01C000
023000
000000
000000
008000
00C000
01C000
016000
036000
022000
023000
043000
041800
041800
0FF800
080C00
180C00
100600
100600
300700
FC1FC0
ENDCHAR
STARTCHAR 00C3
ENCODING 195
SWIDTH 708 0
DWIDTH 17 0
BBX 18 21 0 0
BITMAP
038800
047000
000000
000000
008000
00C000
01C000
016000
036000
022000
023000
043000
041800
041800
0FF800
080C00
180C00
100600
100600
300700
FC1FC0
ENDCHAR
STARTCHAR 00C4
ENCODING 196
SWIDTH 708 0
DWIDTH 17 0
BBX 18 21 0 0
BITMAP
063000
063000
000000
000000
008000
00C000
01C000
016000
036000
022000
023000
043000
041800
041800
0FF800
080C00
180C00
100600
100600
300700
FC1FC0
ENDCHAR
STARTCHAR 00C5
ENCODING 197
SWIDTH 708 0
DWIDTH 17 0
BBX 18 22 0 0
BITMAP
01C000
012000
012000
01C000
000000
008000
00C000
014000
016000
036000
022000
023000
043000
041800
0C1800
0FF800
080C00
180C00
100600
300600
300700
FC1FC0
ENDCHAR
STARTCHAR 00C6
ENCODING 198
SWIDTH 1000 0
DWIDTH 24 0
BBX 22 17 0 0
BITMAP
01FFFC
00580C
005804
00D804
009804
019800
011840
031840
03FFC0
061840
041840
0C1800
081804
181804
101804
30180C
FC7FFC
ENDCHAR
STARTCHAR 00C7
ENCODING 199
SWIDTH 750 0
DWIDTH 18 0
BBX 16 24 1 -7
BITMAP
03F2
0C1E
1806
3002
6002
6000
6000
C000
C000
C000
6000
6000
6003
3002
3806
1C1C
07F0
0080
0100
01E0
0060
0060
01E0
0200
ENDCHAR
STARTCHAR 00C8
ENCODING 200
SWIDTH 708 0
DWIDTH 17 0
BBX 14 22 1 0
BITMAP
0400
0E00
0300
0000
0000
FFFC
300C
1004
1004
1004
1040
1040
1040
1FC0
1040
1040
1000
1004
1004
1004
300C
FFFC
ENDCHAR
STARTCHAR 00C9
ENCODING 201
SWIDTH 708 0
DWIDTH 17 0
BBX 14 22 1 0
BITMAP
0040
00E0
0180
0100
0000
FFFC
300C
1004
1004
1004
1040
1040
1040
1FC0
1040
1040
1000
1004
1004
1004
300C
FFFC
ENDCHAR
STARTCHAR 00CA
ENCODING 202
SWIDTH 708 0
DWIDTH 17 0
BBX 14 22 1 0
BITMAP
0100
0380
0660
0000
0000
FFFC
300C
1004
1004
1004
1040
1040
1040
1FC0
1040
1040
1000
1004
1004
1004
300C
FFFC
ENDCHAR
STARTCHAR 00CB
ENCODING 203
SWIDTH 708 0
DWIDTH 17 0
BBX 14 21 1 0
BITMAP
0C60
0C60
0000
0000
FFFC
300C
1004
1004
1004
1040
1040
1040
1FC0
1040
1040
1000
1004
1004
1004
300C
FFFC
ENDCHAR
STARTCHAR 00CC
ENCODING 204
SWIDTH 375 0
DWIDTH 9 0
BBX 7 22 1 0
BITMAP
40
E0
30
10
00
FE
18
10
10
10
10
10
10
10
10
10
10
10
10
10
38
FE
ENDCHAR
STARTCHAR 00CD
ENCODING 205
SWIDTH 375 0
DWIDTH 9 0
BBX 7 22 1 0
BITMAP
04
0E
18
00
00
FE
18
10
10
10
10
10
10
10
10
10
10
10
10
10
38
FE
ENDCHAR
STARTCHAR 00CE
ENCODING 206
SWIDTH 375 0
DWIDTH 9 0
BBX 7 22 1 0
BITMAP
10
38
44
00
00
FE
18
10
10
10
10
10
10
10
10
10
10
10
10
10
38
FE
ENDCHAR
STARTCHAR 00CF
ENCODING 207
SWIDTH 375 0
DWIDTH 9 0
BBX 7 21 1 0
BITMAP
C6
C6
00
00
FE
18
10
10
10
10
10
10
10
10
10
10
10
10
10
38
FE
ENDCHAR
STARTCHAR 00D0
ENCODING 208
SWIDTH 791 0
DWIDTH 19 0
BBX 17 17 1 0
BITMAP
FFE000
381800
100400
100600
100300
100300
100300
100100
FF8180
100100
100300
100300
100300
100600
100400
381800
FFE000
ENDCHAR
STARTCHAR 00D1
ENCODING 209
SWIDTH 833 0
DWIDTH 20 0
BBX 18 21 1 0
BITMAP
038000
047000
000000
000000
F80FC0
380300
3C0300
360300
320300
330300
318300
30C300
30C300
306300
303300
303300
301B00
300F00
300700
300700
FC0300
ENDCHAR
STARTCHAR 00D2
ENCODING 210
SWIDTH 791 0
DWIDTH 19 0
BBX 17 22 1 0
BITMAP
020000
070000
018000
000000
000000
03F000
0C1800
100600
200600
600300
600300
600180
C00180
C00180
C00180
600180
600300
600300
300600
180600
0C1C00
03F000
ENDCHAR
STARTCHAR 00D3
ENCODING 211
SWIDTH 791 0
DWIDTH 19 0
BBX 17 22 1 0
BITMAP
002000
007000
00C000
008000
000000
03F000
0C1800
100600
200600
600300
600300
600180
C00180
C00180
C00180
600180
600300
600300
300600
180600
0C1C00
03F000
ENDCHAR
STARTCHAR 00D4
ENCODING 212
SWIDTH 791 0
DWIDTH 19 0
BBX 17 22 1 0
BITMAP
008000
01C000
022000
000000
000000
03F000
0C1800
100600
200600
600300
600300
600180
C00180
C00180
C00180
600180
600300
600300
300600
180600
0C1C00
03F000
ENDCHAR
STARTCHAR 00D5
ENCODING 213
SWIDTH 791 0
DWIDTH 19 0
BBX 17 21 1 0
BITMAP
038000
047000
000000
000000
03F000
0C1800
100600
200600
600300
600300
600180
C00180
C00180
C00180
600180
600300
600300
300600
180600
0C1C00
03F000
ENDCHAR
STARTCHAR 00D6
ENCODING 214
SWIDTH 791 0
DWIDTH 19 0
BBX 17 21 1 0
BITMAP
063000
063000
000000
000000
03F000
0C1800
100600
200600
600300
600300
600180
C00180
C00180
C00180
600180
600300
600300
300600
180600
0C1C00
03F000
ENDCHAR
STARTCHAR 00D7
ENCODING 215
SWIDTH 666 0
DWIDTH 16 0
BBX 10 10 3 3
BITMAP
C040
6080
3100
1A00
0C00
0E00
1300
2180
40C0
0040
ENDCHAR
STARTCHAR 00D8
ENCODING 216
SWIDTH 791 0
DWIDTH 19 0
BBX 17 17 1 1
BITMAP
03F300
0C0E00
180600
300B00
601B00
603100
602180
E04180
C08180
C10180
630180
660300
640300
280600
300600
3C1C00
67F000
ENDCHAR
STARTCHAR 00D9
ENCODING 217
SWIDTH 791 0
DWIDTH 19 0
BBX 19 22 0 0
BITMAP
010000
018000
00C000
000000
000000
FE07E0
180180
180100
180100
180100
180100
180100
180100
180100
180100
180100
180100
180100
080300
0C0200
060C00
01F800
ENDCHAR
STARTCHAR 00DA
ENCODING 218
SWIDTH 791 0
DWIDTH 19 0
BBX 19 22 0 0
BITMAP
000800
001800
002000
004000
000000
FE07E0
180180
180100
180100
180100
180100
180100
180100
180100
180100
180100
180100
180100
080300
0C0200
060C00
01F800
ENDCHAR
STARTCHAR 00DB
ENCODING 219
SWIDTH 791 0
DWIDTH 19 0
BBX 19 22 0 0
BITMAP
004000
00F000
019800
000000
000000
FE07E0
180180
180100
180100
180100
180100
180100
180100
180100
180100
180100
180100
180100
080300
0C0200
060C00
01F800
ENDCHAR
STARTCHAR 00DC
ENCODING 220
SWIDTH 791 0
DWIDTH 19 0
BBX 19 21 0 0
BITMAP
031800
031800
000000
000000
FE07E0
180180
180100
180100
180100
180100
180100
180100
180100
180100
180100
180100
180100
080300
0C0200
060C00
01F800
ENDCHAR
STARTCHAR 00DD
ENCODING 221
SWIDTH 666 0
DWIDTH 16 0
BBX 17 22 0 0
BITMAP
001000
003000
00C000
008000
000000
FE1F80
300600
180C00
180800
0C1000
041000
062000
036000
034000
018000
018000
018000
018000
018000
018000
018000
07F000
ENDCHAR
STARTCHAR 00DE
ENCODING 222
SWIDTH 666 0
DWIDTH 16 0
BBX 15 17 1 0
BITMAP
FE00
3800
1000
1F80
1070
101C
100C
1004
1006
1004
100C
1018
1070
1F80
1000
3800
FE00
ENDCHAR
STARTCHAR 00DF
ENCODING 223
SWIDTH 541 0
DWIDTH 13 0
BBX 12 17 0 0
BITMAP
0FC0
18C0
1060
3060
3060
3040
30C0
3300
30C0
3060
3030
3030
3030
3030
3030
3320
FFC0
ENDCHAR
STARTCHAR 00E0
ENCODING 224
SWIDTH 541 0
DWIDTH 13 0
BBX 11 17 1 1
BITMAP
1800
0C00
0000
0000
0000
1F00
2180
6080
60C0
00C0
1FC0
60C0
40C0
C0C0
C0C0
61C0
3E60
ENDCHAR
STARTCHAR 00E1
ENCODING 225
SWIDTH 541 0
DWIDTH 13 0
BBX 11 17 1 1
BITMAP
0300
0600
0800
0000
0000
1F00
2180
6080
60C0
00C0
1FC0
60C0
40C0
C0C0
C0C0
61C0
3E60
ENDCHAR
STARTCHAR 00E2
ENCODING 226
SWIDTH 541 0
DWIDTH 13 0
BBX 11 17 1 0
BITMAP
0C00
1A00
0100
0000
0000
1F00
2180
6080
60C0
00C0
1FC0
60C0
40C0
C0C0
C0C0
61C0
3E60
ENDCHAR
STARTCHAR 00E3
ENCODING 227
SWIDTH 541 0
DWIDTH 13 0
BBX 11 17 1 0
BITMAP
1C00
2700
0000
0000
0000
1F00
2180
6080
60C0
00C0
1FC0
60C0
40C0
C0C0
C0C0
61C0
3E60
ENDCHAR
STARTCHAR 00E4
ENCODING 228
SWIDTH 541 0
DWIDTH 13 0
BBX 11 17 1 0
BITMAP
3100
3100
0000
0000
0000
1F00
2180
6080
60C0
00C0
1FC0
60C0
40C0
C0C0
C0C0
61C0
3E60
ENDCHAR
STARTCHAR 00E5
ENCODING 229
SWIDTH 541 0
DWIDTH 13 0
BBX 11 17 1 0
BITMAP
0E00
1200
0E00
0000
0000
1F00
2180
6080
60C0
00C0
1FC0
60C0
40C0
C0C0
C0C0
61C0
3E60
ENDCHAR
STARTCHAR 00E6
ENCODING 230
SWIDTH 833 0
DWIDTH 20 0
BBX 18 12 1 0
BITMAP
1F1E00
21E180
60C080
60C0C0
00C040
1FFFC0
70C000
40C000
C0C000
C0C040
617080
3E1F00
ENDCHAR
STARTCHAR 00E7
ENCODING 231
SWIDTH 541 0
DWIDTH 13 0
BBX 11 17 1 -5
BITMAP
0F80
3040
60C0
60C0
4000
C000
C000
4000
6000
6060
30C0
0F00
0400
0700
0100
0180
0F00
ENDCHAR
STARTCHAR 00E8
ENCODING 232
SWIDTH 541 0
DWIDTH 13 0
BBX 11 17 1 1
BITMAP
1800
0400
0200
0000
0000
0F00
30C0
6040
6060
C060
FFE0
C000
4000
4000
6020
3040
0F80
ENDCHAR
STARTCHAR 00E9
ENCODING 233
SWIDTH 541 0
DWIDTH 13 0
BBX 11 17 1 1
BITMAP
0180
0200
0400
0000
0000
0F00
30C0
6040
6060
C060
FFE0
C000
4000
4000
6020
3040
0F80
ENDCHAR
STARTCHAR 00EA
ENCODING 234
SWIDTH 541 0
DWIDTH 13 0
BBX 11 17 1 0
BITMAP
0600
0B00
1080
0000
0000
0F00
30C0
6040
6060
C060
FFE0
C000
4000
4000
6020
3040
0F80
ENDCHAR
STARTCHAR 00EB
ENCODING 235
SWIDTH 541 0
DWIDTH 13 0
BBX 11 17 1 0
BITMAP
1980
1980
0000
0000
0000
0F00
30C0
6040
6060
C060
FFE0
C000
4000
4000
6020
3040
0F80
ENDCHAR
STARTCHAR 00EC
ENCODING 236
SWIDTH 291 0
DWIDTH 7 0
BBX 6 17 1 1
BITMAP
C0
60
10
00
00
F0
30
30
30
30
30
30
30
30
30
30
FC
ENDCHAR
STARTCHAR 00ED
ENCODING 237
SWIDTH 291 0
DWIDTH 7 0
BBX 6 17 1 1
BITMAP
18
30
20
00
00
F0
30
30
30
30
30
30
30
30
30
30
FC
ENDCHAR
STARTCHAR 00EE
ENCODING 238
SWIDTH 291 0
DWIDTH 7 0
BBX 6 17 1 0
BITMAP
20
70
88
00
00
F0
30
30
30
30
30
30
30
30
30
30
FC
ENDCHAR
STARTCHAR 00EF
ENCODING 239
SWIDTH 291 0
DWIDTH 7 0
BBX 7 17 0 0
BITMAP
46
C6
00
00
00
78
18
18
18
18
18
18
18
18
18
18
7E
ENDCHAR
STARTCHAR 00F0
ENCODING 240
SWIDTH 583 0
DWIDTH 14 0
BBX 12 17 1 1
BITMAP
3900
0600
1B00
2180
00C0
0FC0
30E0
6060
4060
C020
C030
C030
C020
4060
6060
30C0
0F00
ENDCHAR
STARTCHAR 00F1
ENCODING 241
SWIDTH 625 0
DWIDTH 15 0
BBX 14 17 1 0
BITMAP
0C00
1340
0180
0000
0000
F7C0
3860
3020
3030
3030
3030
3030
3030
3030
3030
3030
FCFC
ENDCHAR
STARTCHAR 00F2
ENCODING 242
SWIDTH 583 0
DWIDTH 14 0
BBX 12 18 1 0
BITMAP
0800
1C00
0600
0200
0000
0000
0F00
30C0
6060
6060
4030
C030
C030
4030
6020
6060
30C0
0F80
ENDCHAR
STARTCHAR 00F3
ENCODING 243
SWIDTH 583 0
DWIDTH 14 0
BBX 12 17 1 1
BITMAP
0180
0200
0400
0000
0000
0F00
30C0
6060
6060
4030
C030
C030
4030
6020
6060
30C0
0F80
ENDCHAR
STARTCHAR 00F4
ENCODING 244
SWIDTH 583 0
DWIDTH 14 0
BBX 12 17 1 0
BITMAP
0600
0D00
1080
0000
0000
0F00
30C0
6060
6060
4030
C030
C030
4030
6020
6060
30C0
0F80
ENDCHAR
STARTCHAR 00F5
ENCODING 245
SWIDTH 583 0
DWIDTH 14 0
BBX 12 17 1 0
BITMAP
1C00
1380
0000
0000
0000
0F00
30C0
6060
6060
4030
C030
C030
4030
6020
6060
30C0
0F80
ENDCHAR
STARTCHAR 00F6
ENCODING 246
SWIDTH 583 0
DWIDTH 14 0
BBX 12 17 1 0
BITMAP
1980
1980
0000
0000
0000
0F00
30C0
6060
6060
4030
C030
C030
4030
6020
6060
30C0
0F80
ENDCHAR
STARTCHAR 00F7
ENCODING 247
SWIDTH 666 0
DWIDTH 16 0
BBX 13 11 2 2
BITMAP
0600
0700
0600
0000
0000
FFF8
0000
0000
0600
0700
0600
ENDCHAR
STARTCHAR 00F8
ENCODING 248
SWIDTH 583 0
DWIDTH 14 0
BBX 12 13 1 0
BITMAP
0020
0FE0
30C0
60E0
6120
4330
C230
C430
4830
5020
7060
30C0
5F00
ENDCHAR
STARTCHAR 00F9
ENCODING 249
SWIDTH 625 0
DWIDTH 15 0
BBX 13 18 1 0
BITMAP
0800
1800
0400
0200
0000
0000
E1E0
6060
2020
2020
2020
2020
2020
2020
2060
2060
30A0
1F38
ENDCHAR
STARTCHAR 00FA
ENCODING 250
SWIDTH 625 0
DWIDTH 15 0
BBX 13 17 1 1
BITMAP
0180
0300
0400
0000
0000
E1E0
6060
2020
2020
2020
2020
2020
2020
2060
2060
30A0
1F38
ENDCHAR
STARTCHAR 00FB
ENCODING 251
SWIDTH 625 0
DWIDTH 15 0
BBX 13 17 1 0
BITMAP
0600
0F00
1880
0000
0000
E1E0
6060
2020
2020
2020
2020
2020
2020
2060
2060
30A0
1F38
ENDCHAR
STARTCHAR 00FC
ENCODING 252
SWIDTH 625 0
DWIDTH 15 0
BBX 13 17 1 0
BITMAP
1980
1980
0000
0000
0000
E1E0
6060
2020
2020
2020
2020
2020
2020
2060
2060
30A0
1F38
ENDCHAR
STARTCHAR 00FD
ENCODING 253
SWIDTH 541 0
DWIDTH 13 0
BBX 13 22 0 -4
BITMAP
0080
01C0
0300
0200
0000
0000
F8F8
3020
3020
1040
1840
1840
0C80
0C80
0500
0700
0200
0200
0200
0400
3400
3800
ENDCHAR
STARTCHAR 00FE
ENCODING 254
SWIDTH 583 0
DWIDTH 14 0
BBX 13 22 0 -4
BITMAP
3000
7000
3000
3000
3000
3000
33C0
3C60
3830
3018
3018
3018
3018
3018
3018
3830
3C60
33C0
3000
3000
3000
FC00
ENDCHAR
STARTCHAR 00FF
ENCODING 255
SWIDTH 541 0
DWIDTH 13 0
BBX 13 21 0 -4
BITMAP
0CC0
0CC0
0000
0000
0000
F8F8
3020
3020
1040
1840
1840
0C80
0C80
0500
0700
0200
0200
0200
0400
3400
3800
ENDCHAR
STARTCHAR 0100
ENCODING 256
SWIDTH 708 0
DWIDTH 17 0
BBX 18 21 0 0
BITMAP
03F000
000000
000000
008000
00C000
00C000
014000
016000
036000
022000
023000
041000
041800
0C1800
0FF800
080C00
180C00
100600
300600
300700
FC1FC0
ENDCHAR
STARTCHAR 0101
ENCODING 257
SWIDTH 541 0
DWIDTH 13 0
BBX 11 16 1 0
BITMAP
3F00
0000
0000
0000
1F00
2180
6080
60C0
00C0
1FC0
60C0
40C0
C0C0
C0C0
63C0
3C60
ENDCHAR
STARTCHAR 0102
ENCODING 258
SWIDTH 708 0
DWIDTH 17 0
BBX 18 21 0 0
BITMAP
021000
01E000
000000
000000
008000
00C000
01C000
016000
036000
022000
023000
043000
041800
041800
0FF800
080C00
180C00
100600
100600
300700
FC1FC0
ENDCHAR
STARTCHAR 0103
ENCODING 259
SWIDTH 541 0
DWIDTH 13 0
BBX 11 17 1 0
BITMAP
1100
1F00
0000
0000
0000
1F00
2180
6080
60C0
00C0
1FC0
60C0
40C0
C0C0
C0C0
63C0
3C60
ENDCHAR
STARTCHAR 0104
ENCODING 260
SWIDTH 708 0
DWIDTH 17 0
BBX 18 23 0 -6
BITMAP
008000
00C000
01C000
016000
036000
022000
023000
043000
041800
041800
0FF800
080C00
180C00
100600
100600
300700
FC1FC0
000200
000C00
000800
001800
001900
000E00
ENDCHAR
STARTCHAR 0105
ENCODING 261
SWIDTH 541 0
DWIDTH 13 0
BBX 11 18 1 -6
BITMAP
1F00
2180
6080
60C0
00C0
1FC0
60C0
40C0
C0C0
C0C0
61C0
3E40
0060
0080
0100
0300
0320
01C0
ENDCHAR
STARTCHAR 0106
ENCODING 262
SWIDTH 750 0
DWIDTH 18 0
BBX 16 22 1 0
BITMAP
0020
0060
00C0
0000
0000
03F2
0C1E
1806
3002
6002
6000
6000
C000
C000
C000
6000
6001
6002
3002
1804
0C18
03E0
ENDCHAR
STARTCHAR 0107
ENCODING 263
SWIDTH 541 0
DWIDTH 13 0
BBX 11 17 1 1
BITMAP
0180
0200
0400
0000
0000
0F80
3040
60C0
60C0
4000
C000
C000
C000
6000
6060
30C0
0F00
ENDCHAR
STARTCHAR 0108
ENCODING 264
SWIDTH 750 0
DWIDTH 18 0
BBX 16 22 1 0
BITMAP
0080
01C0
0220
0000
0000
03F2
0C1E
1806
3002
6002
6000
6000
C000
C000
C000
6000
6001
6002
3002
1804
0C18
03E0
ENDCHAR
STARTCHAR 0109
ENCODING 265
SWIDTH 541 0
DWIDTH 13 0
BBX 11 17 1 0
BITMAP
0600
0D00
1080
0000
0000
0F80
3040
60C0
60C0
4000
C000
C000
C000
6000
6060
30C0
0F00
ENDCHAR
STARTCHAR 010C
ENCODING 268
SWIDTH 750 0
DWIDTH 18 0
BBX 16 21 1 0
BITMAP
0230
01C0
0080
0000
03F2
0C1E
1806
3002
6002
6000
6000
C000
C000
C000
6000
6001
6002
3002
1804
0C18
03E0
ENDCHAR
STARTCHAR 010D
ENCODING 269
SWIDTH 541 0
DWIDTH 13 0
BBX 11 17 1 0
BITMAP
1180
0F00
0600
0000
0000
0F80
3040
60C0
60C0
4000
C000
C000
C000
6000
6060
30C0
0F00
ENDCHAR
STARTCHAR 010E
ENCODING 270
SWIDTH 791 0
DWIDTH 19 0
BBX 17 21 1 0
BITMAP
066000
01C000
008000
000000
FFE000
381800
100400
100600
100300
100300
100300
100100
100180
100100
100300
100300
100300
100600
100C00
381800
FFE000
ENDCHAR
STARTCHAR 010F
ENCODING 271
SWIDTH 625 0
DWIDTH 15 0
BBX 15 18 1 0
BITMAP
0006
01E6
0062
0066
0068
0060
1F60
30E0
6060
4060
4060
C060
C060
C060
6060
6060
30E0
1F38
ENDCHAR
STARTCHAR 0111
ENCODING 273
SWIDTH 625 0
DWIDTH 15 0
BBX 13 17 1 0
BITMAP
01E0
0060
0060
03F0
0060
1F60
30E0
6060
4060
4060
C060
C060
C060
6060
6060
30E0
1F38
ENDCHAR
STARTCHAR 0112
ENCODING 274
SWIDTH 708 0
DWIDTH 17 0
BBX 14 21 1 0
BITMAP
07E0
0000
0000
0000
FFFC
300C
1004
1004
1004
1040
1040
1040
1FC0
1040
1040
1000
1004
1004
1004
300C
FFFC
ENDCHAR
STARTCHAR 0113
ENCODING 275
SWIDTH 541 0
DWIDTH 13 0
BBX 11 16 1 0
BITMAP
1F80
0000
0000
0000
0F00
30C0
6040
6060
C060
FFE0
C000
4000
4000
6020
3040
0F80
ENDCHAR
STARTCHAR 0118
ENCODING 280
SWIDTH 708 0
DWIDTH 17 0
BBX 14 23 1 -6
BITMAP
FFFC
300C
1004
1004
1004
1040
1040
1040
1FC0
1040
1040
1000
1004
1004
1004
300C
FFFC
0100
0200
0400
0C00
0C80
0700
ENDCHAR
STARTCHAR 0119
ENCODING 281
SWIDTH 541 0
DWIDTH 13 0
BBX 11 18 1 -6
BITMAP
0F00
30C0
6040
6060
4060
FFE0
C000
C000
4000
6020
3040
1F80
0200
0400
0C00
1800
1900
0E00
ENDCHAR
STARTCHAR 011A
ENCODING 282
SWIDTH 708 0
DWIDTH 17 0
BBX 14 21 1 0
BITMAP
0660
03C0
0100
0000
FFFC
300C
1004
1004
1004
1040
1040
1040
1FC0
1040
1040
1000
1004
1004
1004
300C
FFFC
ENDCHAR
STARTCHAR 011B
ENCODING 283
SWIDTH 541 0
DWIDTH 13 0
BBX 11 17 1 0
BITMAP
1880
0F00
0600
0000
0000
0F00
30C0
6040
6060
C060
FFE0
C000
4000
4000
6020
3040
0F80
ENDCHAR
STARTCHAR 011C
ENCODING 284
SWIDTH 791 0
DWIDTH 19 0
BBX 17 22 1 0
BITMAP
008000
01C000
022000
000000
000000
03F200
0C1E00
180600
300200
600200
600000
600000
C00000
C00000
C01F80
600600
600200
600200
300600
180600
0C1E00
03F200
ENDCHAR
STARTCHAR 011D
ENCODING 285
SWIDTH 541 0
DWIDTH 13 0
BBX 12 22 1 -5
BITMAP
0E00
1900
0000
0070
00F0
1F80
31C0
60C0
4040
4040
40C0
2180
3F00
6000
3000
1FC0
60E0
C060
C020
C060
60C0
1F80
ENDCHAR
STARTCHAR 0124
ENCODING 292
SWIDTH 833 0
DWIDTH 20 0
BBX 18 22 1 0
BITMAP
008000
01E000
033000
000000
000000
FE1FC0
380600
100600
100600
100600
100600
100600
100600
1FFE00
100600
100600
100600
100600
100600
100600
300600
FE1FC0
ENDCHAR
STARTCHAR 0125
ENCODING 293
SWIDTH 625 0
DWIDTH 15 0
BBX 13 21 1 0
BITMAP
3000
4800
8400
0000
E000
2000
2000
2000
2000
2780
2860
3060
2020
2020
2020
2020
2020
2020
2020
2020
F8F8
ENDCHAR
STARTCHAR 0127
ENCODING 295
SWIDTH 625 0
DWIDTH 15 0
BBX 13 17 1 0
BITMAP
E000
6000
2000
FC00
2000
2780
2860
3060
2020
2020
2020
2020
2020
2020
2020
2020
F8F8
ENDCHAR
STARTCHAR 012A
ENCODING 298
SWIDTH 375 0
DWIDTH 9 0
BBX 7 21 1 0
BITMAP
7E
00
00
00
FE
18
10
10
10
10
10
10
10
10
10
10
10
10
10
38
FE
ENDCHAR
STARTCHAR 012B
ENCODING 299
SWIDTH 291 0
DWIDTH 7 0
BBX 7 16 0 0
BITMAP
FC
00
00
00
78
18
18
18
18
18
18
18
18
18
18
7E
ENDCHAR
STARTCHAR 0134
ENCODING 308
SWIDTH 458 0
DWIDTH 11 0
BBX 10 22 0 0
BITMAP
0200
0780
0CC0
0000
0000
0FC0
0300
0300
0300
0300
0300
0300
0300
0300
0300
0300
0300
0300
E300
E300
4200
3C00
ENDCHAR
STARTCHAR 0135
ENCODING 309
SWIDTH 291 0
DWIDTH 7 0
BBX 7 22 -1 -5
BITMAP
08
14
22
00
00
3C
0C
0C
0C
0C
0C
0C
0C
0C
0C
0C
0C
0C
0C
C8
D8
70
ENDCHAR
STARTCHAR 0139
ENCODING 313
SWIDTH 625 0
DWIDTH 15 0
BBX 14 22 1 0
BITMAP
0200
0600
1800
1000
0000
FE00
3800
1000
1000
1000
1000
1000
1000
1000
1000
1000
1000
1004
1008
1008
1818
FFF8
ENDCHAR
STARTCHAR 013A
ENCODING 314
SWIDTH 291 0
DWIDTH 7 0
BBX 5 22 1 0
BITMAP
08
18
20
00
00
E0
20
20
20
20
20
20
20
20
20
20
20
20
20
20
20
F8
ENDCHAR
STARTCHAR 013D
ENCODING 317
SWIDTH 625 0
DWIDTH 15 0
BBX 14 18 1 0
BITMAP
0060
FE60
3820
1020
10C0
1000
1000
1000
1000
1000
1000
1000
1000
1004
1008
1008
1818
FFF8
ENDCHAR
STARTCHAR 013E
ENCODING 318
SWIDTH 333 0
DWIDTH 8 0
BBX 7 18 1 0
BITMAP
06
E6
22
22
24
20
20
20
20
20
20
20
20
20
20
20
20
F8
ENDCHAR
STARTCHAR 0141
ENCODING 321
SWIDTH 625 0
DWIDTH 15 0
BBX 14 17 1 0
BITMAP
FE00
1800
1000
1000
1100
1200
1400
1800
3000
5000
1000
1000
1004
1008
1008
3818
FFF8
ENDCHAR
STARTCHAR 0142
ENCODING 322
SWIDTH 291 0
DWIDTH 7 0
BBX 6 18 1 0
BITMAP
60
E0
20
20
20
20
24
28
30
60
A0
20
20
20
20
20
20
F8
ENDCHAR
STARTCHAR 0143
ENCODING 323
SWIDTH 833 0
DWIDTH 20 0
BBX 18 22 1 0
BITMAP
002000
007000
00C000
008000
000000
F80FC0
380300
3C0300
360300
320300
330300
318300
30C300
30C300
306300
303300
301300
301B00
300F00
300700
300700
FC0300
ENDCHAR
STARTCHAR 0144
ENCODING 324
SWIDTH 625 0
DWIDTH 15 0
BBX 14 17 1 1
BITMAP
00C0
0100
0200
0000
0000
F7C0
3860
3020
3030
3030
3030
3030
3030
3030
3030
3030
FCFC
ENDCHAR
STARTCHAR 0147
ENCODING 327
SWIDTH 833 0
DWIDTH 20 0
BBX 18 21 1 0
BITMAP
033000
01E000
008000
000000
F80FC0
380300
3C0300
360300
320300
330300
318300
30C300
30C300
306300
303300
301300
301B00
300F00
300700
300700
FC0300
ENDCHAR
STARTCHAR 0148
ENCODING 328
SWIDTH 625 0
DWIDTH 15 0
BBX 14 17 1 0
BITMAP
08C0
0780
0200
0000
0000
F7C0
3860
3020
3030
3030
3030
3030
3030
3030
3030
3030
FCFC
ENDCHAR
STARTCHAR 014B
ENCODING 331
SWIDTH 625 0
DWIDTH 15 0
BBX 12 17 1 -5
BITMAP
F7C0
3860
3020
3030
3030
3030
3030
3030
3030
3030
3030
FC30
0030
0030
0320
0360
01C0
ENDCHAR
STARTCHAR 014C
ENCODING 332
SWIDTH 791 0
DWIDTH 19 0
BBX 17 21 1 0
BITMAP
03F000
000000
000000
000000
03F000
0C1800
100600
200600
600300
600300
600180
C00180
C00180
C00180
600180
600300
600300
300600
180600
0C1C00
03F000
ENDCHAR
STARTCHAR 014D
ENCODING 333
SWIDTH 583 0
DWIDTH 14 0
BBX 12 16 1 0
BITMAP
1F80
0000
0000
0000
0F00
30C0
6060
4020
C030
C030
C030
4030
6020
6060
30C0
0F80
ENDCHAR
STARTCHAR 0150
ENCODING 336
SWIDTH 791 0
DWIDTH 19 0
BBX 17 22 1 0
BITMAP
009000
01B000
012000
024000
000000
03F000
0C1800
100600
200600
600300
600300
600180
C00180
C00180
C00180
600180
600300
600300
300600
180600
0C1C00
03F000
ENDCHAR
STARTCHAR 0151
ENCODING 337
SWIDTH 583 0
DWIDTH 14 0
BBX 12 18 1 0
BITMAP
0400
04C0
0D80
0900
0000
0000
0F00
30C0
6060
4020
C030
C030
C030
4030
6020
6060
30C0
0F80
ENDCHAR
STARTCHAR 0152
ENCODING 338
SWIDTH 1041 0
DWIDTH 25 0
BBX 23 17 1 0
BITMAP
03FFFC
0C180C
100804
300804
600800
600820
600820
C00860
C00FE0
C00860
600820
600800
600802
300802
100806
0C1804
03FFFC
ENDCHAR
STARTCHAR 0153
ENCODING 339
SWIDTH 916 0
DWIDTH 22 0
BBX 20 12 1 0
BITMAP
1F0F80
3098C0
607060
606020
C06030
C07FF0
C06000
C06000
406000
607030
30D860
1F0F80
ENDCHAR
STARTCHAR 0154
ENCODING 340
SWIDTH 708 0
DWIDTH 17 0
BBX 16 22 1 0
BITMAP
0040
00C0
0180
0000
0000
FFE0
3818
1008
100C
100C
100C
1018
1030
1FC0
10C0
1060
1030
1030
1018
1018
380C
FE0F
ENDCHAR
STARTCHAR 0155
ENCODING 341
SWIDTH 416 0
DWIDTH 10 0
BBX 9 17 1 1
BITMAP
0600
0800
1000
0000
0000
F780
3980
3000
3000
3000
3000
3000
3000
3000
3000
3000
FC00
ENDCHAR
STARTCHAR 0158
ENCODING 344
SWIDTH 708 0
DWIDTH 17 0
BBX 16 21 1 0
BITMAP
0440
0380
0100
0000
FFE0
3818
1008
100C
100C
100C
1018
1030
1FC0
10C0
1060
1030
1030
1018
1018
380C
FE0F
ENDCHAR
STARTCHAR 0159
ENCODING 345
SWIDTH 416 0
DWIDTH 10 0
BBX 9 17 1 0
BITMAP
4600
3C00
1800
0000
0000
F780
3980
3000
3000
3000
3000
3000
3000
3000
3000
3000
FC00
ENDCHAR
STARTCHAR 015A
ENCODING 346
SWIDTH 625 0
DWIDTH 15 0
BBX 11 22 2 0
BITMAP
0100
0300
0600
0800
0000
1F20
60E0
C060
C020
C020
C000
6000
3C00
0F00
01C0
00E0
0060
8060
8060
C060
E0C0
3F00
ENDCHAR
STARTCHAR 015B
ENCODING 347
SWIDTH 458 0
DWIDTH 11 0
BBX 9 17 1 1
BITMAP
0600
0C00
0000
0000
0000
3F80
6380
4080
4080
6000
3C00
0700
8180
8080
C080
E180
9E00
ENDCHAR
STARTCHAR 015C
ENCODING 348
SWIDTH 625 0
DWIDTH 15 0
BBX 11 22 2 0
BITMAP
0400
0E00
1100
0000
0000
1F20
60E0
C060
C020
C020
C000
6000
3C00
0F00
01C0
00E0
0060
8060
8060
C060
E0C0
3F00
ENDCHAR
STARTCHAR 015D
ENCODING 349
SWIDTH 458 0
DWIDTH 11 0
BBX 9 17 1 0
BITMAP
0C00
1600
2100
0000
0000
3F80
6380
4080
4080
6000
3C00
0700
8180
8080
C080
E180
9E00
ENDCHAR
STARTCHAR 015E
ENCODING 350
SWIDTH 625 0
DWIDTH 15 0
BBX 11 23 2 -6
BITMAP
1F20
60E0
C060
C020
C020
C000
6000
3C00
0F00
01C0
00E0
0060
8060
8060
C060
E0C0
3F00
0000
0C00
0E00
0400
0400
0800
ENDCHAR
STARTCHAR 015F
ENCODING 351
SWIDTH 458 0
DWIDTH 11 0
BBX 9 17 1 -6
BITMAP
3F80
6380
4080
4080
6000
3C00
0700
8180
8080
C080
E180
9F00
0000
0C00
0C00
0400
0C00
ENDCHAR
STARTCHAR 0160
ENCODING 352
SWIDTH 625 0
DWIDTH 15 0
BBX 11 21 2 0
BITMAP
3300
1E00
0C00
0000
1F20
60E0
C060
C020
C020
C000
6000
3C00
0F00
01C0
00E0
0060
8060
8060
C060
E0C0
BF00
ENDCHAR
STARTCHAR 0161
ENCODING 353
SWIDTH 458 0
DWIDTH 11 0
BBX 9 17 1 0
BITMAP
2200
1C00
0800
0000
0000
3F80
6380
4080
4080
6000
3C00
0700
0180
8080
C080
E180
9E00
ENDCHAR
STARTCHAR 0162
ENCODING 354
SWIDTH 625 0
DWIDTH 15 0
BBX 15 23 0 -6
BITMAP
FFFE
C106
8102
8102
0100
0100
0100
0100
0100
0100
0100
0100
0100
0100
0100
0300
0FE0
0000
0300
0380
0100
0100
0200
ENDCHAR
STARTCHAR 0163
ENCODING 355
SWIDTH 333 0
DWIDTH 8 0
BBX 8 21 0 -6
BITMAP
10
10
30
FF
30
30
30
30
30
30
30
30
30
11
1E
00
0C
0C
04
08
10
ENDCHAR
STARTCHAR 0164
ENCODING 356
SWIDTH 625 0
DWIDTH 15 0
BBX 15 21 0 0
BITMAP
0440
0380
0100
0000
FFFE
C106
8102
8102
0100
0100
0100
0100
0100
0100
0100
0100
0100
0100
0100
0300
0FE0
ENDCHAR
STARTCHAR 0165
ENCODING 357
SWIDTH 333 0
DWIDTH 8 0
BBX 9 18 0 0
BITMAP
0300
0380
0100
1100
1200
3000
FF00
3000
3000
3000
3000
3000
3000
3000
3000
3000
1100
1E00
ENDCHAR
STARTCHAR 016A
ENCODING 362
SWIDTH 791 0
DWIDTH 19 0
BBX 19 21 0 0
BITMAP
01F800
000000
000000
000000
FE07E0
180100
180100
180100
180100
180100
180100
180100
180100
180100
180100
180100
180100
080300
0C0200
060C00
01F800
ENDCHAR
STARTCHAR 016B
ENCODING 363
SWIDTH 625 0
DWIDTH 15 0
BBX 13 16 1 0
BITMAP
1F80
0000
0000
0000
E1E0
6060
2020
2020
2020
2020
2020
2020
2060
2060
30A0
1F38
ENDCHAR
STARTCHAR 016C
ENCODING 364
SWIDTH 791 0
DWIDTH 19 0
BBX 19 21 0 0
BITMAP
010800
00F000
000000
000000
FE07E0
180100
180100
180100
180100
180100
180100
180100
180100
180100
180100
180100
180100
080300
0C0200
060C00
01F800
ENDCHAR
STARTCHAR 016D
ENCODING 365
SWIDTH 625 0
DWIDTH 15 0
BBX 13 17 1 0
BITMAP
1000
1880
0F00
0000
0000
E1E0
6060
2020
2020
2020
2020
2020
2020
2060
2060
30A0
1F38
ENDCHAR
STARTCHAR 016E
ENCODING 366
SWIDTH 791 0
DWIDTH 19 0
BBX 19 22 0 0
BITMAP
006000
009000
009000
006000
000000
FE07E0
180100
180100
180100
180100
180100
180100
180100
180100
180100
180100
180100
180100
080300
0C0200
060C00
01F800
ENDCHAR
STARTCHAR 016F
ENCODING 367
SWIDTH 625 0
DWIDTH 15 0
BBX 13 17 1 0
BITMAP
0700
0900
0700
0000
0000
E1E0
6060
2020
2020
2020
2020
2020
2020
2060
2060
30A0
1F38
ENDCHAR
STARTCHAR 0170
ENCODING 368
SWIDTH 791 0
DWIDTH 19 0
BBX 19 22 0 0
BITMAP
004800
00C800
009000
000000
000000
FE07E0
180100
180100
180100
180100
180100
180100
180100
180100
180100
180100
180100
180100
080300
0C0200
060C00
01F800
ENDCHAR
STARTCHAR 0171
ENCODING 369
SWIDTH 625 0
DWIDTH 15 0
BBX 13 17 1 1
BITMAP
06C0
0480
0900
0000
0000
E1E0
6060
2020
2020
2020
2020
2020
2020
2060
2060
30A0
1F38
ENDCHAR
STARTCHAR 0179
ENCODING 377
SWIDTH 625 0
DWIDTH 15 0
BBX 13 22 1 0
BITMAP
0080
01C0
0300
0000
0000
7FF8
E030
C030
8060
80C0
0180
0180
0300
0600
0C00
0C00
1800
3008
7008
6008
C018
FFF8
ENDCHAR
STARTCHAR 017A
ENCODING 378
SWIDTH 458 0
DWIDTH 11 0
BBX 9 17 1 1
BITMAP
0300
0400
0800
0000
0000
FF80
C180
8300
8600
0400
0C00
1800
3000
3000
6080
C080
FF80
ENDCHAR
STARTCHAR 017B
ENCODING 379
SWIDTH 625 0
DWIDTH 15 0
BBX 13 21 1 0
BITMAP
0300
0300
0000
0000
7FF8
E030
C030
8060
80C0
0180
0180
0300
0600
0C00
0C00
1800
3008
7008
6008
C018
FFF8
ENDCHAR
STARTCHAR 017C
ENCODING 380
SWIDTH 458 0
DWIDTH 11 0
BBX 9 17 1 0
BITMAP
0C00
0C00
0000
0000
0000
FF80
C180
8300
8600
0400
0C00
1800
3000
3000
6080
C080
FF80
ENDCHAR
STARTCHAR 017D
ENCODING 381
SWIDTH 625 0
DWIDTH 15 0
BBX 13 21 1 0
BITMAP
0880
0700
0200
0000
7FF8
E030
C030
8060
80C0
0180
0180
0300
0600
0C00
0C00
1800
3008
7008
6008
C018
FFF8
ENDCHAR
STARTCHAR 017E
ENCODING 382
SWIDTH 458 0
DWIDTH 11 0
BBX 9 17 1 0
BITMAP
2300
1E00
0800
0000
0000
FF80
C180
8300
8600
0400
0C00
1800
3000
3000
6080
C080
FF80
ENDCHAR
STARTCHAR 0193
ENCODING 403
SWIDTH 791 0
DWIDTH 19 0
BBX 19 21 1 0
BITMAP
0001E0
000120
000260
000200
03F200
0C1E00
180600
300200
600200
600000
600000
C00000
C00000
C01F80
600600
600200
600200
300600
180600
0C1E00
03F200
ENDCHAR
STARTCHAR 01C2
ENCODING 450
SWIDTH 500 0
DWIDTH 12 0
BBX 10 16 1 1
BITMAP
0C00
0C00
0C00
0C00
0C00
FFC0
0C00
0C00
0C00
FFC0
0C00
0C00
0C00
0C00
0C00
0C00
ENDCHAR
STARTCHAR 01CD
ENCODING 461
SWIDTH 708 0
DWIDTH 17 0
BBX 18 21 0 1
BITMAP
033000
01C000
008000
000000
008000
00C000
01C000
016000
036000
022000
023000
043000
041800
041800
0FF800
080C00
100C00
100600
100600
200700
FC1FC0
ENDCHAR
STARTCHAR 01CE
ENCODING 462
SWIDTH 541 0
DWIDTH 13 0
BBX 11 17 1 0
BITMAP
1100
0E00
0400
0000
0000
1F00
2180
6080
6080
00C0
1FC0
60C0
40C0
C0C0
C0C0
63C0
3C60
ENDCHAR
STARTCHAR 01D0
ENCODING 464
SWIDTH 291 0
DWIDTH 7 0
BBX 6 17 1 0
BITMAP
88
70
20
00
00
F0
30
30
30
30
30
30
30
30
30
30
FC
ENDCHAR
STARTCHAR 01D1
ENCODING 465
SWIDTH 791 0
DWIDTH 19 0
BBX 17 21 1 0
BITMAP
023000
01C000
008000
000000
03F000
0C1800
180600
300600
600300
600300
600180
C00180
C00180
C00180
600180
600300
600300
300600
180600
0C1C00
03F000
ENDCHAR
STARTCHAR 01D2
ENCODING 466
SWIDTH 583 0
DWIDTH 14 0
BBX 12 17 1 0
BITMAP
1880
0700
0200
0000
0000
0F00
30C0
6060
6020
4030
C030
C030
4030
6020
6060
30C0
0F00
ENDCHAR
STARTCHAR 01D4
ENCODING 468
SWIDTH 625 0
DWIDTH 15 0
BBX 13 17 1 0
BITMAP
0880
0700
0200
0000
0000
E1E0
6060
2020
2020
2020
2020
2020
2020
2060
2060
30A0
1F38
ENDCHAR
STARTCHAR 01D6
ENCODING 470
SWIDTH 625 0
DWIDTH 15 0
BBX 13 19 1 0
BITMAP
1F80
0000
1980
1980
0000
0000
0000
E1E0
6060
2020
2020
2020
2020
2020
2020
2060
2060
30A0
1F38
ENDCHAR
STARTCHAR 01D8
ENCODING 472
SWIDTH 625 0
DWIDTH 15 0
BBX 13 20 1 1
BITMAP
0180
0300
0400
1980
1980
0000
0000
0000
E1E0
6060
2020
2020
2020
2020
2020
2020
2060
2060
30A0
1F38
ENDCHAR
STARTCHAR 01DA
ENCODING 474
SWIDTH 625 0
DWIDTH 15 0
BBX 13 20 1 0
BITMAP
1980
0F00
0600
1980
1980
0000
0000
0000
E1E0
6060
2020
2020
2020
2020
2020
2020
2060
2060
30A0
1F38
ENDCHAR
STARTCHAR 01DC
ENCODING 476
SWIDTH 625 0
DWIDTH 15 0
BBX 13 20 1 1
BITMAP
1800
0400
0200
1980
1980
0000
0000
0000
E1E0
6060
2020
2020
2020
2020
2020
2020
2060
2060
30A0
1F38
ENDCHAR
STARTCHAR 01F8
ENCODING 504
SWIDTH 833 0
DWIDTH 20 0
BBX 18 22 1 0
BITMAP
020000
070000
018000
000000
000000
F80FC0
380300
3C0300
360300
320300
330300
318300
30C300
30C300
306300
303300
301300
301B00
300F00
300700
300700
FC0300
ENDCHAR
STARTCHAR 01F9
ENCODING 505
SWIDTH 625 0
DWIDTH 15 0
BBX 14 17 1 1
BITMAP
1800
0C00
0200
0000
0000
F7C0
3860
3020
3030
3030
3030
3030
3030
3030
3030
3030
FCFC
ENDCHAR
STARTCHAR 01FD
ENCODING 509
SWIDTH 833 0
DWIDTH 20 0
BBX 18 18 1 0
BITMAP
001000
003000
006000
000000
000000
000000
1F1E00
21E180
60C080
60C0C0
00C040
1FFFC0
70C000
40C000
C0C000
C0C040
617080
3E1F00
ENDCHAR
STARTCHAR 0250
ENCODING 592
SWIDTH 541 0
DWIDTH 13 0
BBX 11 12 1 0
BITMAP
E780
38C0
3060
2060
2060
20C0
3F00
2000
20C0
30C0
30C0
0F00
ENDCHAR
STARTCHAR 0251
ENCODING 593
SWIDTH 583 0
DWIDTH 14 0
BBX 12 12 1 0
BITMAP
1F60
30E0
6060
6060
4060
C060
C060
C060
4060
60E0
31E0
1E30
ENDCHAR
STARTCHAR 0252
ENCODING 594
SWIDTH 583 0
DWIDTH 14 0
BBX 12 12 1 0
BITMAP
C780
78C0
3060
2020
2030
2030
2030
2030
2020
3060
38C0
2780
ENDCHAR
STARTCHAR 0253
ENCODING 595
SWIDTH 583 0
DWIDTH 14 0
BBX 11 17 2 0
BITMAP
1F00
60C0
40C0
C0C0
C000
CF00
F1C0
E0C0
C060
C060
C060
C060
C060
C060
E0C0
F080
8F00
ENDCHAR
STARTCHAR 0254
ENCODING 596
SWIDTH 541 0
DWIDTH 13 0
BBX 10 12 1 0
BITMAP
1E00
6180
80C0
00C0
0040
0040
0040
0040
C0C0
C0C0
6180
3E00
ENDCHAR
STARTCHAR 0255
ENCODING 597
SWIDTH 541 0
DWIDTH 13 0
BBX 11 14 1 -2
BITMAP
0F80
3040
60C0
60C0
4000
C000
C000
C1C0
6220
6420
3460
1F80
0800
1000
ENDCHAR
STARTCHAR 0256
ENCODING 598
SWIDTH 625 0
DWIDTH 15 0
BBX 15 23 1 -5
BITMAP
0060
00E0
0060
0060
0060
0060
1F60
30E0
6060
4060
4060
C060
C060
C060
6060
6060
31E0
1F60
0060
0060
0026
0036
001C
ENDCHAR
STARTCHAR 0257
ENCODING 599
SWIDTH 625 0
DWIDTH 15 0
BBX 15 17 1 0
BITMAP
001E
0036
0020
0060
0060
1F60
30E0
6060
4060
4060
C060
C060
C060
6060
6060
30E0
1F38
ENDCHAR
STARTCHAR 0258
ENCODING 600
SWIDTH 541 0
DWIDTH 13 0
BBX 11 12 1 0
BITMAP
1F00
3180
60C0
4060
C060
FFE0
0060
0060
0060
40C0
6180
1F00
ENDCHAR
STARTCHAR 0259
ENCODING 601
SWIDTH 541 0
DWIDTH 13 0
BBX 11 12 1 0
BITMAP
1F00
2180
40C0
0060
0060
0060
FFE0
C060
4060
60C0
3180
1F00
ENDCHAR
STARTCHAR 025A
ENCODING 602
SWIDTH 791 0
DWIDTH 19 0
BBX 18 12 1 0
BITMAP
1F0000
20C000
406C00
407600
807600
81B240
063180
0C1000
303000
302000
184000
0F8000
ENDCHAR
STARTCHAR 025C
ENCODING 604
SWIDTH 500 0
DWIDTH 12 0
BBX 10 12 1 0
BITMAP
7F00
0180
0080
0080
0180
1E00
0180
00C0
00C0
00C0
C180
3F00
ENDCHAR
STARTCHAR 025E
ENCODING 606
SWIDTH 583 0
DWIDTH 14 0
BBX 11 12 1 0
BITMAP
0F80
30C0
6060
4060
C0C0
8F80
8040
C060
4020
4060
30C0
1F80
ENDCHAR
STARTCHAR 025F
ENCODING 607
SWIDTH 333 0
DWIDTH 8 0
BBX 9 17 -2 -5
BITMAP
1F80
0600
0600
0600
0600
0600
0600
0600
0600
0600
0600
3F80
0600
0600
4600
C400
7800
ENDCHAR
STARTCHAR 0260
ENCODING 608
SWIDTH 583 0
DWIDTH 14 0
BBX 15 22 1 -5
BITMAP
001E
0036
0020
0020
0020
1F20
30A0
6060
6060
4060
C060
C060
C060
4060
6060
30E0
1F60
6060
6060
6060
20C0
1F00
ENDCHAR
STARTCHAR 0261
ENCODING 609
SWIDTH 583 0
DWIDTH 14 0
BBX 11 17 1 -5
BITMAP
1F20
30A0
6060
6060
4060
C060
C060
C060
4060
6060
30E0
1F60
6060
6060
6060
20C0
1F00
ENDCHAR
STARTCHAR 0264
ENCODING 612
SWIDTH 583 0
DWIDTH 14 0
BBX 12 12 1 0
BITMAP
E070
38C0
0D00
0600
0700
0900
1980
1080
1080
1080
1980
0F00
ENDCHAR
STARTCHAR 0265
ENCODING 613
SWIDTH 625 0
DWIDTH 15 0
BBX 14 17 0 -5
BITMAP
FCFC
3030
1030
1030
1030
1030
1030
1030
1030
1030
1870
0FB0
0030
0030
0030
0038
003C
ENDCHAR
STARTCHAR 0266
ENCODING 614
SWIDTH 625 0
DWIDTH 15 0
BBX 13 17 1 0
BITMAP
0FC0
1820
3060
2060
2000
2780
2860
3060
2020
2020
2020
2020
2020
2020
2020
2020
F8F8
ENDCHAR
STARTCHAR 0267
ENCODING 615
SWIDTH 625 0
DWIDTH 15 0
BBX 11 22 1 -5
BITMAP
0FC0
1820
3060
2060
2000
2780
2860
3060
2020
2020
2020
2020
2020
2020
2020
2020
F820
0020
0020
0220
0660
03C0
ENDCHAR
STARTCHAR 0268
ENCODING 616
SWIDTH 333 0
DWIDTH 8 0
BBX 6 17 1 0
BITMAP
30
30
00
00
00
F0
30
30
30
30
FC
30
30
30
30
30
FC
ENDCHAR
STARTCHAR 026C
ENCODING 620
SWIDTH 416 0
DWIDTH 10 0
BBX 8 17 1 0
BITMAP
3C
0C
0C
0C
EC
9C
8C
CC
3F
0C
0C
0C
0C
0C
0C
0C
3F
ENDCHAR
STARTCHAR 026D
ENCODING 621
SWIDTH 333 0
DWIDTH 8 0
BBX 8 22 1 -4
BITMAP
E0
20
20
20
20
20
20
20
20
20
20
20
20
20
20
20
20
20
20
32
33
1E
ENDCHAR
STARTCHAR 026E
ENCODING 622
SWIDTH 625 0
DWIDTH 15 0
BBX 13 23 1 -5
BITMAP
6000
E000
2000
2000
2000
2000
3FF8
2030
2060
20C0
2180
2100
2200
27C0
2070
2030
2018
F818
0018
1818
1830
1870
07C0
ENDCHAR
STARTCHAR 026F
ENCODING 623
SWIDTH 916 0
DWIDTH 22 0
BBX 20 12 1 0
BITMAP
F9FBF0
2060C0
2060C0
2060C0
2060C0
2060C0
2060C0
2060C0
2060C0
30E0C0
31A1C0
1E1EF0
ENDCHAR
STARTCHAR 0270
ENCODING 624
SWIDTH 916 0
DWIDTH 22 0
BBX 20 17 1 -5
BITMAP
F9FBF0
2060C0
2060C0
2060C0
2060C0
2060C0
2060C0
2060C0
2060C0
30E0C0
31A1C0
1E1EC0
0000C0
0000C0
0000C0
0000C0
0000F0
ENDCHAR
STARTCHAR 0271
ENCODING 625
SWIDTH 916 0
DWIDTH 22 0
BBX 18 17 1 -5
BITMAP
F78F00
38D080
3060C0
3060C0
3060C0
3060C0
3060C0
3060C0
3060C0
3060C0
3060C0
FDF8C0
0000C0
0000C0
000CC0
000CC0
000780
ENDCHAR
STARTCHAR 0272
ENCODING 626
SWIDTH 625 0
DWIDTH 15 0
BBX 16 17 -1 -5
BITMAP
3DF0
0E18
0C08
0C0C
0C0C
0C0C
0C0C
0C0C
0C0C
0C0C
0C0C
0C3F
0C00
0C00
C800
D800
7000
ENDCHAR
STARTCHAR 0273
ENCODING 627
SWIDTH 625 0
DWIDTH 15 0
BBX 16 17 1 -5
BITMAP
F7C0
3860
3020
3020
3030
3030
3030
3030
3030
3030
3030
FC30
0030
0030
0033
0033
001E
ENDCHAR
STARTCHAR 0275
ENCODING 629
SWIDTH 583 0
DWIDTH 14 0
BBX 12 12 1 0
BITMAP
0F00
30C0
6060
6020
4030
FFF0
C030
4030
6060
6060
30C0
0F80
ENDCHAR
STARTCHAR 0279
ENCODING 633
SWIDTH 416 0
DWIDTH 10 0
BBX 9 12 0 0
BITMAP
1F80
0600
0600
0600
0600
0600
0600
0600
0600
0E00
CE00
F780
ENDCHAR
STARTCHAR 027A
ENCODING 634
SWIDTH 416 0
DWIDTH 10 0
BBX 9 17 0 0
BITMAP
1F80
0600
0600
0600
0600
0600
0600
0600
0600
0600
0600
0600
0600
0600
0E00
CE00
F780
ENDCHAR
STARTCHAR 027B
ENCODING 635
SWIDTH 416 0
DWIDTH 10 0
BBX 11 17 0 -5
BITMAP
1F80
0600
0600
0600
0600
0600
0600
0600
0600
0E00
D600
E600
0600
0600
0660
0260
01C0
ENDCHAR
STARTCHAR 027D
ENCODING 637
SWIDTH 416 0
DWIDTH 10 0
BBX 9 17 1 -5
BITMAP
F780
3980
3000
3000
3000
3000
3000
3000
3000
3000
3000
3000
3000
3000
3300
1300
1E00
ENDCHAR
STARTCHAR 027E
ENCODING 638
SWIDTH 375 0
DWIDTH 9 0
BBX 8 12 1 0
BITMAP
1E
33
30
30
30
30
30
30
30
30
30
FC
ENDCHAR
STARTCHAR 0281
ENCODING 641
SWIDTH 541 0
DWIDTH 13 0
BBX 12 12 1 0
BITMAP
F870
20C0
20C0
2180
2300
2600
3B80
20C0
2040
20C0
20C0
FF00
ENDCHAR
STARTCHAR 0282
ENCODING 642
SWIDTH 458 0
DWIDTH 11 0
BBX 9 17 1 -5
BITMAP
3F80
6380
4080
4080
6000
3C00
0700
8180
8080
C080
E180
9F00
8000
8000
4C00
4C00
3800
ENDCHAR
STARTCHAR 0283
ENCODING 643
SWIDTH 416 0
DWIDTH 10 0
BBX 10 22 0 -5
BITMAP
0380
04C0
0C00
0C00
0C00
0C00
0C00
0C00
0C00
0C00
0C00
0C00
0C00
0C00
0C00
0C00
0C00
0C00
0C00
0C00
C800
7000
ENDCHAR
STARTCHAR 0284
ENCODING 644
SWIDTH 333 0
DWIDTH 8 0
BBX 10 22 -1 -5
BITMAP
07C0
0CC0
0C00
0800
0800
0800
0800
0800
0800
0800
0800
0800
0800
0800
0800
0800
7F00
0800
0800
C800
9800
F000
ENDCHAR
STARTCHAR 0288
ENCODING 648
SWIDTH 333 0
DWIDTH 8 0
BBX 8 20 0 -5
BITMAP
10
10
30
FF
30
30
30
30
30
30
30
30
30
30
30
30
30
13
1B
0E
ENDCHAR
STARTCHAR 0289
ENCODING 649
SWIDTH 625 0
DWIDTH 15 0
BBX 13 12 1 0
BITMAP
6060
E0E0
2020
2020
2020
FFF8
2020
2020
2020
3060
30A0
1F38
ENDCHAR
STARTCHAR 028A
ENCODING 650
SWIDTH 625 0
DWIDTH 15 0
BBX 13 12 1 0
BITMAP
F8F8
1040
3040
2020
6020
6030
6030
6030
6020
3060
18C0
0F80
ENDCHAR
STARTCHAR 028B
ENCODING 651
SWIDTH 541 0
DWIDTH 13 0
BBX 11 13 1 0
BITMAP
2060
E060
2060
2020
2020
2020
2020
2020
2060
2040
2040
3080
1F00
ENDCHAR
STARTCHAR 028C
ENCODING 652
SWIDTH 541 0
DWIDTH 13 0
BBX 13 12 0 0
BITMAP
0200
0700
0500
0500
0980
0880
10C0
10C0
1040
2060
2060
F8F8
ENDCHAR
STARTCHAR 028D
ENCODING 653
SWIDTH 791 0
DWIDTH 19 0
BBX 19 12 0 0
BITMAP
060C00
060C00
061400
0B1600
091600
092200
11A300
10A100
30C100
20C180
20C180
F9F3E0
ENDCHAR
STARTCHAR 028E
ENCODING 654
SWIDTH 541 0
DWIDTH 13 0
BBX 13 17 0 0
BITMAP
00E0
01E0
0160
0300
0200
0200
0600
0700
0D00
0980
0980
1080
10C0
1040
2060
2060
F8F8
ENDCHAR
STARTCHAR 0290
ENCODING 656
SWIDTH 541 0
DWIDTH 13 0
BBX 13 17 1 -5
BITMAP
FF80
C180
8300
8600
0400
0C00
1800
3000
3000
6080
C080
FF80
0080
0080
0098
0058
0070
ENDCHAR
STARTCHAR 0291
ENCODING 657
SWIDTH 500 0
DWIDTH 12 0
BBX 11 14 1 -2
BITMAP
FF80
C180
8300
8600
0400
0C00
1800
31C0
3220
6420
C420
FFC0
0800
1000
ENDCHAR
STARTCHAR 0292
ENCODING 658
SWIDTH 500 0
DWIDTH 12 0
BBX 10 17 1 -5
BITMAP
7FC0
4180
8300
8600
0400
0800
1E00
2180
0080
00C0
00C0
00C0
00C0
C0C0
C080
C380
3E00
ENDCHAR
STARTCHAR 0294
ENCODING 660
SWIDTH 500 0
DWIDTH 12 0
BBX 10 17 1 0
BITMAP
3F00
4180
C0C0
C0C0
00C0
00C0
0180
0F00
0C00
0C00
0C00
0C00
0C00
0C00
0C00
0C00
3F00
ENDCHAR
STARTCHAR 0295
ENCODING 661
SWIDTH 500 0
DWIDTH 12 0
BBX 10 17 1 0
BITMAP
3F00
60C0
C0C0
C0C0
C000
C000
6000
1C00
0400
0400
0400
0400
0400
0400
0400
0C00
3F00
ENDCHAR
STARTCHAR 0298
ENCODING 664
SWIDTH 625 0
DWIDTH 15 0
BBX 13 12 1 0
BITMAP
0F80
1060
2030
4010
4708
8708
8708
4018
4010
2030
3060
0F80
ENDCHAR
STARTCHAR 029D
ENCODING 669
SWIDTH 291 0
DWIDTH 7 0
BBX 9 22 -2 -5
BITMAP
0600
0600
0000
0000
0000
1E00
0600
0600
0600
0600
0600
0600
0600
0600
0600
0600
0600
7E00
8600
8780
CC00
7800
ENDCHAR
STARTCHAR 02A1
ENCODING 673
SWIDTH 500 0
DWIDTH 12 0
BBX 10 17 1 0
BITMAP
3F00
4180
C0C0
C0C0
00C0
00C0
0080
0F00
0C00
0C00
7F00
0C00
0C00
0C00
0C00
0C00
3F00
ENDCHAR
STARTCHAR 02A2
ENCODING 674
SWIDTH 500 0
DWIDTH 12 0
BBX 10 17 1 0
BITMAP
1F00
60C0
C0C0
C0C0
C000
C000
6000
3C00
0400
0400
3F80
0400
0400
0400
0400
0C00
3F00
ENDCHAR
STARTCHAR 02BB
ENCODING 699
SWIDTH 1000 0
DWIDTH 24 0
BBX 3 6 19 14
BITMAP
20
40
C0
C0
E0
C0
ENDCHAR
STARTCHAR 02BC
ENCODING 700
SWIDTH 1000 0
DWIDTH 24 0
BBX 3 7 2 13
BITMAP
60
E0
E0
20
40
40
80
ENDCHAR
STARTCHAR 02C6
ENCODING 710
SWIDTH 500 0
DWIDTH 12 0
BBX 6 3 3 14
BITMAP
30
78
84
ENDCHAR
STARTCHAR 02C7
ENCODING 711
SWIDTH 500 0
DWIDTH 12 0
BBX 6 3 3 14
BITMAP
84
78
30
ENDCHAR
STARTCHAR 02C8
ENCODING 712
SWIDTH 208 0
DWIDTH 5 0
BBX 1 9 2 9
BITMAP
80
80
80
80
80
80
80
80
80
ENDCHAR
STARTCHAR 02CC
ENCODING 716
SWIDTH 208 0
DWIDTH 5 0
BBX 1 9 2 -4
BITMAP
80
80
80
80
80
80
80
80
80
ENDCHAR
STARTCHAR 02D0
ENCODING 720
SWIDTH 291 0
DWIDTH 7 0
BBX 3 12 2 0
BITMAP
E0
40
40
00
00
00
00
00
00
40
40
E0
ENDCHAR
STARTCHAR 02D1
ENCODING 721
SWIDTH 291 0
DWIDTH 7 0
BBX 3 3 2 9
BITMAP
E0
40
40
ENDCHAR
STARTCHAR 02D8
ENCODING 728
SWIDTH 500 0
DWIDTH 12 0
BBX 6 2 3 15
BITMAP
84
78
ENDCHAR
STARTCHAR 02D9
ENCODING 729
SWIDTH 500 0
DWIDTH 12 0
BBX 2 2 5 15
BITMAP
C0
C0
ENDCHAR
STARTCHAR 02DB
ENCODING 731
SWIDTH 500 0
DWIDTH 12 0
BBX 5 6 4 -6
BITMAP
30
60
C0
80
C8
F0
ENDCHAR
STARTCHAR 02DC
ENCODING 732
SWIDTH 500 0
DWIDTH 12 0
BBX 6 3 3 14
BITMAP
60
B4
0C
ENDCHAR
STARTCHAR 02DD
ENCODING 733
SWIDTH 500 0
DWIDTH 12 0
BBX 6 4 3 14
BITMAP
04
64
48
90
ENDCHAR
STARTCHAR 02DE
ENCODING 734
SWIDTH 500 0
DWIDTH 12 0
BBX 5 6 4 0
BITMAP
60
A0
20
20
68
30
ENDCHAR
STARTCHAR 02E5
ENCODING 741
SWIDTH 500 0
DWIDTH 12 0
BBX 6 17 1 0
BITMAP
FC
0C
0C
0C
0C
0C
0C
0C
0C
0C
0C
0C
0C
0C
0C
0C
0C
ENDCHAR
STARTCHAR 02E6
ENCODING 742
SWIDTH 500 0
DWIDTH 12 0
BBX 6 17 1 0
BITMAP
0C
0C
0C
0C
FC
0C
0C
0C
0C
0C
0C
0C
0C
0C
0C
0C
0C
ENDCHAR
STARTCHAR 02E7
ENCODING 743
SWIDTH 500 0
DWIDTH 12 0
BBX 6 17 1 0
BITMAP
0C
0C
0C
0C
0C
0C
0C
0C
FC
0C
0C
0C
0C
0C
0C
0C
0C
ENDCHAR
STARTCHAR 02E8
ENCODING 744
SWIDTH 500 0
DWIDTH 12 0
BBX 6 17 1 0
BITMAP
0C
0C
0C
0C
0C
0C
0C
0C
0C
0C
0C
0C
FC
0C
0C
0C
0C
ENDCHAR
STARTCHAR 02E9
ENCODING 745
SWIDTH 500 0
DWIDTH 12 0
BBX 6 17 1 0
BITMAP
0C
0C
0C
0C
0C
0C
0C
0C
0C
0C
0C
0C
0C
0C
0C
0C
FC
ENDCHAR
STARTCHAR 0300
ENCODING 768
SWIDTH 500 0
DWIDTH 12 0
BBX 4 4 3 14
BITMAP
40
E0
20
10
ENDCHAR
STARTCHAR 0301
ENCODING 769
SWIDTH 500 0
DWIDTH 12 0
BBX 4 3 5 15
BITMAP
30
60
80
ENDCHAR
STARTCHAR 0302
ENCODING 770
SWIDTH 500 0
DWIDTH 12 0
BBX 6 3 3 14
BITMAP
30
78
84
ENDCHAR
STARTCHAR 0303
ENCODING 771
SWIDTH 500 0
DWIDTH 12 0
BBX 6 3 3 14
BITMAP
60
B4
0C
ENDCHAR
STARTCHAR 0304
ENCODING 772
SWIDTH 500 0
DWIDTH 12 0
BBX 6 1 3 15
BITMAP
FC
ENDCHAR
STARTCHAR 0305
ENCODING 773
SWIDTH 500 0
DWIDTH 12 0
BBX 6 1 3 15
BITMAP
FC
ENDCHAR
STARTCHAR 0306
ENCODING 774
SWIDTH 500 0
DWIDTH 12 0
BBX 6 2 3 15
BITMAP
84
78
ENDCHAR
STARTCHAR 0308
ENCODING 776
SWIDTH 500 0
DWIDTH 12 0
BBX 6 2 3 15
BITMAP
CC
CC
ENDCHAR
STARTCHAR 030B
ENCODING 779
SWIDTH 500 0
DWIDTH 12 0
BBX 6 4 3 14
BITMAP
04
64
48
90
ENDCHAR
STARTCHAR 030C
ENCODING 780
SWIDTH 500 0
DWIDTH 12 0
BBX 6 3 3 14
BITMAP
84
78
30
ENDCHAR
STARTCHAR 030F
ENCODING 783
SWIDTH 500 0
DWIDTH 12 0
BBX 6 4 3 14
BITMAP
80
98
48
24
ENDCHAR
STARTCHAR 0318
ENCODING 792
SWIDTH 500 0
DWIDTH 12 0
BBX 3 6 4 -6
BITMAP
20
20
20
E0
20
20
ENDCHAR
STARTCHAR 0319
ENCODING 793
SWIDTH 500 0
DWIDTH 12 0
BBX 3 6 5 -6
BITMAP
80
80
80
E0
80
80
ENDCHAR
STARTCHAR 031A
ENCODING 794
SWIDTH 500 0
DWIDTH 12 0
BBX 5 6 2 11
BITMAP
F8
18
18
18
18
18
ENDCHAR
STARTCHAR 031C
ENCODING 796
SWIDTH 500 0
DWIDTH 12 0
BBX 3 5 4 -6
BITMAP
20
40
80
40
60
ENDCHAR
STARTCHAR 031D
ENCODING 797
SWIDTH 500 0
DWIDTH 12 0
BBX 6 4 3 -4
BITMAP
30
30
30
FC
ENDCHAR
STARTCHAR 031E
ENCODING 798
SWIDTH 500 0
DWIDTH 12 0
BBX 6 3 3 -5
BITMAP
FC
30
30
ENDCHAR
STARTCHAR 031F
ENCODING 799
SWIDTH 500 0
DWIDTH 12 0
BBX 6 6 3 -6
BITMAP
30
30
30
FC
30
30
ENDCHAR
STARTCHAR 0320
ENCODING 800
SWIDTH 500 0
DWIDTH 12 0
BBX 6 1 3 -3
BITMAP
FC
ENDCHAR
STARTCHAR 0324
ENCODING 804
SWIDTH 500 0
DWIDTH 12 0
BBX 6 2 3 -3
BITMAP
CC
CC
ENDCHAR
STARTCHAR 0325
ENCODING 805
SWIDTH 500 0
DWIDTH 12 0
BBX 4 3 4 -4
BITMAP
60
90
60
ENDCHAR
STARTCHAR 0327
ENCODING 807
SWIDTH 500 0
DWIDTH 12 0
BBX 4 6 4 -6
BITMAP
40
E0
30
10
70
80
ENDCHAR
STARTCHAR 0329
ENCODING 809
SWIDTH 500 0
DWIDTH 12 0
BBX 2 6 5 -7
BITMAP
C0
C0
C0
C0
C0
C0
ENDCHAR
STARTCHAR 032A
ENCODING 810
SWIDTH 500 0
DWIDTH 12 0
BBX 6 4 3 -6
BITMAP
FC
84
84
84
ENDCHAR
STARTCHAR 032C
ENCODING 812
SWIDTH 500 0
DWIDTH 12 0
BBX 6 3 3 -4
BITMAP
84
78
30
ENDCHAR
STARTCHAR 032F
ENCODING 815
SWIDTH 500 0
DWIDTH 12 0
BBX 6 3 3 -4
BITMAP
78
84
84
ENDCHAR
STARTCHAR 0330
ENCODING 816
SWIDTH 500 0
DWIDTH 12 0
BBX 6 2 3 -3
BITMAP
60
9C
ENDCHAR
STARTCHAR 0332
ENCODING 818
SWIDTH 500 0
DWIDTH 12 0
BBX 12 1 0 -3
BITMAP
FFF0
ENDCHAR
STARTCHAR 0334
ENCODING 820
SWIDTH 500 0
DWIDTH 12 0
BBX 6 2 3 6
BITMAP
E0
9C
ENDCHAR
STARTCHAR 0336
ENCODING 822
SWIDTH 916 0
DWIDTH 22 0
BBX 22 1 0 9
BITMAP
FFFFFC
ENDCHAR
STARTCHAR 0339
ENCODING 825
SWIDTH 500 0
DWIDTH 12 0
BBX 3 5 5 -6
BITMAP
80
40
20
60
C0
ENDCHAR
STARTCHAR 033A
ENCODING 826
SWIDTH 500 0
DWIDTH 12 0
BBX 6 4 3 -5
BITMAP
84
84
84
FC
ENDCHAR
STARTCHAR 033B
ENCODING 827
SWIDTH 500 0
DWIDTH 12 0
BBX 6 3 3 -5
BITMAP
FC
84
FC
ENDCHAR
STARTCHAR 033C
ENCODING 828
SWIDTH 500 0
DWIDTH 12 0
BBX 6 2 3 -3
BITMAP
D8
A4
ENDCHAR
STARTCHAR 033D
ENCODING 829
SWIDTH 500 0
DWIDTH 12 0
BBX 4 5 4 13
BITMAP
90
F0
60
F0
90
ENDCHAR
STARTCHAR 0361
ENCODING 865
SWIDTH 0 0
DWIDTH 0 0
BBX 12 3 -6 19
BITMAP
1F80
6060
8010
ENDCHAR
STARTCHAR 0391
ENCODING 913
SWIDTH 1000 0
DWIDTH 24 0
BBX 19 17 3 1
BITMAP
00C000
00C000
014000
016000
012000
023000
023000
041800
041800
080800
0FFC00
080C00
100600
100600
200300
200300
F80FE0
ENDCHAR
STARTCHAR 0392
ENCODING 914
SWIDTH 1000 0
DWIDTH 24 0
BBX 14 17 5 1
BITMAP
FFC0
3030
2018
2018
2018
2018
2030
2060
3FC0
2038
200C
200C
200C
200C
200C
3018
FFE0
ENDCHAR
STARTCHAR 0393
ENCODING 915
SWIDTH 1000 0
DWIDTH 24 0
BBX 14 17 5 1
BITMAP
FFFC
301C
300C
3004
3004
3000
3000
3000
3000
3000
3000
3000
3000
3000
3000
3000
FC00
ENDCHAR
STARTCHAR 0394
ENCODING 916
SWIDTH 1000 0
DWIDTH 24 0
BBX 16 16 4 2
BITMAP
0180
0180
02C0
02C0
0460
0460
0830
0830
1818
1018
300C
200C
200C
4006
4006
FFFF
ENDCHAR
STARTCHAR 0395
ENCODING 917
SWIDTH 1000 0
DWIDTH 24 0
BBX 15 17 4 1
BITMAP
FFFC
380C
1004
1004
1004
1020
1020
1020
1FE0
1020
1020
1000
1002
1002
1002
380E
FFFE
ENDCHAR
STARTCHAR 0396
ENCODING 918
SWIDTH 1000 0
DWIDTH 24 0
BBX 14 17 5 1
BITMAP
7FF8
6018
4030
4030
4060
00C0
0180
0180
0300
0600
0C00
1804
1804
3004
600C
C01C
FFFC
ENDCHAR
STARTCHAR 0397
ENCODING 919
SWIDTH 1000 0
DWIDTH 24 0
BBX 18 17 3 1
BITMAP
FE1FC0
100200
100200
100200
100200
100200
100200
100200
1FFE00
100200
100200
100200
100200
100200
100200
100200
FE1FC0
ENDCHAR
STARTCHAR 0398
ENCODING 920
SWIDTH 1000 0
DWIDTH 24 0
BBX 16 18 4 0
BITMAP
07E0
1C38
300C
3004
6006
6002
C003
D013
CFF3
D013
C003
C003
6006
6006
700E
301C
1C38
07E0
ENDCHAR
STARTCHAR 0399
ENCODING 921
SWIDTH 1000 0
DWIDTH 24 0
BBX 6 17 9 1
BITMAP
FC
30
30
30
30
30
30
30
30
30
30
30
30
30
30
30
FC
ENDCHAR
STARTCHAR 039A
ENCODING 922
SWIDTH 1000 0
DWIDTH 24 0
BBX 17 17 4 1
BITMAP
FC7E00
301800
303000
306000
30C000
308000
310000
330000
358000
38C000
306000
307000
303000
301800
300C00
300600
FC1F80
ENDCHAR
STARTCHAR 039B
ENCODING 923
SWIDTH 1000 0
DWIDTH 24 0
BBX 18 17 3 1
BITMAP
00C000
00C000
00C000
016000
016000
023000
023000
021000
041800
041800
080C00
080C00
180400
100600
100600
300300
FC1FC0
ENDCHAR
STARTCHAR 039C
ENCODING 924
SWIDTH 1000 0
DWIDTH 24 0
BBX 20 17 2 1
BITMAP
F000F0
3801C0
2801C0
2C02C0
2C02C0
2402C0
2604C0
2204C0
2308C0
2308C0
2188C0
2190C0
2090C0
20E0C0
20E0C0
2060C0
F843F0
ENDCHAR
STARTCHAR 039D
ENCODING 925
SWIDTH 1000 0
DWIDTH 24 0
BBX 18 17 3 1
BITMAP
F807C0
380100
2C0100
260100
270100
230100
218100
20C100
20E100
206100
203100
201900
201D00
200D00
200700
200300
F80300
ENDCHAR
STARTCHAR 039E
ENCODING 926
SWIDTH 1000 0
DWIDTH 24 0
BBX 14 17 5 1
BITMAP
7FF8
4008
4008
0000
0000
0000
0020
1020
1FE0
1020
0020
0000
0000
8004
8004
8004
FFFC
ENDCHAR
STARTCHAR 039F
ENCODING 927
SWIDTH 1000 0
DWIDTH 24 0
BBX 16 18 4 0
BITMAP
07E0
1C38
300C
3004
6006
6002
C003
C003
C003
C003
C003
C003
6006
6006
700E
301C
1C38
07E0
ENDCHAR
STARTCHAR 03A0
ENCODING 928
SWIDTH 1000 0
DWIDTH 24 0
BBX 18 17 3 1
BITMAP
FFFFC0
380700
100200
100200
100200
100200
100200
100200
100200
100200
100200
100200
100200
100200
100200
100200
FE1FC0
ENDCHAR
STARTCHAR 03A1
ENCODING 929
SWIDTH 1000 0
DWIDTH 24 0
BBX 14 17 5 1
BITMAP
FFE0
3018
300C
300C
300C
300C
300C
3038
3FE0
3000
3000
3000
3000
3000
3000
3000
FC00
ENDCHAR
STARTCHAR 03A3
ENCODING 931
SWIDTH 1000 0
DWIDTH 24 0
BBX 15 17 4 1
BITMAP
7FFE
6006
3002
1802
0C00
0600
0300
0180
00C0
0180
0300
0600
0C02
1802
3002
6006
FFFE
ENDCHAR
STARTCHAR 03A4
ENCODING 932
SWIDTH 1000 0
DWIDTH 24 0
BBX 16 17 4 1
BITMAP
FFFF
C183
8181
8181
8181
0180
0180
0180
0180
0180
0180
0180
0180
0180
0180
0180
07E0
ENDCHAR
STARTCHAR 03A5
ENCODING 933
SWIDTH 1000 0
DWIDTH 24 0
BBX 16 17 4 1
BITMAP
1C3C
6246
4182
8181
8181
0180
0180
0180
0180
0180
0180
0180
0180
0180
0180
0180
07E0
ENDCHAR
STARTCHAR 03A6
ENCODING 934
SWIDTH 1000 0
DWIDTH 24 0
BBX 16 17 4 1
BITMAP
07E0
0180
0180
0FF0
318C
6186
C182
C183
C183
C183
C183
6186
318C
0DB0
03C0
0180
07E0
ENDCHAR
STARTCHAR 03A7
ENCODING 935
SWIDTH 1000 0
DWIDTH 24 0
BBX 18 17 3 1
BITMAP
FE1F80
180600
0C0C00
0E0800
061000
032000
01A000
00C000
00C000
016000
033000
021800
041800
080C00
100600
300700
FC1FC0
ENDCHAR
STARTCHAR 03A8
ENCODING 936
SWIDTH 1000 0
DWIDTH 24 0
BBX 18 17 3 1
BITMAP
63F180
B0C340
10C200
10C200
10C200
10C200
10C200
10C200
18C600
18C600
08C400
04D800
03E000
00C000
00C000
00C000
03F000
ENDCHAR
STARTCHAR 03A9
ENCODING 937
SWIDTH 1000 0
DWIDTH 24 0
BBX 16 17 4 1
BITMAP
07E0
1C30
300C
300C
6006
6006
6006
6006
6006
6006
6006
6004
300C
1818
8421
8441
FC3F
ENDCHAR
STARTCHAR 03B1
ENCODING 945
SWIDTH 1000 0
DWIDTH 24 0
BBX 14 13 5 0
BITMAP
0798
0C90
18D0
30E0
20E0
60C0
60C0
40C0
C0C0
C1C4
4248
6448
3870
ENDCHAR
STARTCHAR 03B2
ENCODING 946
SWIDTH 1000 0
DWIDTH 24 0
BBX 12 21 5 -3
BITMAP
03C0
0660
0430
0830
0830
1030
1020
1740
2780
2040
2060
2060
6060
6060
4060
60C0
5180
4F00
C000
C000
C000
ENDCHAR
STARTCHAR 03B3
ENCODING 947
SWIDTH 1000 0
DWIDTH 24 0
BBX 13 15 5 -2
BITMAP
7018
F830
8C20
0460
0440
0280
0280
0300
0300
0200
0200
0600
0600
0600
0600
ENDCHAR
STARTCHAR 03B4
ENCODING 948
SWIDTH 1000 0
DWIDTH 24 0
BBX 11 18 6 0
BITMAP
0F00
10E0
1060
1000
0C00
0200
0D00
1080
2040
6040
4040
4040
C0C0
C0C0
40C0
4180
6300
1E00
ENDCHAR
STARTCHAR 03B5
ENCODING 949
SWIDTH 1000 0
DWIDTH 24 0
BBX 9 13 7 0
BITMAP
3E00
6180
4000
4000
4000
3E00
C000
8000
8000
8000
C080
E300
3C00
ENDCHAR
STARTCHAR 03B6
ENCODING 950
SWIDTH 1000 0
DWIDTH 24 0
BBX 11 21 6 -2
BITMAP
0400
0860
11C0
1380
0E00
0800
1800
1000
2000
6000
4000
C000
C000
C000
C000
7000
1E00
0380
0080
1880
0F00
ENDCHAR
STARTCHAR 03B7
ENCODING 951
SWIDTH 1000 0
DWIDTH 24 0
BBX 12 15 5 -2
BITMAP
71E0
8E20
0C30
0820
0820
1820
1060
1060
3040
2040
60C0
00C0
0080
0080
0180
ENDCHAR
STARTCHAR 03B8
ENCODING 952
SWIDTH 1000 0
DWIDTH 24 0
BBX 11 18 6 0
BITMAP
0380
0CC0
1860
1060
3060
2060
6060
6060
7FE0
4060
C060
C0C0
C0C0
C080
4180
4100
2200
1C00
ENDCHAR
STARTCHAR 03B9
ENCODING 953
SWIDTH 1000 0
DWIDTH 24 0
BBX 7 12 8 0
BITMAP
10
30
30
20
60
40
40
C0
C2
C4
44
78
ENDCHAR
STARTCHAR 03BA
ENCODING 954
SWIDTH 1000 0
DWIDTH 24 0
BBX 12 13 6 0
BITMAP
1830
18E0
1380
3600
3800
3C00
6600
6200
4200
4220
C220
8340
0180
ENDCHAR
STARTCHAR 03BB
ENCODING 955
SWIDTH 1000 0
DWIDTH 24 0
BBX 13 18 5 0
BITMAP
0E00
1100
0100
0100
0100
0100
0100
0300
0300
0700
0D00
0900
1900
3100
2188
6190
C0F0
00E0
ENDCHAR
STARTCHAR 03BC
ENCODING 956
SWIDTH 1000 0
DWIDTH 24 0
BBX 14 16 4 -3
BITMAP
0408
0418
0C18
0810
1810
1030
1020
3020
3060
3064
30A4
68A4
4F18
4000
4000
C000
ENDCHAR
STARTCHAR 03BD
ENCODING 957
SWIDTH 1000 0
DWIDTH 24 0
BBX 12 12 6 1
BITMAP
7030
9030
1810
1810
1810
1820
1860
10C0
1180
1700
3C00
3000
ENDCHAR
STARTCHAR 03BE
ENCODING 958
SWIDTH 1000 0
DWIDTH 24 0
BBX 9 21 7 -2
BITMAP
1000
2180
3700
0800
1000
1000
3000
3000
3780
1F00
2000
4000
C000
C000
C000
6000
3E00
0300
0100
2300
3E00
ENDCHAR
STARTCHAR 03BF
ENCODING 959
SWIDTH 1000 0
DWIDTH 24 0
BBX 10 13 7 0
BITMAP
0F00
3180
6080
60C0
C0C0
C0C0
C0C0
C0C0
C0C0
C080
4180
6300
1E00
ENDCHAR
STARTCHAR 03C0
ENCODING 960
SWIDTH 1000 0
DWIDTH 24 0
BBX 12 13 6 1
BITMAP
7FF0
8880
0900
1100
1100
1100
3100
2300
2300
6320
4320
C120
01C0
ENDCHAR
STARTCHAR 03C1
ENCODING 961
SWIDTH 1000 0
DWIDTH 24 0
BBX 12 15 5 -2
BITMAP
03C0
0C60
1830
1030
3030
3030
3030
7030
7860
4CC0
4780
4000
C000
C000
C000
ENDCHAR
STARTCHAR 03C2
ENCODING 962
SWIDTH 500 0
DWIDTH 12 0
BBX 10 17 1 -5
BITMAP
1F00
3080
6040
40C0
40C0
4000
6000
6000
3000
1800
0C00
0600
0200
0300
C200
C600
7C00
ENDCHAR
STARTCHAR 03C3
ENCODING 963
SWIDTH 1000 0
DWIDTH 24 0
BBX 12 13 7 0
BITMAP
1FF0
2080
60C0
40C0
C0C0
C0C0
C0C0
C0C0
C0C0
C080
4180
6300
1E00
ENDCHAR
STARTCHAR 03C4
ENCODING 964
SWIDTH 1000 0
DWIDTH 24 0
BBX 12 13 6 1
BITMAP
7FF0
8200
0400
0400
0800
0800
1800
1800
1000
1080
1080
1900
0E00
ENDCHAR
STARTCHAR 03C5
ENCODING 965
SWIDTH 1000 0
DWIDTH 24 0
BBX 12 13 5 0
BITMAP
3020
C830
0830
0810
1810
1810
3010
3010
2010
2020
3020
30C0
0F00
ENDCHAR
STARTCHAR 03C6
ENCODING 966
SWIDTH 1000 0
DWIDTH 24 0
BBX 12 19 6 -2
BITMAP
0080
0180
0100
0100
0780
3960
6230
C230
C210
8410
8410
8430
C430
4860
2980
1E00
0800
1000
1000
ENDCHAR
STARTCHAR 03C7
ENCODING 967
SWIDTH 1000 0
DWIDTH 24 0
BBX 12 15 6 -2
BITMAP
7020
8860
0CC0
0480
0580
0500
0600
0600
0C00
0A00
1A00
3200
6330
61E0
C1C0
ENDCHAR
STARTCHAR 03C8
ENCODING 968
SWIDTH 1000 0
DWIDTH 24 0
BBX 13 19 6 -2
BITMAP
00C0
0080
0180
0180
1120
2110
6110
C218
C218
8218
8218
8410
C430
C460
68C0
1F00
0800
1800
1800
ENDCHAR
STARTCHAR 03C9
ENCODING 969
SWIDTH 1000 0
DWIDTH 24 0
BBX 16 13 4 0
BITMAP
0404
0804
1002
3002
60C3
60C3
4183
C182
C102
4106
4284
6488
3870
ENDCHAR
STARTCHAR 0401
ENCODING 1025
SWIDTH 1000 0
DWIDTH 24 0
BBX 15 20 4 1
BITMAP
0C30
0C30
0000
FFFC
380C
1004
1004
1004
1020
1020
1020
1FE0
1020
1020
1000
1002
1002
1002
380E
FFFE
ENDCHAR
STARTCHAR 0410
ENCODING 1040
SWIDTH 1000 0
DWIDTH 24 0
BBX 19 17 3 1
BITMAP
00C000
00C000
014000
016000
012000
023000
023000
041800
041800
080800
0FFC00
080C00
100600
100600
200300
200300
F80FE0
ENDCHAR
STARTCHAR 0411
ENCODING 1041
SWIDTH 1000 0
DWIDTH 24 0
BBX 14 17 5 1
BITMAP
FFF8
3018
2008
2008
2008
2000
2000
2000
3FE0
2038
200C
200C
200C
200C
200C
3018
FFE0
ENDCHAR
STARTCHAR 0412
ENCODING 1042
SWIDTH 1000 0
DWIDTH 24 0
BBX 14 17 5 1
BITMAP
FFC0
3030
2018
2018
2018
2018
2030
2060
3FC0
2038
200C
200C
200C
200C
200C
3018
FFE0
ENDCHAR
STARTCHAR 0413
ENCODING 1043
SWIDTH 1000 0
DWIDTH 24 0
BBX 14 17 5 1
BITMAP
FFFC
301C
300C
3004
3004
3000
3000
3000
3000
3000
3000
3000
3000
3000
3000
3000
FC00
ENDCHAR
STARTCHAR 0414
ENCODING 1044
SWIDTH 1000 0
DWIDTH 24 0
BBX 16 19 4 -2
BITMAP
3FFF
0C0C
080C
080C
080C
080C
080C
080C
080C
080C
100C
100C
200C
200C
400C
400C
FFFF
8001
8001
ENDCHAR
STARTCHAR 0415
ENCODING 1045
SWIDTH 1000 0
DWIDTH 24 0
BBX 15 17 4 1
BITMAP
FFFC
380C
1004
1004
1004
1020
1020
1020
1FE0
1020
1020
1000
1002
1002
1002
380E
FFFE
ENDCHAR
STARTCHAR 0416
ENCODING 1046
SWIDTH 1000 0
DWIDTH 24 0
BBX 22 17 1 1
BITMAP
30FC30
683058
683058
043080
043080
043100
023100
013200
01FE00
033300
023100
063180
0C30C0
083040
183060
303030
FCFCFC
ENDCHAR
STARTCHAR 0417
ENCODING 1047
SWIDTH 1000 0
DWIDTH 24 0
BBX 12 18 6 0
BITMAP
1F80
7060
4020
0030
0030
0060
00C0
0F00
00C0
0020
0030
0030
8030
8030
C030
C070
70E0
1F80
ENDCHAR
STARTCHAR 0418
ENCODING 1048
SWIDTH 1000 0
DWIDTH 24 0
BBX 18 17 3 1
BITMAP
FE1FC0
100200
100200
100200
100E00
101200
102200
104200
108200
110200
120200
140200
180200
100200
100200
100200
FE1FC0
ENDCHAR
STARTCHAR 0419
ENCODING 1049
SWIDTH 1000 0
DWIDTH 24 0
BBX 18 20 3 1
BITMAP
021000
021000
01E000
FE1FC0
100200
100200
100200
100E00
101200
102200
104200
108200
110200
120200
140200
180200
100200
100200
100200
FE1FC0
ENDCHAR
STARTCHAR 041A
ENCODING 1050
SWIDTH 1000 0
DWIDTH 24 0
BBX 17 17 4 1
BITMAP
FC0E00
301700
302600
302000
304000
304000
308000
370000
398000
30C000
306000
307000
303000
301800
300C00
300600
FC1F80
ENDCHAR
STARTCHAR 041B
ENCODING 1051
SWIDTH 1000 0
DWIDTH 24 0
BBX 17 18 3 0
BITMAP
0FFF80
010600
010600
010600
010600
010600
010600
010600
020600
020600
020600
020600
C20600
E20600
C20600
840600
8C1F80
780000
ENDCHAR
STARTCHAR 041C
ENCODING 1052
SWIDTH 1000 0
DWIDTH 24 0
BBX 22 17 1 1
BITMAP
3C00F0
0E01C0
0E01C0
0B0140
0B0240
090240
098440
118460
108460
10C860
104860
107060
107060
103060
102060
100060
FC01FC
ENDCHAR
STARTCHAR 041D
ENCODING 1053
SWIDTH 1000 0
DWIDTH 24 0
BBX 18 17 3 1
BITMAP
FE1FC0
100200
100200
100200
100200
100200
100200
100200
1FFE00
100200
100200
100200
100200
100200
100200
100200
FE1FC0
ENDCHAR
STARTCHAR 041E
ENCODING 1054
SWIDTH 1000 0
DWIDTH 24 0
BBX 16 18 4 0
BITMAP
07E0
1C38
300C
3004
6006
6002
C003
C003
C003
C003
C003
C003
6006
6006
700E
301C
1C38
07E0
ENDCHAR
STARTCHAR 041F
ENCODING 1055
SWIDTH 1000 0
DWIDTH 24 0
BBX 18 17 3 1
BITMAP
FFFFC0
380700
100200
100200
100200
100200
100200
100200
100200
100200
100200
100200
100200
100200
100200
100200
FE1FC0
ENDCHAR
STARTCHAR 0420
ENCODING 1056
SWIDTH 1000 0
DWIDTH 24 0
BBX 14 17 5 1
BITMAP
FFE0
3018
300C
300C
300C
300C
300C
3038
3FE0
3000
3000
3000
3000
3000
3000
3000
FC00
ENDCHAR
STARTCHAR 0421
ENCODING 1057
SWIDTH 1000 0
DWIDTH 24 0
BBX 16 18 4 0
BITMAP
03F8
0C0E
1006
2002
6000
6000
C000
C000
C000
C000
C000
C001
6001
6001
3003
1806
0E0C
03F0
ENDCHAR
STARTCHAR 0422
ENCODING 1058
SWIDTH 1000 0
DWIDTH 24 0
BBX 16 17 4 1
BITMAP
FFFF
C183
8181
8181
8181
0180
0180
0180
0180
0180
0180
0180
0180
0180
0180
0180
07E0
ENDCHAR
STARTCHAR 0423
ENCODING 1059
SWIDTH 1000 0
DWIDTH 24 0
BBX 16 18 4 0
BITMAP
FE3F
3804
1808
0808
0C10
0610
0610
0320
0320
01C0
01C0
0080
0080
6100
6100
4200
6400
3800
ENDCHAR
STARTCHAR 0424
ENCODING 1060
SWIDTH 1000 0
DWIDTH 24 0
BBX 16 17 4 1
BITMAP
07E0
0180
0180
0FF0
318C
6186
C182
C183
C183
C183
C183
6186
318C
0DB0
03C0
0180
07E0
ENDCHAR
STARTCHAR 0425
ENCODING 1061
SWIDTH 1000 0
DWIDTH 24 0
BBX 18 17 3 1
BITMAP
FE1F80
180600
0C0C00
0E0800
061000
032000
01A000
00C000
00C000
016000
033000
021800
041800
080C00
100600
300700
FC1FC0
ENDCHAR
STARTCHAR 0426
ENCODING 1062
SWIDTH 1000 0
DWIDTH 24 0
BBX 17 19 3 -2
BITMAP
FC1F80
300600
300600
300600
300600
300600
300600
300600
300600
300600
300600
300600
300600
300600
300600
300600
FFFF80
000080
000080
ENDCHAR
STARTCHAR 0427
ENCODING 1063
SWIDTH 1000 0
DWIDTH 24 0
BBX 16 17 4 1
BITMAP
FC3F
300C
300C
300C
300C
300C
300C
300C
300C
183C
0FCC
000C
000C
000C
000C
000C
003F
ENDCHAR
STARTCHAR 0428
ENCODING 1064
SWIDTH 1000 0
DWIDTH 24 0
BBX 20 17 2 1
BITMAP
FDFBF0
3060C0
3060C0
3060C0
3060C0
3060C0
3060C0
3060C0
3060C0
3060C0
3060C0
3060C0
3060C0
3060C0
3060C0
3060C0
FFFFF0
ENDCHAR
STARTCHAR 0429
ENCODING 1065
SWIDTH 1000 0
DWIDTH 24 0
BBX 20 19 2 -2
BITMAP
F9FBF0
3060C0
2060C0
2060C0
2060C0
2060C0
2060C0
2060C0
2060C0
2060C0
2060C0
2060C0
2060C0
2060C0
2060C0
2060C0
FFFFF0
000010
000010
ENDCHAR
STARTCHAR 042A
ENCODING 1066
SWIDTH 1000 0
DWIDTH 24 0
BBX 18 17 3 1
BITMAP
FFC000
C70000
820000
820000
820000
020000
020000
020000
03FE00
020380
0200C0
0200C0
0200C0
0200C0
0200C0
030180
0FFE00
ENDCHAR
STARTCHAR 042B
ENCODING 1067
SWIDTH 1000 0
DWIDTH 24 0
BBX 20 17 2 1
BITMAP
FC03F0
3000C0
3000C0
3000C0
3000C0
3000C0
3000C0
3000C0
3FE0C0
3038C0
3018C0
300CC0
300CC0
300CC0
3008C0
3018C0
FFE3F0
ENDCHAR
STARTCHAR 042C
ENCODING 1068
SWIDTH 1000 0
DWIDTH 24 0
BBX 14 17 5 1
BITMAP
FC00
3000
3000
3000
3000
3000
3000
3000
3FE0
3038
300C
300C
3004
300C
300C
3018
FFE0
ENDCHAR
STARTCHAR 042D
ENCODING 1069
SWIDTH 1000 0
DWIDTH 24 0
BBX 16 18 4 0
BITMAP
1FC0
7038
401C
400C
0006
0006
0F03
1187
007B
0003
0003
8007
8006
8006
C00C
6018
3070
0FC0
ENDCHAR
STARTCHAR 042E
ENCODING 1070
SWIDTH 1000 0
DWIDTH 24 0
BBX 20 18 2 0
BITMAP
FC1F00
306180
30C0C0
308060
318060
318020
318030
318030
3F0030
310030
318030
318030
318060
318060
30C060
30C0C0
FC6180
001F00
ENDCHAR
STARTCHAR 042F
ENCODING 1071
SWIDTH 1000 0
DWIDTH 24 0
BBX 16 17 4 1
BITMAP
07FF
180C
3008
3008
3008
3008
3008
1808
07F8
0308
0308
0608
0C08
0C08
1808
200C
C03F
ENDCHAR
STARTCHAR 0430
ENCODING 1072
SWIDTH 1000 0
DWIDTH 24 0
BBX 12 13 7 0
BITMAP
3E00
4300
E180
4180
0380
1D80
6180
C180
C180
C180
C190
46A0
38C0
ENDCHAR
STARTCHAR 0431
ENCODING 1073
SWIDTH 1000 0
DWIDTH 24 0
BBX 12 18 6 0
BITMAP
0020
0060
0F80
1000
2000
4F00
70C0
6060
C020
C020
C030
C030
C030
C030
6060
6060
30C0
0F00
ENDCHAR
STARTCHAR 0432
ENCODING 1074
SWIDTH 1000 0
DWIDTH 24 0
BBX 12 12 5 1
BITMAP
FFC0
3060
3020
3020
3060
3F80
3070
3030
3010
3030
3030
FFC0
ENDCHAR
STARTCHAR 0433
ENCODING 1075
SWIDTH 1000 0
DWIDTH 24 0
BBX 12 12 6 1
BITMAP
FFF0
3030
3010
3010
3010
3000
3000
3000
3000
3000
3000
FC00
ENDCHAR
STARTCHAR 0434
ENCODING 1076
SWIDTH 1000 0
DWIDTH 24 0
BBX 14 15 5 -2
BITMAP
3FF8
0830
0820
0820
0820
0820
0820
1020
1020
2020
2030
FFFC
C00C
8004
8004
ENDCHAR
STARTCHAR 0435
ENCODING 1077
SWIDTH 1000 0
DWIDTH 24 0
BBX 11 13 6 0
BITMAP
0F00
30C0
6040
4060
4060
FFE0
C000
C000
4000
6020
6040
30C0
0F00
ENDCHAR
STARTCHAR 0436
ENCODING 1078
SWIDTH 1000 0
DWIDTH 24 0
BBX 18 12 3 1
BITMAP
61E180
70C380
08C400
08C400
04C800
07F800
0CCC00
18C600
10C200
30C300
20C100
F9E7C0
ENDCHAR
STARTCHAR 0437
ENCODING 1079
SWIDTH 1000 0
DWIDTH 24 0
BBX 10 13 7 0
BITMAP
3E00
6180
4080
0080
0180
1E00
0180
00C0
80C0
80C0
C0C0
6380
3F00
ENDCHAR
STARTCHAR 0438
ENCODING 1080
SWIDTH 1000 0
DWIDTH 24 0
BBX 14 12 5 1
BITMAP
FCFC
3030
3030
3070
30B0
3130
3230
3430
3830
3030
3030
FCFC
ENDCHAR
STARTCHAR 0439
ENCODING 1081
SWIDTH 1000 0
DWIDTH 24 0
BBX 14 16 5 1
BITMAP
0840
0840
0780
0000
FCFC
3030
3030
3070
30B0
3130
3230
3430
3830
3030
3030
FCFC
ENDCHAR
STARTCHAR 043A
ENCODING 1082
SWIDTH 1000 0
DWIDTH 24 0
BBX 13 12 6 1
BITMAP
F870
6070
2080
2100
2300
3F00
2100
2180
20C0
2060
6060
F8F8
ENDCHAR
STARTCHAR 043B
ENCODING 1083
SWIDTH 1000 0
DWIDTH 24 0
BBX 14 13 4 0
BITMAP
0FFC
0218
0210
0410
0410
0410
0410
0410
C410
C410
C418
C87C
7000
ENDCHAR
STARTCHAR 043C
ENCODING 1084
SWIDTH 1000 0
DWIDTH 24 0
BBX 16 12 4 1
BITMAP
F00F
381C
281C
282C
2C2C
242C
264C
264C
228C
238C
210C
F93F
ENDCHAR
STARTCHAR 043D
ENCODING 1085
SWIDTH 1000 0
DWIDTH 24 0
BBX 14 12 5 1
BITMAP
FCFC
3030
3030
3030
3030
3FF0
3030
3030
3030
3030
3030
FCFC
ENDCHAR
STARTCHAR 043E
ENCODING 1086
SWIDTH 1000 0
DWIDTH 24 0
BBX 12 13 6 0
BITMAP
0F00
30C0
6060
6020
C020
C030
C030
C030
C030
6060
6060
30C0
0F00
ENDCHAR
STARTCHAR 043F
ENCODING 1087
SWIDTH 1000 0
DWIDTH 24 0
BBX 14 12 5 1
BITMAP
FFFC
3030
3030
3030
3030
3030
3030
3030
3030
3030
3030
FCFC
ENDCHAR
STARTCHAR 0440
ENCODING 1088
SWIDTH 1000 0
DWIDTH 24 0
BBX 12 15 6 -1
BITMAP
EF80
70C0
6060
6020
6030
6030
6030
6030
6060
70C0
6F80
6000
6000
6000
F800
ENDCHAR
STARTCHAR 0441
ENCODING 1089
SWIDTH 1000 0
DWIDTH 24 0
BBX 11 13 6 0
BITMAP
0F80
3840
20E0
60C0
4000
C000
C000
C000
6000
6020
7040
38C0
0F00
ENDCHAR
STARTCHAR 0442
ENCODING 1090
SWIDTH 1000 0
DWIDTH 24 0
BBX 12 12 6 1
BITMAP
FFF0
C630
8610
8610
0600
0600
0600
0600
0600
0600
0600
1F80
ENDCHAR
STARTCHAR 0443
ENCODING 1091
SWIDTH 1000 0
DWIDTH 24 0
BBX 14 15 5 -2
BITMAP
FC7C
3010
1810
1820
0C20
0C40
0640
0680
0380
0100
0100
0200
0200
3600
3C00
ENDCHAR
STARTCHAR 0444
ENCODING 1092
SWIDTH 1000 0
DWIDTH 24 0
BBX 14 21 5 -2
BITMAP
0300
0700
0300
0300
0300
0300
1FE0
6318
4308
C30C
C30C
C30C
C30C
C30C
6308
6318
1FF0
0300
0300
0300
0FC0
ENDCHAR
STARTCHAR 0445
ENCODING 1093
SWIDTH 1000 0
DWIDTH 24 0
BBX 14 12 5 1
BITMAP
FCF8
1020
1840
0C80
0700
0300
0780
0480
08C0
1060
2030
F8FC
ENDCHAR
STARTCHAR 0446
ENCODING 1094
SWIDTH 1000 0
DWIDTH 24 0
BBX 14 15 5 -2
BITMAP
F8F8
3020
3020
3020
3020
3020
3020
3020
3020
3020
3020
FFFC
000C
0004
0004
ENDCHAR
STARTCHAR 0447
ENCODING 1095
SWIDTH 1000 0
DWIDTH 24 0
BBX 13 12 5 1
BITMAP
F8F8
3030
3020
3020
3020
3020
1860
0FA0
0020
0020
0030
00F8
ENDCHAR
STARTCHAR 0448
ENCODING 1096
SWIDTH 1000 0
DWIDTH 24 0
BBX 18 12 3 1
BITMAP
F9E7C0
20C100
20C100
20C100
20C100
20C100
20C100
20C100
20C100
20C100
20C100
FFFFC0
ENDCHAR
STARTCHAR 0449
ENCODING 1097
SWIDTH 1000 0
DWIDTH 24 0
BBX 18 14 3 -2
BITMAP
F9E7C0
20C100
20C100
20C100
20C100
20C100
20C100
20C100
20C100
20C100
20C100
FFFFC0
000040
000040
ENDCHAR
STARTCHAR 044A
ENCODING 1098
SWIDTH 1000 0
DWIDTH 24 0
BBX 14 12 5 1
BITMAP
FE00
8C00
8800
0800
0800
0FE0
0818
0808
080C
0808
0C18
3FF0
ENDCHAR
STARTCHAR 044B
ENCODING 1099
SWIDTH 1000 0
DWIDTH 24 0
BBX 16 12 4 1
BITMAP
F81F
6004
2004
2004
2004
3F84
20C4
2064
2064
2064
6046
FF9F
ENDCHAR
STARTCHAR 044C
ENCODING 1100
SWIDTH 1000 0
DWIDTH 24 0
BBX 12 12 6 1
BITMAP
FC00
3000
3000
3000
3000
3FC0
3060
3030
3030
3030
3060
FFC0
ENDCHAR
STARTCHAR 044D
ENCODING 1101
SWIDTH 1000 0
DWIDTH 24 0
BBX 12 13 6 0
BITMAP
3F80
60C0
4060
4020
0030
3C70
03B0
0030
0020
8060
4060
21C0
1F00
ENDCHAR
STARTCHAR 044E
ENCODING 1102
SWIDTH 1000 0
DWIDTH 24 0
BBX 18 13 3 0
BITMAP
FC7C00
30C300
318180
318180
330080
3F00C0
3300C0
3300C0
310080
318180
308180
FCC300
003C00
ENDCHAR
STARTCHAR 044F
ENCODING 1103
SWIDTH 1000 0
DWIDTH 24 0
BBX 12 12 6 1
BITMAP
1FF0
6040
6040
6040
7040
1FC0
0C40
1840
1840
3040
6060
C1F0
ENDCHAR
STARTCHAR 0451
ENCODING 1105
SWIDTH 1000 0
DWIDTH 24 0
BBX 11 17 6 0
BITMAP
30C0
30C0
0000
0000
0F00
30C0
6040
4060
4060
FFE0
C000
C000
4000
6020
6040
30C0
0F00
ENDCHAR
STARTCHAR 1E3E
ENCODING 7742
SWIDTH 958 0
DWIDTH 23 0
BBX 21 22 1 0
BITMAP
000800
001800
006000
004000
000000
F800F8
3C01C0
3C0140
340140
360240
360240
320640
330440
310440
318840
318840
308840
30D040
30D040
307040
3060C0
FC23F8
ENDCHAR
STARTCHAR 1E3F
ENCODING 7743
SWIDTH 916 0
DWIDTH 22 0
BBX 20 18 1 0
BITMAP
001000
003800
006000
004000
000000
000000
F78F00
38D080
3060C0
3060C0
3060C0
3060C0
3060C0
3060C0
3060C0
3060C0
3060C0
FDFBF0
ENDCHAR
STARTCHAR 1F70
ENCODING 8048
SWIDTH 583 0
DWIDTH 14 0
BBX 12 17 1 1
BITMAP
1800
0C00
0000
0000
0000
1F60
30E0
6060
6060
4060
C060
C060
C060
4060
60E0
31E0
1E30
ENDCHAR
STARTCHAR 1F71
ENCODING 8049
SWIDTH 583 0
DWIDTH 14 0
BBX 12 17 1 1
BITMAP
0180
0300
0400
0000
0000
1F60
30E0
6060
6060
4060
C060
C060
C060
4060
60E0
31E0
1E30
ENDCHAR
STARTCHAR 1F72
ENCODING 8050
SWIDTH 500 0
DWIDTH 12 0
BBX 9 17 2 1
BITMAP
6000
1000
0800
0000
0000
3F80
6000
C000
C000
4000
3E00
C000
8000
8000
8000
C080
7F00
ENDCHAR
STARTCHAR 1F73
ENCODING 8051
SWIDTH 500 0
DWIDTH 12 0
BBX 9 17 2 1
BITMAP
0300
0400
0800
0000
0000
3F80
6000
C000
C000
4000
3E00
C000
8000
8000
8000
C080
7F00
ENDCHAR
STARTCHAR 2002
ENCODING 8194
SWIDTH 500 0
DWIDTH 12 0
BBX 0 0 0 0
BITMAP
ENDCHAR
STARTCHAR 2003
ENCODING 8195
SWIDTH 1000 0
DWIDTH 24 0
BBX 0 0 0 0
BITMAP
ENDCHAR
STARTCHAR 2010
ENCODING 8208
SWIDTH 291 0
DWIDTH 7 0
BBX 5 1 1 7
BITMAP
F8
ENDCHAR
STARTCHAR 2011
ENCODING 8209
SWIDTH 291 0
DWIDTH 7 0
BBX 5 1 1 7
BITMAP
F8
ENDCHAR
STARTCHAR 2012
ENCODING 8210
SWIDTH 291 0
DWIDTH 7 0
BBX 5 1 1 7
BITMAP
F8
ENDCHAR
STARTCHAR 2013
ENCODING 8211
SWIDTH 541 0
DWIDTH 13 0
BBX 11 1 1 7
BITMAP
FFE0
ENDCHAR
STARTCHAR 2014
ENCODING 8212
SWIDTH 916 0
DWIDTH 22 0
BBX 22 1 0 9
BITMAP
FFFFFC
ENDCHAR
STARTCHAR 2015
ENCODING 8213
SWIDTH 1000 0
DWIDTH 24 0
BBX 22 1 1 9
BITMAP
FFFFFC
ENDCHAR
STARTCHAR 2016
ENCODING 8214
SWIDTH 1000 0
DWIDTH 24 0
BBX 4 24 10 -3
BITMAP
90
90
90
90
90
90
90
90
90
90
90
90
90
90
90
90
90
90
90
90
90
90
90
90
ENDCHAR
STARTCHAR 2018
ENCODING 8216
SWIDTH 1000 0
DWIDTH 24 0
BBX 3 6 19 14
BITMAP
20
40
C0
C0
E0
C0
ENDCHAR
STARTCHAR 2019
ENCODING 8217
SWIDTH 1000 0
DWIDTH 24 0
BBX 3 7 2 13
BITMAP
60
E0
E0
20
40
40
80
ENDCHAR
STARTCHAR 201C
ENCODING 8220
SWIDTH 1000 0
DWIDTH 24 0
BBX 8 6 14 14
BITMAP
21
42
C6
C6
E7
E6
ENDCHAR
STARTCHAR 201D
ENCODING 8221
SWIDTH 1000 0
DWIDTH 24 0
BBX 8 7 2 13
BITMAP
67
E7
E7
23
42
44
80
ENDCHAR
STARTCHAR 2020
ENCODING 8224
SWIDTH 1000 0
DWIDTH 24 0
BBX 10 21 7 -2
BITMAP
0C00
1E00
0C00
0C00
EDC0
FFC0
FBC0
0C00
1E00
0C00
0C00
0C00
0C00
0C00
0800
0800
0800
0800
0800
0800
0800
ENDCHAR
STARTCHAR 2021
ENCODING 8225
SWIDTH 1000 0
DWIDTH 24 0
BBX 10 22 7 -2
BITMAP
0C00
0C00
0C00
EDC0
FFC0
EDC0
0C00
0C00
0800
0800
0800
0800
0800
0C00
0C00
0C00
EDC0
FFC0
EDC0
0C00
0C00
0C00
ENDCHAR
STARTCHAR 2022
ENCODING 8226
SWIDTH 375 0
DWIDTH 9 0
BBX 4 4 2 6
BITMAP
70
F0
F0
70
ENDCHAR
STARTCHAR 2025
ENCODING 8229
SWIDTH 1000 0
DWIDTH 24 0
BBX 16 3 4 8
BITMAP
6006
F00F
6006
ENDCHAR
STARTCHAR 2026
ENCODING 8230
SWIDTH 1000 0
DWIDTH 24 0
BBX 18 3 3 8
BITMAP
C0C0C0
E0C1C0
C0C0C0
ENDCHAR
STARTCHAR 2030
ENCODING 8240
SWIDTH 1000 0
DWIDTH 24 0
BBX 22 22 1 -2
BITMAP
000800
381000
641000
462000
C62000
C64000
C64000
468000
648000
390000
010000
020000
027070
04C898
048D88
098D88
098D8C
108D8C
108D88
20C898
207070
400000
ENDCHAR
STARTCHAR 2032
ENCODING 8242
SWIDTH 250 0
DWIDTH 6 0
BBX 3 7 1 13
BITMAP
20
20
60
40
40
80
80
ENDCHAR
STARTCHAR 2033
ENCODING 8243
SWIDTH 416 0
DWIDTH 10 0
BBX 7 7 1 13
BITMAP
26
26
64
44
48
88
80
ENDCHAR
STARTCHAR 203B
ENCODING 8251
SWIDTH 1000 0
DWIDTH 24 0
BBX 20 18 2 1
BITMAP
406020
20F040
106080
080100
040200
020400
010800
009000
706060
F060F0
609060
010800
020400
040200
080100
106080
20F040
407020
ENDCHAR
STARTCHAR 203C
ENCODING 8252
SWIDTH 458 0
DWIDTH 11 0
BBX 7 17 2 0
BITMAP
44
46
46
46
46
44
44
44
44
44
44
44
00
00
C6
EE
E6
ENDCHAR
STARTCHAR 203E
ENCODING 8254
SWIDTH 500 0
DWIDTH 12 0
BBX 6 1 3 15
BITMAP
FC
ENDCHAR
STARTCHAR 203F
ENCODING 8255
SWIDTH 458 0
DWIDTH 11 0
BBX 10 2 0 -3
BITMAP
C0C0
3F00
ENDCHAR
STARTCHAR 2042
ENCODING 8258
SWIDTH 1000 0
DWIDTH 24 0
BBX 16 18 4 0
BITMAP
0180
0180
0520
03C0
0340
0520
0180
0180
0000
0000
300C
B42D
EC3B
300C
681A
A429
300C
300C
ENDCHAR
STARTCHAR 2047
ENCODING 8263
SWIDTH 958 0
DWIDTH 23 0
BBX 21 17 1 0
BITMAP
1E07C0
618C70
40D030
C0D010
E0D818
C0D810
018030
030060
0600C0
0C0100
080100
080100
000000
000000
080300
1C0300
0C0300
ENDCHAR
STARTCHAR 2048
ENCODING 8264
SWIDTH 708 0
DWIDTH 17 0
BBX 14 17 1 0
BITMAP
1E08
618C
40CC
C0CC
E0CC
C0C8
0188
0308
0608
0C08
0808
0808
0000
0000
080C
1C1C
0C0C
ENDCHAR
STARTCHAR 2049
ENCODING 8265
SWIDTH 708 0
DWIDTH 17 0
BBX 14 17 2 0
BITMAP
43E0
4638
4C18
4C0C
4E0C
4C0C
4018
4030
4060
40C0
4080
4080
0000
0000
C180
E1C0
E180
ENDCHAR
STARTCHAR 2051
ENCODING 8273
SWIDTH 1000 0
DWIDTH 24 0
BBX 6 18 9 0
BITMAP
30
A4
68
30
EC
B4
30
00
00
00
00
30
A4
68
30
EC
B4
30
ENDCHAR
STARTCHAR 205A
ENCODING 8282
SWIDTH 1000 0
DWIDTH 24 0
BBX 4 15 10 2
BITMAP
60
F0
60
00
00
00
00
00
00
00
00
00
60
F0
60
ENDCHAR
STARTCHAR 205D
ENCODING 8285
SWIDTH 1000 0
DWIDTH 24 0
BBX 2 19 11 0
BITMAP
C0
C0
C0
00
00
00
00
00
C0
C0
C0
00
00
00
00
00
C0
C0
C0
ENDCHAR
STARTCHAR 20AC
ENCODING 8364
SWIDTH 625 0
DWIDTH 15 0
BBX 13 17 0 0
BITMAP
03E8
0E18
1808
1808
3000
3000
FFC0
3000
3000
FFC0
3000
3000
3000
1808
1808
0C10
03E0
ENDCHAR
STARTCHAR 2103
ENCODING 8451
SWIDTH 1000 0
DWIDTH 24 0
BBX 20 19 1 1
BITMAP
700000
880000
883F20
88C1E0
718060
030020
060020
060000
060000
060000
060000
060000
060000
060010
060010
030020
018040
00E080
003F00
ENDCHAR
STARTCHAR 210F
ENCODING 8463
SWIDTH 541 0
DWIDTH 13 0
BBX 11 18 1 0
BITMAP
0800
3800
1800
3F00
5000
1000
33C0
3440
2840
3040
70C0
60C0
6080
4180
4180
C1A0
C140
8180
ENDCHAR
STARTCHAR 2113
ENCODING 8467
SWIDTH 1000 0
DWIDTH 24 0
BBX 12 18 6 0
BITMAP
01C0
0340
0640
0460
0C40
0840
1840
10C0
1080
1100
3300
3200
3400
3810
3020
D040
1880
0F00
ENDCHAR
STARTCHAR 2116
ENCODING 8470
SWIDTH 1000 0
DWIDTH 24 0
BBX 22 17 1 1
BITMAP
E1E000
304000
304000
384000
284000
2C4780
2C44C0
244840
264860
224860
235860
215860
214860
21C860
20C840
20C4DC
F0479C
ENDCHAR
STARTCHAR 2121
ENCODING 8481
SWIDTH 1000 0
DWIDTH 24 0
BBX 22 17 1 1
BITMAP
FF8000
888000
888000
080000
08FDE0
0844C0
084040
084040
084040
084840
087840
084840
084040
084044
084444
0844CC
3EFDFC
ENDCHAR
STARTCHAR 2127
ENCODING 8487
SWIDTH 833 0
DWIDTH 20 0
BBX 18 17 1 0
BITMAP
7F3F80
7F3F80
421080
440840
880440
180200
300300
300300
300300
300180
300180
300300
300300
380300
180600
0E1C00
03F000
ENDCHAR
STARTCHAR 212B
ENCODING 8491
SWIDTH 1000 0
DWIDTH 24 0
BBX 18 19 3 1
BITMAP
00C000
012000
012000
00C000
00C000
00C000
014000
016000
022000
023000
023000
041800
041800
0FF800
080C00
180C00
100600
300600
FC1FC0
ENDCHAR
STARTCHAR 2135
ENCODING 8501
SWIDTH 708 0
DWIDTH 17 0
BBX 14 17 1 0
BITMAP
1010
2020
4010
6008
6014
3024
3C40
1E40
2780
61C0
60F0
2038
3018
3008
3008
3018
C010
ENDCHAR
STARTCHAR 2153
ENCODING 8531
SWIDTH 750 0
DWIDTH 18 0
BBX 15 17 2 1
BITMAP
E00C
2008
2010
2030
2020
2040
2080
F9BC
0146
0262
0602
040C
081C
1002
1062
2046
403C
ENDCHAR
STARTCHAR 2154
ENCODING 8532
SWIDTH 750 0
DWIDTH 18 0
BBX 16 17 1 1
BITMAP
7806
4404
C408
0418
0810
3020
4040
44C0
FC9C
0123
0331
0203
040C
0803
0831
1023
201E
ENDCHAR
STARTCHAR 2155
ENCODING 8533
SWIDTH 750 0
DWIDTH 18 0
BBX 15 17 2 1
BITMAP
E00C
2008
2010
2030
2020
2040
2080
2180
513E
0240
0640
047C
0846
1002
1062
2046
403C
ENDCHAR
STARTCHAR 2160
ENCODING 8544
SWIDTH 1000 0
DWIDTH 24 0
BBX 6 17 9 1
BITMAP
FC
30
30
30
30
30
30
30
30
30
30
30
30
30
30
30
FC
ENDCHAR
STARTCHAR 2161
ENCODING 8545
SWIDTH 1000 0
DWIDTH 24 0
BBX 14 17 5 1
BITMAP
FFFC
3030
3030
3030
3030
3030
3030
3030
3030
3030
3030
3030
3030
3030
3030
3030
FFFC
ENDCHAR
STARTCHAR 2162
ENCODING 8546
SWIDTH 1000 0
DWIDTH 24 0
BBX 20 17 2 1
BITMAP
FFFFF0
106080
106080
106080
106080
106080
106080
106080
106080
106080
106080
106080
106080
106080
106080
106080
FFFFF0
ENDCHAR
STARTCHAR 2163
ENCODING 8547
SWIDTH 1000 0
DWIDTH 24 0
BBX 21 17 2 1
BITMAP
FFF0F8
118020
10C020
10C040
10C040
106040
106080
102080
103080
103100
101100
101900
101A00
100A00
100E00
300C00
FE0400
ENDCHAR
STARTCHAR 2164
ENCODING 8548
SWIDTH 1000 0
DWIDTH 24 0
BBX 18 17 3 1
BITMAP
FE0FC0
300300
180200
180200
080400
0C0400
0C0400
060800
060800
031000
031000
031000
01A000
01A000
00C000
00C000
004000
ENDCHAR
STARTCHAR 2165
ENCODING 8549
SWIDTH 1000 0
DWIDTH 24 0
BBX 21 17 1 1
BITMAP
FC3FF8
300C40
300840
100840
180840
181040
081040
0C2040
0C2040
042040
064040
064040
024040
038040
038040
018040
0103F8
ENDCHAR
STARTCHAR 2166
ENCODING 8550
SWIDTH 1000 0
DWIDTH 24 0
BBX 22 17 1 1
BITMAP
F87FFC
601330
302330
302330
302330
102330
184330
184330
084330
0C8330
0C8330
048330
050330
070330
070330
020330
020FFC
ENDCHAR
STARTCHAR 2167
ENCODING 8551
SWIDTH 1000 0
DWIDTH 24 0
BBX 22 17 1 1
BITMAP
F8FFFC
602498
204498
304498
304498
308498
108498
188498
188498
090498
090498
0D0498
0D0498
060498
060498
060498
061FFC
ENDCHAR
STARTCHAR 2168
ENCODING 8552
SWIDTH 1000 0
DWIDTH 24 0
BBX 21 17 2 1
BITMAP
FFF9F0
3060C0
306080
303100
303100
301A00
301A00
300C00
300C00
300E00
301300
301300
302180
304180
3040C0
3080C0
FFF1F8
ENDCHAR
STARTCHAR 2169
ENCODING 8553
SWIDTH 1000 0
DWIDTH 24 0
BBX 18 17 3 1
BITMAP
FE1F80
180600
0C0C00
0E0800
061000
032000
01A000
00C000
00C000
016000
033000
021800
041800
080C00
100600
300700
FC1FC0
ENDCHAR
STARTCHAR 216A
ENCODING 8554
SWIDTH 1000 0
DWIDTH 24 0
BBX 20 17 2 1
BITMAP
FCFFF0
3020C0
1840C0
1840C0
0C80C0
0C80C0
0700C0
0300C0
0300C0
0580C0
0580C0
08C0C0
08C0C0
1060C0
2020C0
2030C0
F8FFF0
ENDCHAR
STARTCHAR 216B
ENCODING 8555
SWIDTH 1000 0
DWIDTH 24 0
BBX 22 17 1 1
BITMAP
FCFFFC
302330
184330
184330
0C8330
048330
070330
030330
030330
058330
058330
08C330
08C330
106330
206330
203330
F8FFFC
ENDCHAR
STARTCHAR 2170
ENCODING 8560
SWIDTH 1000 0
DWIDTH 24 0
BBX 6 18 9 1
BITMAP
20
30
30
00
00
00
10
70
30
30
30
30
30
30
30
30
30
FC
ENDCHAR
STARTCHAR 2171
ENCODING 8561
SWIDTH 1000 0
DWIDTH 24 0
BBX 13 18 6 1
BITMAP
2040
6060
6060
0000
0000
0000
2060
E0E0
2060
2060
2060
2060
2060
2060
2060
2060
6060
F9F8
ENDCHAR
STARTCHAR 2172
ENCODING 8562
SWIDTH 1000 0
DWIDTH 24 0
BBX 18 18 3 1
BITMAP
208200
30C300
30C300
000000
000000
000000
104100
71C700
30C300
30C300
30C300
30C300
30C300
30C300
30C300
30C300
30C300
FFFFC0
ENDCHAR
STARTCHAR 2173
ENCODING 8563
SWIDTH 1000 0
DWIDTH 24 0
BBX 17 18 4 1
BITMAP
600000
700000
600000
000000
000000
000000
E7C780
630100
218100
218200
208200
20C400
204400
206800
206800
202800
203000
F81000
ENDCHAR
STARTCHAR 2174
ENCODING 8564
SWIDTH 1000 0
DWIDTH 24 0
BBX 14 11 5 1
BITMAP
F87C
3010
1020
1820
1820
0C40
0C40
0480
0680
0300
0300
ENDCHAR
STARTCHAR 2175
ENCODING 8565
SWIDTH 1000 0
DWIDTH 24 0
BBX 19 18 2 1
BITMAP
000180
000180
000180
000000
000000
000000
FCFF80
303180
102180
182180
184180
084180
0C8180
0C8180
048180
070180
030180
0207E0
ENDCHAR
STARTCHAR 2176
ENCODING 8566
SWIDTH 1000 0
DWIDTH 24 0
BBX 22 18 1 1
BITMAP
000230
000730
000630
000000
000000
000000
FCFEF0
302230
102230
184230
184230
084230
0C8230
0C8230
050230
070230
030230
020FFC
ENDCHAR
STARTCHAR 2177
ENCODING 8567
SWIDTH 1000 0
DWIDTH 24 0
BBX 22 17 1 1
BITMAP
001DB8
001DB8
000000
000000
000000
F9FBF0
206990
304990
304990
108990
188990
190990
090990
0D0990
060990
060990
063FFC
ENDCHAR
STARTCHAR 2178
ENCODING 8568
SWIDTH 1000 0
DWIDTH 24 0
BBX 18 18 4 1
BITMAP
600000
700000
600000
000000
000000
000000
E3EF80
60C200
204400
206800
202800
203000
203800
204C00
204400
208600
210300
FFCFC0
ENDCHAR
STARTCHAR 2179
ENCODING 8569
SWIDTH 1000 0
DWIDTH 24 0
BBX 14 12 5 1
BITMAP
FCF8
1020
1840
0C80
0700
0300
0780
0480
08C0
1060
2030
F8FC
ENDCHAR
STARTCHAR 217A
ENCODING 8570
SWIDTH 1000 0
DWIDTH 24 0
BBX 19 18 2 1
BITMAP
000180
000180
000180
000000
000000
000000
7CF780
184180
0C4180
048180
070180
030180
030180
058180
08C180
104180
306180
F8FFE0
ENDCHAR
STARTCHAR 217B
ENCODING 8571
SWIDTH 1000 0
DWIDTH 24 0
BBX 22 18 1 1
BITMAP
000230
000730
000630
000000
000000
000000
7CFEF0
184230
088230
048230
070230
030230
050230
058230
08C230
104230
206230
F9FFFC
ENDCHAR
STARTCHAR 2190
ENCODING 8592
SWIDTH 1000 0
DWIDTH 24 0
BBX 21 9 1 5
BITMAP
060000
0C0000
180000
200000
FFFFF8
200000
180000
0C0000
060000
ENDCHAR
STARTCHAR 2191
ENCODING 8593
SWIDTH 1000 0
DWIDTH 24 0
BBX 8 20 8 0
BITMAP
18
3C
7E
DB
99
99
18
18
18
18
18
18
18
18
18
18
18
18
18
18
ENDCHAR
STARTCHAR 2192
ENCODING 8594
SWIDTH 1000 0
DWIDTH 24 0
BBX 21 9 2 5
BITMAP
000300
000180
0000C0
000020
FFFFF8
000020
0000C0
000180
000300
ENDCHAR
STARTCHAR 2193
ENCODING 8595
SWIDTH 1000 0
DWIDTH 24 0
BBX 8 21 8 -2
BITMAP
18
18
18
18
18
18
18
18
18
18
18
18
18
18
18
99
99
5A
7E
3C
18
ENDCHAR
STARTCHAR 2194
ENCODING 8596
SWIDTH 750 0
DWIDTH 18 0
BBX 15 10 1 3
BITMAP
0820
0810
1018
300C
6006
FFFE
6006
300C
1818
0C30
ENDCHAR
STARTCHAR 2196
ENCODING 8598
SWIDTH 1000 0
DWIDTH 24 0
BBX 17 16 4 2
BITMAP
FE0000
E00000
B00000
980000
8C0000
860000
430000
018000
00C000
006000
003000
001800
000C00
000600
000300
000180
ENDCHAR
STARTCHAR 2197
ENCODING 8599
SWIDTH 1000 0
DWIDTH 24 0
BBX 17 16 3 2
BITMAP
003F80
000380
000680
000C80
001880
003080
006100
00C000
018000
030000
060000
0C0000
180000
300000
600000
C00000
ENDCHAR
STARTCHAR 2198
ENCODING 8600
SWIDTH 1000 0
DWIDTH 24 0
BBX 16 16 4 2
BITMAP
8000
4000
2000
1000
0800
0400
0200
0100
0080
0042
0021
0011
0009
0005
0043
003F
ENDCHAR
STARTCHAR 2199
ENCODING 8601
SWIDTH 1000 0
DWIDTH 24 0
BBX 16 16 4 2
BITMAP
0001
0002
0004
0008
0010
0020
0040
0080
0100
4200
8400
8800
9000
A000
C200
FC00
ENDCHAR
STARTCHAR 21C4
ENCODING 8644
SWIDTH 1000 0
DWIDTH 24 0
BBX 22 18 1 0
BITMAP
000180
0000C0
000060
000010
7FFFFC
000010
000060
0000C0
000100
000000
0E0000
180000
200000
FFFFF8
200000
180000
0C0000
060000
ENDCHAR
STARTCHAR 21D2
ENCODING 8658
SWIDTH 750 0
DWIDTH 18 0
BBX 14 11 2 2
BITMAP
0040
0020
0030
FFF8
000C
0004
000C
FFF8
0030
0060
0040
ENDCHAR
STARTCHAR 21D4
ENCODING 8660
SWIDTH 750 0
DWIDTH 18 0
BBX 15 11 1 2
BITMAP
0C20
0810
1018
3FFC
6006
C002
6006
3FFC
1018
0830
0420
ENDCHAR
STARTCHAR 21E6
ENCODING 8678
SWIDTH 1000 0
DWIDTH 24 0
BBX 18 8 3 5
BITMAP
040000
1C0000
240000
C3FFC0
800040
67FF80
140000
0C0000
ENDCHAR
STARTCHAR 21E7
ENCODING 8679
SWIDTH 1000 0
DWIDTH 24 0
BBX 8 19 8 0
BITMAP
10
18
28
44
42
82
E7
28
28
28
28
28
28
28
28
28
28
28
38
ENDCHAR
STARTCHAR 21E8
ENCODING 8680
SWIDTH 1000 0
DWIDTH 24 0
BBX 18 8 3 5
BITMAP
000800
000E00
000900
FFF0C0
800040
7FF980
000A00
000C00
ENDCHAR
STARTCHAR 21E9
ENCODING 8681
SWIDTH 1000 0
DWIDTH 24 0
BBX 8 18 8 -1
BITMAP
38
28
28
28
28
28
28
28
28
28
28
28
E7
82
42
64
28
18
ENDCHAR
STARTCHAR 2200
ENCODING 8704
SWIDTH 750 0
DWIDTH 18 0
BBX 16 17 1 0
BITMAP
8003
C002
4002
6004
2004
2008
1FF8
1018
0810
0830
0420
0460
0240
02C0
0180
0180
0100
ENDCHAR
STARTCHAR 2202
ENCODING 8706
SWIDTH 583 0
DWIDTH 14 0
BBX 11 18 1 0
BITMAP
0780
08C0
1060
0060
0020
0020
0020
1E20
31A0
6060
6060
4060
C060
C0C0
C0C0
6180
6300
1E00
ENDCHAR
STARTCHAR 2203
ENCODING 8707
SWIDTH 750 0
DWIDTH 18 0
BBX 12 17 2 0
BITMAP
FFF0
0010
0010
0010
0010
0010
0010
0010
FFF0
0010
0010
0010
0010
0010
0010
0010
FFF0
ENDCHAR
STARTCHAR 2205
ENCODING 8709
SWIDTH 791 0
DWIDTH 19 0
BBX 15 16 2 1
BITMAP
07C0
1834
2018
401C
C024
8042
8082
8102
8202
8402
8802
5004
600C
7018
9830
07C0
ENDCHAR
STARTCHAR 2207
ENCODING 8711
SWIDTH 750 0
DWIDTH 18 0
BBX 16 17 1 0
BITMAP
FFFF
7FFE
6002
2004
3004
3008
1808
1810
0C10
0C20
0620
0660
0340
03C0
0180
0180
0100
ENDCHAR
STARTCHAR 2208
ENCODING 8712
SWIDTH 666 0
DWIDTH 16 0
BBX 13 12 2 2
BITMAP
1FF8
3000
4000
8000
8000
8000
FFF8
8000
8000
C000
6000
1FF8
ENDCHAR
STARTCHAR 2209
ENCODING 8713
SWIDTH 666 0
DWIDTH 16 0
BBX 13 16 2 0
BITMAP
0040
00C0
1FF8
3080
4180
8100
8100
8300
FFF8
8600
8400
C400
6800
1FF8
1800
1000
ENDCHAR
STARTCHAR 220B
ENCODING 8715
SWIDTH 666 0
DWIDTH 16 0
BBX 13 12 2 2
BITMAP
FF80
00E0
0030
0010
0010
0018
FFF8
0018
0010
0030
0060
FF80
ENDCHAR
STARTCHAR 2212
ENCODING 8722
SWIDTH 666 0
DWIDTH 16 0
BBX 13 1 2 7
BITMAP
FFF8
ENDCHAR
STARTCHAR 2213
ENCODING 8723
SWIDTH 666 0
DWIDTH 16 0
BBX 13 13 2 1
BITMAP
FFF8
0000
0200
0200
0200
0200
0200
FFF8
0200
0200
0200
0200
0200
ENDCHAR
STARTCHAR 2219
ENCODING 8729
SWIDTH 250 0
DWIDTH 6 0
BBX 2 3 2 6
BITMAP
C0
C0
C0
ENDCHAR
STARTCHAR 221A
ENCODING 8730
SWIDTH 541 0
DWIDTH 13 0
BBX 12 22 1 -1
BITMAP
0010
0030
0020
0020
0040
0040
0040
0080
0080
0080
0100
0100
4100
6200
6200
A600
B400
1400
1C00
1800
0800
1000
ENDCHAR
STARTCHAR 221D
ENCODING 8733
SWIDTH 666 0
DWIDTH 16 0
BBX 12 8 2 4
BITMAP
3870
4480
8380
8300
8300
8380
4480
3870
ENDCHAR
STARTCHAR 221E
ENCODING 8734
SWIDTH 666 0
DWIDTH 16 0
BBX 14 8 1 4
BITMAP
3870
44C8
8684
8304
8304
8384
4488
3870
ENDCHAR
STARTCHAR 221F
ENCODING 8735
SWIDTH 666 0
DWIDTH 16 0
BBX 13 14 2 1
BITMAP
8000
8000
8000
8000
8000
8000
8000
8000
8000
8000
8000
8000
8000
FFF8
ENDCHAR
STARTCHAR 2220
ENCODING 8736
SWIDTH 666 0
DWIDTH 16 0
BBX 14 14 1 2
BITMAP
0180
0100
0300
0200
0600
0400
0800
0800
1000
3000
2000
6000
4000
FFFC
ENDCHAR
STARTCHAR 2225
ENCODING 8741
SWIDTH 666 0
DWIDTH 16 0
BBX 11 22 3 -2
BITMAP
0220
0220
0240
0440
04C0
0480
0880
0980
0900
1100
1300
1200
2200
2600
2400
4400
4C00
4800
8800
9000
9000
1000
ENDCHAR
STARTCHAR 2226
ENCODING 8742
SWIDTH 666 0
DWIDTH 16 0
BBX 11 21 3 -1
BITMAP
0220
0260
0240
0440
04C0
8480
4880
6980
3900
1900
1E00
1600
2300
2500
2480
4440
4820
4800
8800
9000
9000
ENDCHAR
STARTCHAR 2227
ENCODING 8743
SWIDTH 666 0
DWIDTH 16 0
BBX 12 12 2 2
BITMAP
0600
0700
0900
0980
1080
1080
3040
2040
6020
4020
C010
8010
ENDCHAR
STARTCHAR 2228
ENCODING 8744
SWIDTH 666 0
DWIDTH 16 0
BBX 13 13 2 1
BITMAP
8018
8010
4030
4020
2060
2040
10C0
1080
0980
0900
0500
0600
0600
ENDCHAR
STARTCHAR 2229
ENCODING 8745
SWIDTH 666 0
DWIDTH 16 0
BBX 12 14 2 1
BITMAP
0F80
30C0
6020
4020
4030
C010
C010
C010
C010
C010
C010
C010
C010
C010
ENDCHAR
STARTCHAR 222A
ENCODING 8746
SWIDTH 666 0
DWIDTH 16 0
BBX 12 14 2 0
BITMAP
C010
C010
C010
C010
C010
C010
C010
C010
C010
4030
4020
6060
30C0
0F80
ENDCHAR
STARTCHAR 222B
ENCODING 8747
SWIDTH 583 0
DWIDTH 14 0
BBX 12 21 1 -4
BITMAP
00E0
0130
0330
0200
0200
0200
0600
0600
0600
0600
0600
0600
0600
0400
0400
0400
0400
0C00
C800
8800
7000
ENDCHAR
STARTCHAR 222C
ENCODING 8748
SWIDTH 875 0
DWIDTH 21 0
BBX 20 21 1 -4
BITMAP
00E1E0
013330
033230
020200
020600
020600
060600
060400
060400
060400
060400
060400
060400
040400
040C00
040C00
040C00
0C0800
C98800
899800
70F000
ENDCHAR
STARTCHAR 222E
ENCODING 8750
SWIDTH 583 0
DWIDTH 14 0
BBX 12 21 1 -4
BITMAP
00E0
0130
0330
0200
0200
0600
0600
0F00
1680
2680
2680
2680
1D00
0600
0400
0400
0400
0C00
C800
8800
7000
ENDCHAR
STARTCHAR 2234
ENCODING 8756
SWIDTH 666 0
DWIDTH 16 0
BBX 13 11 2 2
BITMAP
0600
0700
0600
0000
0000
0000
0000
0000
C030
E078
C030
ENDCHAR
STARTCHAR 2235
ENCODING 8757
SWIDTH 666 0
DWIDTH 16 0
BBX 13 11 2 2
BITMAP
C030
E078
C030
0000
0000
0000
0000
0000
0600
0700
0600
ENDCHAR
STARTCHAR 223C
ENCODING 8764
SWIDTH 500 0
DWIDTH 12 0
BBX 6 3 3 14
BITMAP
60
94
0C
ENDCHAR
STARTCHAR 223D
ENCODING 8765
SWIDTH 666 0
DWIDTH 16 0
BBX 14 8 1 4
BITMAP
0070
30C8
4184
8104
8304
8204
4408
3830
ENDCHAR
STARTCHAR 2243
ENCODING 8771
SWIDTH 666 0
DWIDTH 16 0
BBX 14 7 1 4
BITMAP
3C00
6308
40F0
0000
0000
0000
FFFC
ENDCHAR
STARTCHAR 2245
ENCODING 8773
SWIDTH 666 0
DWIDTH 16 0
BBX 14 9 1 3
BITMAP
3C04
4388
40F0
0000
0000
FFFC
0000
0000
FFFC
ENDCHAR
STARTCHAR 2248
ENCODING 8776
SWIDTH 666 0
DWIDTH 16 0
BBX 13 7 2 4
BITMAP
7808
8710
81E0
0000
7800
CF10
83E0
ENDCHAR
STARTCHAR 2252
ENCODING 8786
SWIDTH 666 0
DWIDTH 16 0
BBX 13 15 2 0
BITMAP
6000
7000
6000
0000
0000
FFF8
0000
0000
0000
FFF8
0000
0000
0060
00F0
0060
ENDCHAR
STARTCHAR 2260
ENCODING 8800
SWIDTH 666 0
DWIDTH 16 0
BBX 13 13 2 0
BITMAP
0080
0180
0100
0100
FFF8
0200
0200
0400
FFF8
0C00
0800
0800
1800
ENDCHAR
STARTCHAR 2261
ENCODING 8801
SWIDTH 666 0
DWIDTH 16 0
BBX 13 9 2 3
BITMAP
FFF8
0000
0000
0000
FFF8
0000
0000
0000
FFF8
ENDCHAR
STARTCHAR 2262
ENCODING 8802
SWIDTH 666 0
DWIDTH 16 0
BBX 13 14 2 0
BITMAP
0080
0080
0100
FFF8
0300
0200
0200
FFF8
0400
0400
0400
FFF8
0800
1800
ENDCHAR
STARTCHAR 2266
ENCODING 8806
SWIDTH 666 0
DWIDTH 16 0
BBX 13 14 2 2
BITMAP
0078
03C0
1C00
E000
C000
3800
0700
00F0
0018
0000
FFF8
0000
0000
FFF8
ENDCHAR
STARTCHAR 2267
ENCODING 8807
SWIDTH 666 0
DWIDTH 16 0
BBX 14 14 1 2
BITMAP
F000
0E00
01C0
0038
001C
00E0
0700
3800
4000
0000
7FFC
0000
0000
7FFC
ENDCHAR
STARTCHAR 226A
ENCODING 8810
SWIDTH 666 0
DWIDTH 16 0
BBX 14 13 1 1
BITMAP
008C
0318
0630
08C0
3180
6300
C600
6300
1180
0C60
0630
0118
0084
ENDCHAR
STARTCHAR 226B
ENCODING 8811
SWIDTH 666 0
DWIDTH 16 0
BBX 13 13 2 1
BITMAP
8C00
C600
2100
18C0
0C60
0210
0118
0630
0C60
1080
6300
C600
8000
ENDCHAR
STARTCHAR 2276
ENCODING 8822
SWIDTH 666 0
DWIDTH 16 0
BBX 14 15 1 0
BITMAP
000C
00F0
0700
3800
6000
1C00
03C0
C03C
3C04
0380
0070
000C
00F0
0F00
7800
ENDCHAR
STARTCHAR 2277
ENCODING 8823
SWIDTH 666 0
DWIDTH 16 0
BBX 14 16 1 0
BITMAP
E000
3C00
0380
0078
001C
00E0
0F00
780C
0070
0780
3800
6000
1C00
03C0
0038
0004
ENDCHAR
STARTCHAR 2282
ENCODING 8834
SWIDTH 666 0
DWIDTH 16 0
BBX 13 12 2 2
BITMAP
1FF8
3000
4000
8000
8000
8000
8000
8000
8000
C000
6000
1FF8
ENDCHAR
STARTCHAR 2283
ENCODING 8835
SWIDTH 666 0
DWIDTH 16 0
BBX 13 12 2 2
BITMAP
FF80
0060
0030
0010
0010
0018
0018
0018
0010
0030
0060
FF80
ENDCHAR
STARTCHAR 2284
ENCODING 8836
SWIDTH 666 0
DWIDTH 16 0
BBX 13 16 2 0
BITMAP
0020
0040
1FF8
30C0
4080
8080
8100
8100
8300
8200
8200
C600
6400
1FF8
0800
0800
ENDCHAR
STARTCHAR 2285
ENCODING 8837
SWIDTH 666 0
DWIDTH 16 0
BBX 13 16 2 0
BITMAP
0180
0100
FF80
0260
0230
0610
0418
0418
0818
0818
1810
1030
1060
FF80
2000
6000
ENDCHAR
STARTCHAR 2286
ENCODING 8838
SWIDTH 666 0
DWIDTH 16 0
BBX 13 15 2 1
BITMAP
3FF8
6000
C000
8000
8000
8000
8000
8000
C000
6000
3FF8
0000
0000
0000
FFF8
ENDCHAR
STARTCHAR 2287
ENCODING 8839
SWIDTH 666 0
DWIDTH 16 0
BBX 13 15 2 1
BITMAP
FFC0
0060
0010
0010
0018
0008
0018
0010
0010
0060
FFC0
0000
0000
0000
FFF8
ENDCHAR
STARTCHAR 228A
ENCODING 8842
SWIDTH 666 0
DWIDTH 16 0
BBX 13 16 2 0
BITMAP
1FF8
6000
C000
8000
8000
8000
8000
8000
C000
6000
3FF8
0000
0300
FFF8
0400
0400
ENDCHAR
STARTCHAR 228B
ENCODING 8843
SWIDTH 666 0
DWIDTH 16 0
BBX 13 16 2 0
BITMAP
FFC0
0060
0010
0010
0018
0008
0018
0010
0010
0020
FFC0
0000
0300
FFF8
0400
0C00
ENDCHAR
STARTCHAR 2295
ENCODING 8853
SWIDTH 875 0
DWIDTH 21 0
BBX 18 17 1 0
BITMAP
03F000
0E0C00
184200
204100
604080
404040
404040
804040
9FFE40
804040
404040
404040
604080
204180
104300
0C0E00
03F000
ENDCHAR
STARTCHAR 2296
ENCODING 8854
SWIDTH 875 0
DWIDTH 21 0
BBX 18 17 1 0
BITMAP
03F000
0E0C00
180200
200100
600080
400040
400040
800040
9FFE40
800040
400040
400040
600080
200180
100300
0C0E00
03F000
ENDCHAR
STARTCHAR 2297
ENCODING 8855
SWIDTH 875 0
DWIDTH 21 0
BBX 18 17 1 0
BITMAP
03F000
0E0C00
180200
200500
640C80
421840
413040
80E040
80C040
81A040
431040
4608C0
6C0480
200180
100300
0C0E00
03F000
ENDCHAR
STARTCHAR 22A5
ENCODING 8869
SWIDTH 666 0
DWIDTH 16 0
BBX 14 14 1 1
BITMAP
0100
0100
0100
0100
0100
0100
0100
0100
0100
0100
0100
0100
0100
FFFC
ENDCHAR
STARTCHAR 22BF
ENCODING 8895
SWIDTH 666 0
DWIDTH 16 0
BBX 14 14 1 2
BITMAP
0004
000C
001C
0034
0064
00C4
0184
0304
0604
0C04
1804
3004
6004
FFFC
ENDCHAR
STARTCHAR 22DA
ENCODING 8922
SWIDTH 666 0
DWIDTH 16 0
BBX 13 17 2 0
BITMAP
0018
01F0
3E00
C000
7800
07C0
0038
0000
FFF8
0000
C000
3E00
01E0
0018
03E0
7C00
8000
ENDCHAR
STARTCHAR 22DB
ENCODING 8923
SWIDTH 666 0
DWIDTH 16 0
BBX 13 17 2 0
BITMAP
8000
7C00
03C0
0038
01F0
3E00
C000
0000
FFF8
0000
0038
03E0
7C00
8000
7C00
03E0
0018
ENDCHAR
STARTCHAR 2305
ENCODING 8965
SWIDTH 666 0
DWIDTH 16 0
BBX 14 10 1 2
BITMAP
FFFC
0300
0380
0480
0480
0C40
0840
1860
1020
1030
ENDCHAR
STARTCHAR 2306
ENCODING 8966
SWIDTH 666 0
DWIDTH 16 0
BBX 14 14 1 0
BITMAP
FFFC
0000
0000
FFFC
0300
0380
0680
0480
0C40
0840
0860
1020
1030
1000
ENDCHAR
STARTCHAR 2312
ENCODING 8978
SWIDTH 1000 0
DWIDTH 24 0
BBX 22 5 1 14
BITMAP
01FE00
1E01C0
300030
C0000C
800004
ENDCHAR
STARTCHAR 2318
ENCODING 8984
SWIDTH 1000 0
DWIDTH 24 0
BBX 22 22 1 -2
BITMAP
380070
440088
840084
820104
820104
420108
3FFFF0
020100
020100
020100
020100
020100
020100
020100
020100
3FFFF0
420108
820104
820104
840084
440088
380070
ENDCHAR
STARTCHAR 23BE
ENCODING 9150
SWIDTH 1000 0
DWIDTH 24 0
BBX 12 24 12 -3
BITMAP
FFF0
8000
8000
8000
8000
8000
8000
8000
8000
8000
8000
8000
8000
8000
8000
8000
8000
8000
8000
8000
8000
8000
8000
8000
ENDCHAR
STARTCHAR 23BF
ENCODING 9151
SWIDTH 1000 0
DWIDTH 24 0
BBX 12 24 12 -3
BITMAP
8000
8000
8000
8000
8000
8000
8000
8000
8000
8000
8000
8000
8000
8000
8000
8000
8000
8000
8000
8000
8000
8000
8000
FFF0
ENDCHAR
STARTCHAR 23C0
ENCODING 9152
SWIDTH 1000 0
DWIDTH 24 0
BBX 18 23 3 -3
BITMAP
008000
008000
008000
07F800
0C8400
308200
208100
408080
808080
808040
808040
808040
808040
808040
808040
408080
408080
208100
108200
0C8C00
03F000
008000
008000
ENDCHAR
STARTCHAR 23C1
ENCODING 9153
SWIDTH 1000 0
DWIDTH 24 0
BBX 24 24 0 -3
BITMAP
FFFFFF
001000
001000
007E00
019180
021040
041020
081010
081010
101008
101008
101008
101008
101008
101008
081010
081010
041020
021040
019180
007F00
001000
001000
001000
ENDCHAR
STARTCHAR 23C2
ENCODING 9154
SWIDTH 1000 0
DWIDTH 24 0
BBX 24 24 0 -3
BITMAP
001000
001000
001000
007E00
019180
021040
041020
081010
081010
101008
101008
101008
101008
101008
101008
081010
081010
041020
021040
019180
007E00
001000
001000
FFFFFF
ENDCHAR
STARTCHAR 23C3
ENCODING 9155
SWIDTH 1000 0
DWIDTH 24 0
BBX 20 24 2 -3
BITMAP
002000
002000
002000
006000
006000
00B000
00B000
012800
032C00
022400
042200
042200
082100
182180
102080
202040
202040
402020
402020
FFFFF0
002000
002000
002000
002000
ENDCHAR
STARTCHAR 23C4
ENCODING 9156
SWIDTH 1000 0
DWIDTH 24 0
BBX 24 23 0 -3
BITMAP
FFFFFF
001000
001000
001800
001800
003400
003400
005200
00D300
009100
011080
011080
021040
021040
041020
081010
081010
101008
101008
3FFFFC
001000
001000
001000
ENDCHAR
STARTCHAR 23C5
ENCODING 9157
SWIDTH 1000 0
DWIDTH 24 0
BBX 24 24 0 -3
BITMAP
001000
001000
001000
001800
001800
003400
003400
005200
00D300
009100
011080
011080
021040
061060
041020
081010
081010
101008
101008
3FFFFC
001000
001000
001000
FFFFFF
ENDCHAR
STARTCHAR 23C6
ENCODING 9158
SWIDTH 1000 0
DWIDTH 24 0
BBX 20 23 2 -3
BITMAP
004000
004000
004000
004000
004000
004000
004000
004000
004000
3E4000
C3C000
00C000
003000
004C30
0043C0
004000
004000
004000
004000
004000
004000
004000
004000
ENDCHAR
STARTCHAR 23C7
ENCODING 9159
SWIDTH 1000 0
DWIDTH 24 0
BBX 24 24 0 -3
BITMAP
FFFFFF
001000
001000
001000
001000
001000
001000
001000
001000
0F1000
30D000
003000
000C00
00170C
0011F0
001000
001000
001000
001000
001000
001000
001000
001000
001000
ENDCHAR
STARTCHAR 23C8
ENCODING 9160
SWIDTH 1000 0
DWIDTH 24 0
BBX 24 24 0 -3
BITMAP
001000
001000
001000
001000
001000
001000
001000
001000
001000
0F9000
30F000
003000
000C00
00170C
0011F0
001000
001000
001000
001000
001000
001000
001000
001000
FFFFFF
ENDCHAR
STARTCHAR 23C9
ENCODING 9161
SWIDTH 1000 0
DWIDTH 24 0
BBX 24 24 0 -3
BITMAP
FFFFFF
001000
001000
001000
001000
001000
001000
001000
001000
001000
001000
001000
001000
001000
001000
001000
001000
001000
001000
001000
001000
001000
001000
001000
ENDCHAR
STARTCHAR 23CA
ENCODING 9162
SWIDTH 1000 0
DWIDTH 24 0
BBX 24 24 0 -3
BITMAP
001000
001000
001000
001000
001000
001000
001000
001000
001000
001000
001000
001000
001000
001000
001000
001000
001000
001000
001000
001000
001000
001000
001000
FFFFFF
ENDCHAR
STARTCHAR 23CB
ENCODING 9163
SWIDTH 1000 0
DWIDTH 24 0
BBX 12 24 0 -3
BITMAP
FFF0
0010
0010
0010
0010
0010
0010
0010
0010
0010
0010
0010
0010
0010
0010
0010
0010
0010
0010
0010
0010
0010
0010
0010
ENDCHAR
STARTCHAR 23CC
ENCODING 9164
SWIDTH 1000 0
DWIDTH 24 0
BBX 12 24 0 -3
BITMAP
0010
0010
0010
0010
0010
0010
0010
0010
0010
0010
0010
0010
0010
0010
0010
0010
0010
0010
0010
0010
0010
0010
0010
FFF0
ENDCHAR
STARTCHAR 23CE
ENCODING 9166
SWIDTH 1000 0
DWIDTH 24 0
BBX 21 20 1 -2
BITMAP
0007F8
000408
000408
000408
000408
000408
000408
010408
030408
050408
19FC08
300008
600010
C00010
600010
100020
09FFC0
050000
030000
010000
ENDCHAR
STARTCHAR 2423
ENCODING 9251
SWIDTH 1000 0
DWIDTH 24 0
BBX 18 5 3 0
BITMAP
800040
800040
800040
800040
FFFFC0
ENDCHAR
STARTCHAR 2460
ENCODING 9312
SWIDTH 1000 0
DWIDTH 24 0
BBX 22 22 1 -2
BITMAP
00FC00
030300
0C00C0
100020
20F010
403010
403008
803008
803004
803004
803004
803004
803004
803004
403008
403008
203010
20FC10
100020
0C00C0
030300
00FC00
ENDCHAR
STARTCHAR 2461
ENCODING 9313
SWIDTH 1000 0
DWIDTH 24 0
BBX 22 22 1 -2
BITMAP
00FC00
030300
0C0080
100060
207810
218610
410208
438308
818204
800604
800404
800804
801004
802004
804108
408108
410110
23FF10
100020
0C00C0
030300
00FC00
ENDCHAR
STARTCHAR 2462
ENCODING 9314
SWIDTH 1000 0
DWIDTH 24 0
BBX 22 22 1 -2
BITMAP
00FC00
030300
0C00C0
107820
208610
410210
418308
818308
800204
800404
807804
800E04
800304
800304
430308
430308
210610
20FC10
100020
0C00C0
030300
00FC00
ENDCHAR
STARTCHAR 2463
ENCODING 9315
SWIDTH 1000 0
DWIDTH 24 0
BBX 22 22 1 -2
BITMAP
00FC00
030300
0C00C0
100020
201810
201810
402808
804808
808804
808804
810804
820804
840804
87FF04
400808
400808
200810
203E10
100020
0C00C0
030300
00FC00
ENDCHAR
STARTCHAR 2464
ENCODING 9316
SWIDTH 1000 0
DWIDTH 24 0
BBX 22 22 1 -2
BITMAP
00FC00
030300
040080
180060
21FE20
210010
410008
410008
810008
817C04
818604
800304
800304
800304
430308
430208
210610
20F810
100020
0C00C0
030300
00FC00
ENDCHAR
STARTCHAR 2465
ENCODING 9317
SWIDTH 1000 0
DWIDTH 24 0
BBX 22 22 1 -2
BITMAP
00FC00
030300
0C00C0
103C20
20C610
408610
418608
810008
830004
837C04
838604
830204
830304
830304
410308
418208
20C610
207810
100020
0C00C0
030300
00FC00
ENDCHAR
STARTCHAR 2466
ENCODING 9318
SWIDTH 1000 0
DWIDTH 24 0
BBX 22 22 1 -2
BITMAP
00FC00
030300
0C00C0
100020
21FF10
210210
410208
820408
800404
800804
800804
801804
801004
801004
403008
403008
203010
203030
180060
0C00C0
030300
00FC00
ENDCHAR
STARTCHAR 2467
ENCODING 9319
SWIDTH 1000 0
DWIDTH 24 0
BBX 22 22 1 -2
BITMAP
00FC00
030300
0C00C0
107820
218610
410210
410208
810208
818604
80CC04
803004
80CC04
810604
820304
420308
420308
210210
20FC10
100020
0C00C0
030300
00FC00
ENDCHAR
STARTCHAR 2468
ENCODING 9320
SWIDTH 1000 0
DWIDTH 24 0
BBX 22 22 1 -2
BITMAP
00FC00
030300
0C00C0
107820
20C410
418610
410208
830308
830304
830304
810304
818704
807B04
800304
418208
418608
218C10
20F810
100020
0C00C0
030300
00FC00
ENDCHAR
STARTCHAR 2469
ENCODING 9321
SWIDTH 1000 0
DWIDTH 24 0
BBX 22 22 1 -2
BITMAP
00FC00
030300
0C00C0
100020
230F10
270990
431088
431088
8330C4
8330C4
8330C4
8330C4
8330C4
8310C4
831088
431088
230990
2F8F10
100020
0C00C0
030300
00FC00
ENDCHAR
STARTCHAR 246A
ENCODING 9322
SWIDTH 1000 0
DWIDTH 24 0
BBX 22 22 1 -2
BITMAP
00FC00
030300
0C00C0
100020
230310
270710
430308
430308
830304
830304
830304
830304
830304
830304
830308
430308
230310
2F87D0
100020
0C00C0
030300
00FC00
ENDCHAR
STARTCHAR 246B
ENCODING 9323
SWIDTH 1000 0
DWIDTH 24 0
BBX 22 22 1 -2
BITMAP
00FC00
030300
040080
180040
110F20
2F1190
433088
431888
830088
830184
830104
830304
830204
830404
830848
431048
4310D0
27BFD0
100020
0C00C0
030300
00FC00
ENDCHAR
STARTCHAR 246C
ENCODING 9324
SWIDTH 1000 0
DWIDTH 24 0
BBX 22 22 1 -2
BITMAP
00FC00
030300
0C00C0
100020
230F10
271190
433088
431088
830084
830184
830E04
830104
830084
8300C4
8330C8
433088
231190
2F8F10
100020
0C00C0
030300
00FC00
ENDCHAR
STARTCHAR 246D
ENCODING 9325
SWIDTH 1000 0
DWIDTH 24 0
BBX 22 22 1 -2
BITMAP
00FC00
030300
0C00C0
100020
270310
230310
430708
830708
830B04
831304
831304
832304
832304
837FC4
430308
430308
230310
2F8790
100020
0C00C0
030300
00FC00
ENDCHAR
STARTCHAR 246E
ENCODING 9326
SWIDTH 1000 0
DWIDTH 24 0
BBX 22 22 1 -2
BITMAP
00FC00
030300
0C00C0
100020
2E1F90
221010
421008
821008
821004
821F04
821184
8200C4
8200C4
8200C4
8230C8
423088
231190
2F8F10
100020
0C00C0
030300
00FC00
ENDCHAR
STARTCHAR 246F
ENCODING 9327
SWIDTH 1000 0
DWIDTH 24 0
BBX 22 22 1 -2
BITMAP
00FC00
030300
0C00C0
100020
220710
260890
421988
421008
821004
823704
823984
8230C4
8230C4
8230C4
8230C8
421088
231990
2F8F10
100020
0C00C0
030300
00FC00
ENDCHAR
STARTCHAR 2470
ENCODING 9328
SWIDTH 1000 0
DWIDTH 24 0
BBX 22 22 1 -2
BITMAP
00FC00
030300
0C00C0
100020
273FD0
233090
432088
832108
830104
830104
830204
830204
830204
830604
830608
430608
230610
2F8410
100020
0C00C0
030300
00FC00
ENDCHAR
STARTCHAR 2471
ENCODING 9329
SWIDTH 1000 0
DWIDTH 24 0
BBX 22 22 1 -2
BITMAP
00FC00
030300
0C00C0
100020
230F10
271990
431088
431088
831084
830904
830604
830B04
831184
8320C4
8320C8
4330C8
231090
2F8F10
100020
0C00C0
030300
00FC00
ENDCHAR
STARTCHAR 2472
ENCODING 9330
SWIDTH 1000 0
DWIDTH 24 0
BBX 22 22 1 -2
BITMAP
00FC00
030300
0C00C0
100020
230F10
271990
431088
433088
8330C4
8330C4
8330C4
8319C4
830EC4
830084
830088
431188
231110
2F9E10
100020
0C00C0
030300
00FC00
ENDCHAR
STARTCHAR 2473
ENCODING 9331
SWIDTH 1000 0
DWIDTH 24 0
BBX 22 22 1 -2
BITMAP
00FC00
030300
040080
180040
1783A0
2CC490
4C4CC8
4C4C48
804848
80C844
808844
818844
810844
820844
860848
444CC8
484490
2FC390
100020
0C00C0
030300
00FC00
ENDCHAR
STARTCHAR 24D0
ENCODING 9424
SWIDTH 1000 0
DWIDTH 24 0
BBX 22 22 1 -2
BITMAP
00FC00
030300
0C00C0
100020
200010
400010
407808
818C08
818404
800404
807C04
808404
810404
810404
418D08
40F708
200010
200010
100020
0C00C0
030300
00FC00
ENDCHAR
STARTCHAR 24D1
ENCODING 9425
SWIDTH 1000 0
DWIDTH 24 0
BBX 22 22 1 -2
BITMAP
00FC00
030300
0C00C0
108020
238010
408010
408008
808008
80BC04
80C604
808304
808104
808104
808104
408308
408608
20FC10
200010
100020
0C00C0
030300
00FC00
ENDCHAR
STARTCHAR 24D2
ENCODING 9426
SWIDTH 1000 0
DWIDTH 24 0
BBX 22 22 1 -2
BITMAP
00FC00
030300
0C00C0
100020
200010
400010
407808
80C408
818604
810004
810004
810004
810004
818204
40C408
407808
200010
200010
100020
0C00C0
030300
00FC00
ENDCHAR
STARTCHAR 24D3
ENCODING 9427
SWIDTH 1000 0
DWIDTH 24 0
BBX 22 22 1 -2
BITMAP
00FC00
030300
0C00C0
100420
200C10
400410
400408
800408
80F404
818C04
830404
820404
820404
820404
430408
418C08
20F610
200010
100020
0C00C0
030300
00FC00
ENDCHAR
STARTCHAR 24D4
ENCODING 9428
SWIDTH 1000 0
DWIDTH 24 0
BBX 22 22 1 -2
BITMAP
00FC00
030300
0C00C0
100020
200010
200010
407808
408408
810604
810204
83FE04
830004
810004
818004
80C608
407808
400010
200010
100020
0C0040
030180
00FE00
ENDCHAR
STARTCHAR 24D5
ENCODING 9429
SWIDTH 1000 0
DWIDTH 24 0
BBX 22 22 1 -2
BITMAP
00FC00
070380
0800C0
101C20
203610
402610
402008
802008
81FC04
802004
802004
802004
802004
802004
802008
402008
402010
20F010
100020
0C0040
030180
00FE00
ENDCHAR
STARTCHAR 24D6
ENCODING 9430
SWIDTH 1000 0
DWIDTH 24 0
BBX 22 22 1 -2
BITMAP
00FC00
030300
0C00C0
100020
200010
40FF10
408508
810408
818404
808C04
80F804
818004
80FC04
810704
430308
418208
20FC10
200010
100020
0C00C0
030300
00FC00
ENDCHAR
STARTCHAR 24D7
ENCODING 9431
SWIDTH 1000 0
DWIDTH 24 0
BBX 22 22 1 -2
BITMAP
00FC00
030300
040080
080040
108020
218010
408008
408008
80BC08
80C604
808204
808204
808204
808204
808208
408208
408210
23C790
100020
0C0040
030180
00FE00
ENDCHAR
STARTCHAR 24D8
ENCODING 9432
SWIDTH 1000 0
DWIDTH 24 0
BBX 22 22 1 -2
BITMAP
00FC00
030300
040080
080040
103020
203010
400008
400008
801008
807004
803004
803004
803004
803004
803008
403008
403010
207810
100020
0C0040
030180
00FE00
ENDCHAR
STARTCHAR 24D9
ENCODING 9433
SWIDTH 1000 0
DWIDTH 24 0
BBX 22 22 1 -2
BITMAP
00FC00
030300
0C00C0
101820
201810
400010
400008
803808
801804
801804
801804
801804
801804
801804
401808
401808
219010
219010
10E020
0C00C0
030300
00FC00
ENDCHAR
STARTCHAR 24DA
ENCODING 9434
SWIDTH 1000 0
DWIDTH 24 0
BBX 22 22 1 -2
BITMAP
00FC00
030300
0C00C0
100020
238010
408010
408008
808008
808F04
808404
808804
80B004
80D004
808804
408408
408608
23EF90
200030
180060
0C00C0
030300
00FC00
ENDCHAR
STARTCHAR 24DB
ENCODING 9435
SWIDTH 1000 0
DWIDTH 24 0
BBX 22 22 1 -2
BITMAP
00FC00
030300
040080
080040
103020
207010
403008
403008
803008
803004
803004
803004
803004
803004
803008
403008
403010
207810
100020
0C0040
030180
00FE00
ENDCHAR
STARTCHAR 24DC
ENCODING 9436
SWIDTH 1000 0
DWIDTH 24 0
BBX 22 21 1 -1
BITMAP
01FE00
060380
0800C0
100020
200010
42E718
4F2888
861088
861084
861084
861084
861084
861084
861088
4F79E8
400010
200010
100020
0C0040
030180
00FE00
ENDCHAR
STARTCHAR 24DD
ENCODING 9437
SWIDTH 1000 0
DWIDTH 24 0
BBX 22 21 1 -1
BITMAP
01FE00
060380
0800C0
100020
200010
40BC18
43C608
808208
808204
808204
808204
808204
808204
808208
43CF88
400010
200010
100020
0C0040
030180
00FE00
ENDCHAR
STARTCHAR 24DE
ENCODING 9438
SWIDTH 1000 0
DWIDTH 24 0
BBX 22 22 1 -2
BITMAP
00FC00
030300
0C00C0
100020
200010
400010
407808
808408
818604
810204
830304
830304
810204
818604
408408
407808
200010
200010
100020
0C00C0
030300
00FC00
ENDCHAR
STARTCHAR 24DF
ENCODING 9439
SWIDTH 1000 0
DWIDTH 24 0
BBX 22 22 1 -2
BITMAP
00FC00
030300
040080
180040
100020
200010
43BC08
40C308
808108
808104
808104
808304
80C304
80BC04
808008
408008
408010
23E010
100020
0C0040
030180
00FE00
ENDCHAR
STARTCHAR 24E0
ENCODING 9440
SWIDTH 1000 0
DWIDTH 24 0
BBX 22 22 1 -2
BITMAP
00FC00
030300
040080
180040
100020
200010
40FC08
430408
820408
820404
820404
820404
830C04
80F404
800408
400408
400410
201F10
100020
0C0040
030180
00FE00
ENDCHAR
STARTCHAR 24E1
ENCODING 9441
SWIDTH 1000 0
DWIDTH 24 0
BBX 22 22 1 -2
BITMAP
00FC00
030300
040080
080040
100020
200010
400E08
40D308
806208
806004
806004
806004
806004
806004
806008
40F008
400010
200010
100020
0C0040
030180
00FE00
ENDCHAR
STARTCHAR 24E2
ENCODING 9442
SWIDTH 1000 0
DWIDTH 24 0
BBX 22 22 1 -2
BITMAP
00FC00
030300
0C00C0
100020
200010
400010
407A08
808608
808204
808004
807004
800C04
810604
810204
41C608
417C08
200010
200010
100020
0C00C0
030300
00FC00
ENDCHAR
STARTCHAR 24E3
ENCODING 9443
SWIDTH 1000 0
DWIDTH 24 0
BBX 22 22 1 -2
BITMAP
00FC00
070380
0800C0
100020
202010
402010
406008
81FC08
806004
806004
806004
806004
806004
806004
806008
406408
203810
200010
100020
0C00C0
030300
00FC00
ENDCHAR
STARTCHAR 24E4
ENCODING 9444
SWIDTH 1000 0
DWIDTH 24 0
BBX 22 22 1 -2
BITMAP
00FC00
030300
0C00C0
100020
200010
400010
430E08
810608
810204
810204
810204
810204
810204
818604
408A08
407308
200010
200010
100020
0C00C0
030300
00FC00
ENDCHAR
STARTCHAR 24E5
ENCODING 9445
SWIDTH 1000 0
DWIDTH 24 0
BBX 22 22 1 -2
BITMAP
00FC00
030300
040080
180060
200020
200010
400008
47C788
810208
818204
808404
80C404
804804
806804
803008
403008
400010
200010
100020
0C0040
030380
00FC00
ENDCHAR
STARTCHAR 24E6
ENCODING 9446
SWIDTH 1000 0
DWIDTH 24 0
BBX 22 22 1 -2
BITMAP
00FC00
030300
0C0080
100060
200010
200010
400008
4F79E8
861084
821084
823904
832904
814D04
81C604
81C608
408408
408010
200010
100020
0C0040
030380
00FC00
ENDCHAR
STARTCHAR 24E7
ENCODING 9447
SWIDTH 1000 0
DWIDTH 24 0
BBX 22 21 1 -1
BITMAP
00FC00
070380
0800C0
100020
200010
400018
47CF08
808408
804804
803004
803004
804804
808C04
810608
47CF88
400010
200010
100020
0C0040
030180
00FE00
ENDCHAR
STARTCHAR 24E8
ENCODING 9448
SWIDTH 1000 0
DWIDTH 24 0
BBX 22 22 1 -2
BITMAP
00FC00
030300
040080
080040
100020
200010
43E788
408208
80C208
804404
806404
802804
801804
801804
801008
401008
41A010
21C010
100020
0C0040
030180
00FE00
ENDCHAR
STARTCHAR 24E9
ENCODING 9449
SWIDTH 1000 0
DWIDTH 24 0
BBX 22 21 1 -1
BITMAP
00FC00
070380
0800C0
100020
200010
400018
41FE08
818408
810C04
811804
803004
802004
804004
80C208
418608
407810
200010
100020
0C0040
030180
00FE00
ENDCHAR
STARTCHAR 24EB
ENCODING 9451
SWIDTH 1000 0
DWIDTH 24 0
BBX 22 22 1 -2
BITMAP
00FC00
03FF00
0FFFC0
1FFFE0
3DFCF0
39FCF0
7DFEF8
7DFEF8
FDFEFC
FDFEFC
FDFEFC
FDFEFC
FDFEFC
FDFEFC
7DFEF8
7DFEF8
3DFEF0
307830
1FFFE0
0FFFC0
03FF00
00FC00
ENDCHAR
STARTCHAR 24EC
ENCODING 9452
SWIDTH 1000 0
DWIDTH 24 0
BBX 22 22 1 -2
BITMAP
00FC00
03FF00
07FF80
0FFFC0
1DF0E0
31E670
7DEF78
7DE738
FDFF78
FDFF7C
FDFE7C
FDFCFC
FDFDFC
FDFBFC
7DF7B8
7DF7B8
3DEFB0
386030
1FFFE0
0FFFC0
03FF00
00FC00
ENDCHAR
STARTCHAR 24ED
ENCODING 9453
SWIDTH 1000 0
DWIDTH 24 0
BBX 22 22 1 -2
BITMAP
00FC00
03FF00
0FFFC0
1FFFE0
3DF0F0
39EE70
7DE778
7DE778
FDFF7C
FDFE7C
FDF9FC
FDFE7C
FDFF7C
FDFF3C
7DEF38
7DCF38
3DEF70
3076F0
1FFFE0
0FFFC0
03FF00
00FC00
ENDCHAR
STARTCHAR 24EE
ENCODING 9454
SWIDTH 1000 0
DWIDTH 24 0
BBX 22 22 1 -2
BITMAP
00FC00
03FF00
0FFFC0
1FFFE0
39FEF0
3DFCF0
7DFAF8
7DFAF8
FDF6FC
FDF6FC
FDEEFC
FDFEFC
FDDEFC
FDC03C
7DFEF8
7DFEF8
3DFEF0
307830
1FFFE0
0FFFC0
03FF00
00FC00
ENDCHAR
STARTCHAR 24EF
ENCODING 9455
SWIDTH 1000 0
DWIDTH 24 0
BBX 22 22 1 -2
BITMAP
00FC00
03FF00
0FFFC0
1FFFE0
31E070
3DEFF0
7DEFF8
7DEFF8
FDEFFC
FDE8FC
FDE67C
FDFF3C
FDFF3C
FDFFBC
7DEF38
7DCF38
3DEF70
3076F0
1FFFE0
0FFFC0
03FF00
00FC00
ENDCHAR
STARTCHAR 24F0
ENCODING 9456
SWIDTH 1000 0
DWIDTH 24 0
BBX 22 22 1 -2
BITMAP
00FC00
03FF00
0FFFC0
1FFFE0
39F870
39F370
7DE738
7DEFF8
FDEFFC
FDE8FC
FDE67C
FDEF3C
FDEF3C
FDEFBC
7DEF38
7DEF38
3DF770
307EF0
1FFFE0
0FFFC0
03FF00
00FC00
ENDCHAR
STARTCHAR 24F1
ENCODING 9457
SWIDTH 1000 0
DWIDTH 24 0
BBX 22 22 1 -2
BITMAP
00FC00
03FF00
0FFFC0
1FFFE0
31E030
3DEFF0
7DFF78
7DFF78
FDFEFC
FDFEFC
FDFCFC
FDFDFC
FDFDFC
FDFDFC
7DF9F8
7DF9F8
3DF9F0
3079F0
1FFFE0
0FFFC0
03FF00
00FC00
ENDCHAR
STARTCHAR 24F2
ENCODING 9458
SWIDTH 1000 0
DWIDTH 24 0
BBX 22 22 1 -2
BITMAP
00FC00
03FF00
0FFFC0
1FFFE0
3DF0F0
39E770
7DEF38
7DEF38
FDE77C
FDF2FC
FDF9FC
FDF4FC
FDEE7C
FDCF3C
7DDF38
7DCFB8
3DEF70
3077F0
1FFFE0
0FFFC0
03FF00
00FC00
ENDCHAR
STARTCHAR 24F3
ENCODING 9459
SWIDTH 1000 0
DWIDTH 24 0
BBX 22 22 1 -2
BITMAP
00FC00
03FF00
0FFFC0
1FFFE0
3DF0F0
39E670
7DEF78
7DEF38
FDCF3C
FDEF3C
FDEF3C
FDE73C
FDF13C
FDFF3C
7DFF78
7DE778
3DEEF0
3077F0
1FFFE0
0FFFC0
03FF00
00FC00
ENDCHAR
STARTCHAR 24F4
ENCODING 9460
SWIDTH 1000 0
DWIDTH 24 0
BBX 22 22 1 -2
BITMAP
00FC00
03FF00
07FF80
0FFFC0
187C60
373B30
77BBB8
73B3B8
FFB3B8
FF339C
FF739C
FEF39C
FEF39C
FDF3BC
7BF3B8
7BBBB8
37BBB0
303F70
1FFFE0
0FFFC0
03FF00
00FC00
ENDCHAR
STARTCHAR 24F5
ENCODING 9461
SWIDTH 1000 0
DWIDTH 24 0
BBX 22 22 1 -2
BITMAP
01FC00
06FF80
1B0340
2400A0
483050
507028
A03018
A03014
C03014
C0300C
C0300C
C0300C
C03014
C03014
A03014
A03028
503048
48FC90
240120
130640
0CF880
03FF00
ENDCHAR
STARTCHAR 24F6
ENCODING 9462
SWIDTH 1000 0
DWIDTH 24 0
BBX 22 22 1 -2
BITMAP
00FC00
070380
0DFCC0
160320
2878D0
518628
610628
A18214
C18214
C0060C
C0040C
C00C0C
C0100C
C02014
A04114
A08128
510128
4BFF50
2401A0
130640
0CF880
03FF00
ENDCHAR
STARTCHAR 24F7
ENCODING 9463
SWIDTH 1000 0
DWIDTH 24 0
BBX 22 22 1 -2
BITMAP
01FC00
06FF80
1B0340
2400A0
48F850
518628
A18218
A18214
C00214
C0040C
C0780C
C00E0C
C00314
C00314
A30314
A30328
518648
48FC90
240120
130640
0CF880
03FF00
ENDCHAR
STARTCHAR 24F8
ENCODING 9464
SWIDTH 1000 0
DWIDTH 24 0
BBX 22 22 1 -2
BITMAP
01FC00
06FF80
1B0340
2400A0
480850
501828
A02818
A04814
C0C814
C0880C
C1080C
C2080C
C40814
C7FF14
A00814
A00828
500848
483E90
240120
130640
0CF880
03FF00
ENDCHAR
STARTCHAR 24F9
ENCODING 9465
SWIDTH 1000 0
DWIDTH 24 0
BBX 22 22 1 -2
BITMAP
01FC00
06FF80
1B0340
2400A0
49FE50
510028
A10018
A10014
C13C14
C1C60C
C1020C
C0030C
C00314
C00314
A18314
A30628
518C48
48F890
240120
130640
0CF880
03FF00
ENDCHAR
STARTCHAR 24FA
ENCODING 9466
SWIDTH 1000 0
DWIDTH 24 0
BBX 22 22 1 -2
BITMAP
01FC00
06FF80
1B0340
2400A0
483C50
50C628
A08618
A10014
C10014
C33C0C
C3C60C
C3020C
C30314
C30314
A10314
A18628
50C648
487890
240120
130640
0CF880
03FF00
ENDCHAR
STARTCHAR 24FB
ENCODING 9467
SWIDTH 1000 0
DWIDTH 24 0
BBX 22 23 1 -2
BITMAP
00FC00
030300
0CFCC0
130320
240090
49FF48
510228
A10218
A10414
C00414
C0080C
C0080C
C0180C
C01014
C01014
A03014
A03028
503048
483090
240120
130640
0CF880
03FF00
ENDCHAR
STARTCHAR 24FC
ENCODING 9468
SWIDTH 1000 0
DWIDTH 24 0
BBX 22 22 1 -2
BITMAP
01FC00
06FF80
1B0340
2400A0
487C50
518628
A10218
A10214
C18614
C0CC0C
C0700C
C08C0C
C10614
C20314
A20314
A30328
518648
48FC90
240120
130640
0CF880
03FF00
ENDCHAR
STARTCHAR 24FD
ENCODING 9469
SWIDTH 1000 0
DWIDTH 24 0
BBX 22 22 1 -2
BITMAP
01FC00
06FF80
1B0340
2400A0
487850
51C428
A18618
A10214
C30314
C1030C
C1830C
C1870C
C07B14
C00214
A18614
A18628
518C48
48F890
240120
130640
0CF880
03FF00
ENDCHAR
STARTCHAR 24FE
ENCODING 9470
SWIDTH 1000 0
DWIDTH 24 0
BBX 22 22 1 -2
BITMAP
00FC00
070380
0DFCC0
160320
280FD0
570928
6110A8
A11094
C11094
C130CC
C130CC
C130CC
C130CC
C110D4
A11094
A110A8
5109A8
4FCF50
2401A0
130640
0CF880
03FF00
ENDCHAR
STARTCHAR 2500
ENCODING 9472
SWIDTH 1000 0
DWIDTH 24 0
BBX 24 1 0 9
BITMAP
FFFFFF
ENDCHAR
STARTCHAR 2501
ENCODING 9473
SWIDTH 1000 0
DWIDTH 24 0
BBX 24 3 0 8
BITMAP
FFFFFF
FFFFFF
FFFFFF
ENDCHAR
STARTCHAR 2502
ENCODING 9474
SWIDTH 1000 0
DWIDTH 24 0
BBX 1 23 11 -3
BITMAP
80
80
80
80
80
80
80
80
80
80
80
80
80
80
80
80
80
80
80
80
80
80
80
ENDCHAR
STARTCHAR 2503
ENCODING 9475
SWIDTH 1000 0
DWIDTH 24 0
BBX 2 24 11 -3
BITMAP
C0
C0
C0
C0
C0
C0
C0
C0
C0
C0
C0
C0
C0
C0
C0
C0
C0
C0
C0
C0
C0
C0
C0
C0
ENDCHAR
STARTCHAR 250C
ENCODING 9484
SWIDTH 1000 0
DWIDTH 24 0
BBX 12 12 12 -3
BITMAP
FFF0
8000
8000
8000
8000
8000
8000
8000
8000
8000
8000
8000
ENDCHAR
STARTCHAR 250F
ENCODING 9487
SWIDTH 1000 0
DWIDTH 24 0
BBX 13 14 11 -3
BITMAP
FFF8
FFF8
FFF8
C000
C000
C000
C000
C000
C000
C000
C000
C000
C000
C000
ENDCHAR
STARTCHAR 2510
ENCODING 9488
SWIDTH 1000 0
DWIDTH 24 0
BBX 12 12 0 -3
BITMAP
FFF0
0010
0010
0010
0010
0010
0010
0010
0010
0010
0010
0010
ENDCHAR
STARTCHAR 2513
ENCODING 9491
SWIDTH 1000 0
DWIDTH 24 0
BBX 13 14 0 -3
BITMAP
FFF8
FFF8
FFF8
0018
0018
0018
0018
0018
0018
0018
0018
0018
0018
0018
ENDCHAR
STARTCHAR 2514
ENCODING 9492
SWIDTH 1000 0
DWIDTH 24 0
BBX 12 12 12 10
BITMAP
8000
8000
8000
8000
8000
8000
8000
8000
8000
8000
8000
FFF0
ENDCHAR
STARTCHAR 2517
ENCODING 9495
SWIDTH 1000 0
DWIDTH 24 0
BBX 13 13 11 8
BITMAP
C000
C000
C000
C000
C000
C000
C000
C000
C000
C000
FFF8
FFF8
FFF8
ENDCHAR
STARTCHAR 2518
ENCODING 9496
SWIDTH 1000 0
DWIDTH 24 0
BBX 12 12 0 10
BITMAP
0010
0010
0010
0010
0010
0010
0010
0010
0010
0010
0010
FFF0
ENDCHAR
STARTCHAR 251B
ENCODING 9499
SWIDTH 1000 0
DWIDTH 24 0
BBX 13 13 0 8
BITMAP
0018
0018
0018
0018
0018
0018
0018
0018
0018
0018
FFF8
FFF8
FFF8
ENDCHAR
STARTCHAR 251C
ENCODING 9500
SWIDTH 1000 0
DWIDTH 24 0
BBX 12 23 12 -2
BITMAP
8000
8000
8000
8000
8000
8000
8000
8000
8000
8000
8000
FFF0
8000
8000
8000
8000
8000
8000
8000
8000
8000
8000
8000
ENDCHAR
STARTCHAR 251D
ENCODING 9501
SWIDTH 1000 0
DWIDTH 24 0
BBX 12 23 12 -2
BITMAP
8000
8000
8000
8000
8000
8000
8000
8000
8000
8000
FFF0
FFF0
FFF0
8000
8000
8000
8000
8000
8000
8000
8000
8000
8000
ENDCHAR
STARTCHAR 2520
ENCODING 9504
SWIDTH 1000 0
DWIDTH 24 0
BBX 13 24 11 -3
BITMAP
C000
C000
C000
C000
C000
C000
C000
C000
C000
C000
C000
FFF8
C000
C000
C000
C000
C000
C000
C000
C000
C000
C000
C000
C000
ENDCHAR
STARTCHAR 2523
ENCODING 9507
SWIDTH 1000 0
DWIDTH 24 0
BBX 13 24 11 -3
BITMAP
C000
C000
C000
C000
C000
C000
C000
C000
C000
C000
FFF8
FFF8
FFF8
C000
C000
C000
C000
C000
C000
C000
C000
C000
C000
C000
ENDCHAR
STARTCHAR 2524
ENCODING 9508
SWIDTH 1000 0
DWIDTH 24 0
BBX 12 23 0 -2
BITMAP
0010
0010
0010
0010
0010
0010
0010
0010
0010
0010
0010
FFF0
0010
0010
0010
0010
0010
0010
0010
0010
0010
0010
0010
ENDCHAR
STARTCHAR 2525
ENCODING 9509
SWIDTH 1000 0
DWIDTH 24 0
BBX 12 23 0 -2
BITMAP
0010
0010
0010
0010
0010
0010
0010
0010
0010
0010
FFF0
FFF0
FFF0
0010
0010
0010
0010
0010
0010
0010
0010
0010
0010
ENDCHAR
STARTCHAR 2528
ENCODING 9512
SWIDTH 1000 0
DWIDTH 24 0
BBX 13 24 0 -3
BITMAP
0018
0018
0018
0018
0018
0018
0018
0018
0018
0018
0018
FFF8
0018
0018
0018
0018
0018
0018
0018
0018
0018
0018
0018
0018
ENDCHAR
STARTCHAR 252B
ENCODING 9515
SWIDTH 1000 0
DWIDTH 24 0
BBX 13 24 0 -3
BITMAP
0018
0018
0018
0018
0018
0018
0018
0018
0018
0018
FFF8
FFF8
FFF8
0018
0018
0018
0018
0018
0018
0018
0018
0018
0018
0018
ENDCHAR
STARTCHAR 252C
ENCODING 9516
SWIDTH 1000 0
DWIDTH 24 0
BBX 24 12 0 -3
BITMAP
FFFFFF
001000
001000
001000
001000
001000
001000
001000
001000
001000
001000
001000
ENDCHAR
STARTCHAR 252F
ENCODING 9519
SWIDTH 1000 0
DWIDTH 24 0
BBX 24 13 0 -3
BITMAP
FFFFFF
FFFFFF
FFFFFF
001000
001000
001000
001000
001000
001000
001000
001000
001000
001000
ENDCHAR
STARTCHAR 2530
ENCODING 9520
SWIDTH 1000 0
DWIDTH 24 0
BBX 24 13 0 -3
BITMAP
FFFFFF
001800
001800
001800
001800
001800
001800
001800
001800
001800
001800
001800
001800
ENDCHAR
STARTCHAR 2533
ENCODING 9523
SWIDTH 1000 0
DWIDTH 24 0
BBX 24 14 0 -3
BITMAP
FFFFFF
FFFFFF
FFFFFF
001800
001800
001800
001800
001800
001800
001800
001800
001800
001800
001800
ENDCHAR
STARTCHAR 2534
ENCODING 9524
SWIDTH 1000 0
DWIDTH 24 0
BBX 24 12 0 10
BITMAP
001000
001000
001000
001000
001000
001000
001000
001000
001000
001000
001000
FFFFFF
ENDCHAR
STARTCHAR 2537
ENCODING 9527
SWIDTH 1000 0
DWIDTH 24 0
BBX 24 13 0 9
BITMAP
001000
001000
001000
001000
001000
001000
001000
001000
001000
001000
FFFFFF
FFFFFF
FFFFFF
ENDCHAR
STARTCHAR 2538
ENCODING 9528
SWIDTH 1000 0
DWIDTH 24 0
BBX 24 12 0 9
BITMAP
001800
001800
001800
001800
001800
001800
001800
001800
001800
001800
001800
FFFFFF
ENDCHAR
STARTCHAR 253B
ENCODING 9531
SWIDTH 1000 0
DWIDTH 24 0
BBX 24 13 0 8
BITMAP
001800
001800
001800
001800
001800
001800
001800
001800
001800
001800
FFFFFF
FFFFFF
FFFFFF
ENDCHAR
STARTCHAR 253C
ENCODING 9532
SWIDTH 1000 0
DWIDTH 24 0
BBX 24 23 0 -2
BITMAP
001000
001000
001000
001000
001000
001000
001000
001000
001000
001000
001000
FFFFFF
001000
001000
001000
001000
001000
001000
001000
001000
001000
001000
001000
ENDCHAR
STARTCHAR 253F
ENCODING 9535
SWIDTH 1000 0
DWIDTH 24 0
BBX 24 23 0 -2
BITMAP
001000
001000
001000
001000
001000
001000
001000
001000
001000
001000
FFFFFF
FFFFFF
FFFFFF
001000
001000
001000
001000
001000
001000
001000
001000
001000
001000
ENDCHAR
STARTCHAR 2542
ENCODING 9538
SWIDTH 1000 0
DWIDTH 24 0
BBX 24 24 0 -3
BITMAP
001800
001800
001800
001800
001800
001800
001800
001800
001800
001800
001800
FFFFFF
001800
001800
001800
001800
001800
001800
001800
001800
001800
001800
001800
001800
ENDCHAR
STARTCHAR 254B
ENCODING 9547
SWIDTH 1000 0
DWIDTH 24 0
BBX 24 24 0 -3
BITMAP
001800
001800
001800
001800
001800
001800
001800
001800
001800
001800
FFFFFF
FFFFFF
FFFFFF
001800
001800
001800
001800
001800
001800
001800
001800
001800
001800
001800
ENDCHAR
STARTCHAR 25A0
ENCODING 9632
SWIDTH 1000 0
DWIDTH 24 0
BBX 18 18 3 0
BITMAP
FFFFC0
FFFFC0
FFFFC0
FFFFC0
FFFFC0
FFFFC0
FFFFC0
FFFFC0
FFFFC0
FFFFC0
FFFFC0
FFFFC0
FFFFC0
FFFFC0
FFFFC0
FFFFC0
FFFFC0
FFFFC0
ENDCHAR
STARTCHAR 25A1
ENCODING 9633
SWIDTH 1000 0
DWIDTH 24 0
BBX 18 18 3 0
BITMAP
FFFFC0
800040
800040
800040
800040
800040
800040
800040
800040
800040
800040
800040
800040
800040
800040
800040
800040
FFFFC0
ENDCHAR
STARTCHAR 25B1
ENCODING 9649
SWIDTH 1000 0
DWIDTH 24 0
BBX 22 9 1 5
BITMAP
0FFFFC
080008
180018
100010
300030
200020
600060
400040
FFFFC0
ENDCHAR
STARTCHAR 25B2
ENCODING 9650
SWIDTH 1000 0
DWIDTH 24 0
BBX 18 18 3 1
BITMAP
00C000
00C000
01E000
01E000
03F000
03F000
07F800
07F800
0FFC00
0FFC00
1FFE00
1FFE00
3FFF00
3FFF00
7FFF80
7FFF80
FFFFC0
FFFFC0
ENDCHAR
STARTCHAR 25B3
ENCODING 9651
SWIDTH 1000 0
DWIDTH 24 0
BBX 18 18 3 1
BITMAP
00C000
00C000
012000
012000
021000
021000
040800
040800
080400
080400
100200
100200
200100
200100
400080
400080
800040
FFFFC0
ENDCHAR
STARTCHAR 25B6
ENCODING 9654
SWIDTH 1000 0
DWIDTH 24 0
BBX 18 19 3 -1
BITMAP
800000
E00000
F00000
FC0000
FF0000
FFC000
FFF000
FFFC00
FFFF00
FFFFC0
FFFF80
FFFE00
FFFC00
FFF000
FFC000
FF0000
FC0000
F00000
C00000
ENDCHAR
STARTCHAR 25B7
ENCODING 9655
SWIDTH 1000 0
DWIDTH 24 0
BBX 18 19 3 -1
BITMAP
800000
E00000
B00000
8C0000
830000
80C000
803000
800C00
800300
8000C0
800180
800600
801C00
807000
81C000
830000
8C0000
B00000
C00000
ENDCHAR
STARTCHAR 25BC
ENCODING 9660
SWIDTH 1000 0
DWIDTH 24 0
BBX 18 18 3 -1
BITMAP
FFFFC0
FFFFC0
7FFF80
7FFF80
3FFF00
3FFF00
1FFE00
1FFE00
0FFC00
0FFC00
07F800
07F800
03F000
03F000
01E000
01E000
00C000
00C000
ENDCHAR
STARTCHAR 25BD
ENCODING 9661
SWIDTH 1000 0
DWIDTH 24 0
BBX 18 18 3 -1
BITMAP
FFFFC0
800040
400080
400080
200100
200100
100200
100200
080400
080400
040800
040800
021000
021000
012000
012000
00C000
00C000
ENDCHAR
STARTCHAR 25C0
ENCODING 9664
SWIDTH 1000 0
DWIDTH 24 0
BBX 18 19 3 -1
BITMAP
000040
0001C0
0003C0
000FC0
003FC0
00FFC0
03FFC0
0FFFC0
3FFFC0
FFFFC0
7FFFC0
1FFFC0
0FFFC0
03FFC0
00FFC0
003FC0
000FC0
0003C0
0000C0
ENDCHAR
STARTCHAR 25C1
ENCODING 9665
SWIDTH 1000 0
DWIDTH 24 0
BBX 18 19 3 -1
BITMAP
000040
0001C0
000340
000C40
003040
00C040
030040
0C0040
300040
C00040
600040
180040
0E0040
038040
00E040
003040
000C40
000340
0000C0
ENDCHAR
STARTCHAR 25C6
ENCODING 9670
SWIDTH 1000 0
DWIDTH 24 0
BBX 20 20 2 -1
BITMAP
006000
00F000
01F800
03FC00
07FE00
0FFF00
1FFF80
3FFFC0
7FFFE0
FFFFF0
FFFFF0
7FFFE0
3FFFC0
1FFF80
0FFF00
07FE00
03FC00
01F800
00F000
006000
ENDCHAR
STARTCHAR 25C7
ENCODING 9671
SWIDTH 1000 0
DWIDTH 24 0
BBX 20 20 2 -1
BITMAP
006000
009000
010800
020400
040200
080100
100080
200040
400020
800010
800010
400020
200040
100080
080100
040200
020400
010800
009000
006000
ENDCHAR
STARTCHAR 25C9
ENCODING 9673
SWIDTH 1000 0
DWIDTH 24 0
BBX 20 20 2 -1
BITMAP
01F800
060600
180180
3000C0
20F040
43FC20
C7FE20
87FE10
8FFF10
8FFF10
8FFF10
8FFF10
87FE10
47FE20
43FC20
20F040
3000C0
180180
060600
01F800
ENDCHAR
STARTCHAR 25CB
ENCODING 9675
SWIDTH 1000 0
DWIDTH 24 0
BBX 20 20 2 -1
BITMAP
01F800
060600
180180
3000C0
200040
400020
400020
800010
800010
800010
800010
800010
800010
400020
400020
200040
3000C0
180180
060600
01F800
ENDCHAR
STARTCHAR 25CE
ENCODING 9678
SWIDTH 1000 0
DWIDTH 24 0
BBX 20 20 2 -1
BITMAP
01F800
060600
180180
3000C0
20F040
430C20
C40220
840210
880110
880110
880110
880110
840210
440220
430C20
20F040
3000C0
180180
060600
01F800
ENDCHAR
STARTCHAR 25CF
ENCODING 9679
SWIDTH 1000 0
DWIDTH 24 0
BBX 20 20 2 -1
BITMAP
01F800
07FE00
1FFF80
3FFFC0
3FFFC0
7FFFE0
7FFFE0
FFFFF0
FFFFF0
FFFFF0
FFFFF0
FFFFF0
FFFFF0
7FFFE0
7FFFE0
3FFFC0
3FFFC0
1FFF80
07FE00
01F800
ENDCHAR
STARTCHAR 25D0
ENCODING 9680
SWIDTH 1000 0
DWIDTH 24 0
BBX 20 20 2 -1
BITMAP
01F800
07C600
1FC180
3FC040
3FC040
7FC020
FFC020
FFC010
FFC010
FFC010
FFC010
FFC010
FFC010
7FC020
7FC020
3FC040
3FC0C0
1FC180
07C600
01F800
ENDCHAR
STARTCHAR 25D1
ENCODING 9681
SWIDTH 1000 0
DWIDTH 24 0
BBX 20 20 2 -1
BITMAP
01F800
063F00
183F80
203FC0
203FE0
403FE0
803FE0
803FF0
803FF0
803FF0
803FF0
803FF0
803FF0
403FE0
403FE0
203FC0
303FC0
183F80
063E00
01F800
ENDCHAR
STARTCHAR 25D2
ENCODING 9682
SWIDTH 1000 0
DWIDTH 24 0
BBX 20 20 2 -1
BITMAP
01F800
060600
180180
3000C0
200040
400020
C00020
800010
800010
800010
FFFFF0
FFFFF0
FFFFF0
7FFFE0
7FFFE0
3FFFC0
3FFFC0
1FFF80
07FE00
01F800
ENDCHAR
STARTCHAR 25D3
ENCODING 9683
SWIDTH 1000 0
DWIDTH 24 0
BBX 20 20 2 -1
BITMAP
01F800
07FE00
1FFF80
3FFFC0
3FFFC0
7FFFE0
FFFFE0
FFFFF0
FFFFF0
FFFFF0
800010
800010
800010
400020
400020
200040
3000C0
180180
060600
01F800
ENDCHAR
STARTCHAR 25E6
ENCODING 9702
SWIDTH 1000 0
DWIDTH 24 0
BBX 8 8 8 5
BITMAP
3C
42
81
81
81
81
42
3C
ENDCHAR
STARTCHAR 25EF
ENCODING 9711
SWIDTH 1000 0
DWIDTH 24 0
BBX 22 22 1 -2
BITMAP
00FC00
030300
0C00C0
100020
200010
400010
400008
800008
800004
800004
800004
800004
800004
800004
400008
400008
200010
200010
100020
0C00C0
030300
00FC00
ENDCHAR
STARTCHAR 2600
ENCODING 9728
SWIDTH 1000 0
DWIDTH 24 0
BBX 22 21 1 -1
BITMAP
002000
002000
102020
180060
0C00C0
047880
01FE00
03FF00
03FF00
07FF80
F7FFBC
07FF80
07FF80
03FF00
03FF00
05FE80
0C78C0
180060
102020
002000
002000
ENDCHAR
STARTCHAR 2601
ENCODING 9729
SWIDTH 1000 0
DWIDTH 24 0
BBX 20 17 2 -1
BITMAP
03E000
07F000
0FF800
0FFC00
0FFCE0
0FFDF0
0FFFF0
1FFFF0
7FFFF0
FFFFF0
FFFFE0
FFFFF0
FFFFF0
FFBFF0
7F1FF0
3C1FE0
0007C0
ENDCHAR
STARTCHAR 2602
ENCODING 9730
SWIDTH 1000 0
DWIDTH 24 0
BBX 22 22 1 -2
BITMAP
002000
002000
01FE00
07FF80
1FFFE0
3FFFF0
7FFFF8
7FFFF8
CE31CC
843084
842084
002000
002000
002000
002000
002000
002000
002000
002000
012000
012000
00E000
ENDCHAR
STARTCHAR 2603
ENCODING 9731
SWIDTH 1000 0
DWIDTH 24 0
BBX 22 22 1 -2
BITMAP
80621C
04050C
0C0880
001040
602020
61E058
061898
080780
08CC40
48CC40
C80040
04848C
06798C
880040
900020
203010
203010
200010
203010
203020
180060
07FF80
ENDCHAR
STARTCHAR 2605
ENCODING 9733
SWIDTH 1000 0
DWIDTH 24 0
BBX 22 21 1 -2
BITMAP
002000
003000
003000
003000
007800
007800
007800
00FC00
FFFFFC
3FFFF0
1FFFE0
0FFFC0
03FF00
03FF00
03FF00
03FF00
07FF80
078780
070380
0E01C0
080040
ENDCHAR
STARTCHAR 2606
ENCODING 9734
SWIDTH 1000 0
DWIDTH 24 0
BBX 22 22 1 -2
BITMAP
002000
003000
003000
003000
004800
004800
004800
008400
FF87FC
200010
100020
0C00C0
020100
020100
020100
020100
047880
04CC80
050280
0A0140
0C00C0
100040
ENDCHAR
STARTCHAR 260E
ENCODING 9742
SWIDTH 1000 0
DWIDTH 24 0
BBX 22 18 1 0
BITMAP
0FFFC0
3FFFF0
7FFFF8
7986F8
F1863C
F1FE3C
03FF00
078780
0F0380
0E01C0
0E01C0
1E01E0
3E01F0
3E01F0
7F03F8
7F87F8
7FFFF8
7FFFF8
ENDCHAR
STARTCHAR 2616
ENCODING 9750
SWIDTH 1000 0
DWIDTH 24 0
BBX 20 19 2 0
BITMAP
00F000
019800
060600
180180
3000C0
200040
200040
200040
200040
600060
400020
400020
400020
400020
400020
400020
400020
400020
FFFFF0
ENDCHAR
STARTCHAR 2617
ENCODING 9751
SWIDTH 1000 0
DWIDTH 24 0
BBX 20 19 2 0
BITMAP
006000
01F800
07FE00
1FFF80
3FFFC0
3FFFC0
3FFFC0
3FFFC0
3FFFC0
7FFFC0
7FFFE0
7FFFE0
7FFFE0
7FFFE0
7FFFE0
7FFFE0
7FFFE0
7FFFE0
FFFFF0
ENDCHAR
STARTCHAR 261E
ENCODING 9758
SWIDTH 1000 0
DWIDTH 24 0
BBX 20 10 2 4
BITMAP
61E000
961FF0
980C10
9053E0
9FBD00
902C80
903300
986900
9E2600
F1FC00
ENDCHAR
STARTCHAR 2640
ENCODING 9792
SWIDTH 1000 0
DWIDTH 24 0
BBX 14 22 5 -2
BITMAP
0780
1860
3020
2010
2010
2010
2010
2010
1020
1860
0780
0300
0300
0300
FFFC
0300
0300
0300
0300
0300
0300
0300
ENDCHAR
STARTCHAR 2642
ENCODING 9794
SWIDTH 1000 0
DWIDTH 24 0
BBX 19 19 2 -1
BITMAP
001FE0
000060
0000A0
000120
000220
000420
000820
001020
1F2000
31C000
404000
404000
802000
802000
802000
406000
404000
318000
1F0000
ENDCHAR
STARTCHAR 2660
ENCODING 9824
SWIDTH 1000 0
DWIDTH 24 0
BBX 18 22 3 -2
BITMAP
00C000
01E000
01E000
03F000
07F800
0FFC00
1FFE00
1FFE00
3FFF00
7FFF80
7FFF80
FFFFC0
FFFFC0
FFFFC0
FFFFC0
FFFFC0
7EDF80
3CCF00
00C000
01E000
01E000
03E000
ENDCHAR
STARTCHAR 2661
ENCODING 9825
SWIDTH 1000 0
DWIDTH 24 0
BBX 20 20 2 -1
BITMAP
1F0F80
219840
406020
406020
800010
800010
800010
400020
400020
400040
200040
100080
180180
080100
040200
020400
010800
019800
00F000
006000
ENDCHAR
STARTCHAR 2662
ENCODING 9826
SWIDTH 1000 0
DWIDTH 24 0
BBX 18 22 3 -2
BITMAP
00C000
012000
033000
021000
040800
080400
180600
100200
200100
400080
800040
400080
600180
200100
100200
080400
0C0C00
040800
021000
012000
01E000
00C000
ENDCHAR
STARTCHAR 2663
ENCODING 9827
SWIDTH 1000 0
DWIDTH 24 0
BBX 20 22 2 -2
BITMAP
00F000
01F800
03FC00
07FC00
07FE00
07FE00
03FC00
03FC00
3DFBC0
7EF7E0
FFFFF0
FFFFF0
FFFFF0
FFFFF0
FFFFF0
FF6FF0
7E67E0
3C63C0
006000
00E000
00F000
01F000
ENDCHAR
STARTCHAR 2664
ENCODING 9828
SWIDTH 1000 0
DWIDTH 24 0
BBX 18 22 3 -2
BITMAP
00C000
01E000
033000
021000
040800
080400
100200
300100
200100
400080
400080
800040
800040
800040
800040
8120C0
435080
3D2F00
012000
012000
021000
03F000
ENDCHAR
STARTCHAR 2665
ENCODING 9829
SWIDTH 1000 0
DWIDTH 24 0
BBX 20 20 2 -1
BITMAP
1E0780
3F9FC0
7F9FE0
7FFFE0
FFFFF0
FFFFF0
7FFFE0
7FFFE0
7FFFE0
3FFFC0
3FFFC0
1FFF80
0FFF00
0FFF00
07FE00
03FC00
01F800
00F000
006000
006000
ENDCHAR
STARTCHAR 2666
ENCODING 9830
SWIDTH 1000 0
DWIDTH 24 0
BBX 18 22 3 -2
BITMAP
00C000
01E000
03F000
03F000
07F800
0FFC00
1FFE00
1FFE00
3FFF00
7FFF80
FFFFC0
7FFF80
3FFF00
3FFF00
1FFE00
0FFC00
0FFC00
07F800
03F000
01E000
01E000
00C000
ENDCHAR
STARTCHAR 2667
ENCODING 9831
SWIDTH 1000 0
DWIDTH 24 0
BBX 20 22 2 -2
BITMAP
00F000
030C00
020400
040200
040200
040200
040200
020400
3E07C0
419820
800010
800010
800010
800010
809010
809010
43AC20
3C93C0
009000
009000
010800
01F800
ENDCHAR
STARTCHAR 2668
ENCODING 9832
SWIDTH 1000 0
DWIDTH 24 0
BBX 20 18 2 1
BITMAP
004000
008200
088400
088400
088400
08C600
084200
046300
042100
063100
463120
843110
842110
882210
C04030
600060
3803C0
07FE00
ENDCHAR
STARTCHAR 2669
ENCODING 9833
SWIDTH 1000 0
DWIDTH 24 0
BBX 7 20 7 -1
BITMAP
02
02
02
02
02
02
02
02
02
02
02
02
02
02
02
3A
FE
FC
FC
F8
ENDCHAR
STARTCHAR 266A
ENCODING 9834
SWIDTH 1000 0
DWIDTH 24 0
BBX 15 20 5 -1
BITMAP
0200
0200
0380
05C0
04E0
0470
0438
040C
0406
0406
0402
0406
040C
0410
0400
7C00
FC00
FC00
FC00
F000
ENDCHAR
STARTCHAR 266B
ENCODING 9835
SWIDTH 1000 0
DWIDTH 24 0
BBX 17 22 2 -2
BITMAP
000180
003F80
03FF80
03FE80
03C080
040080
040080
040080
040080
040080
040080
040080
040080
040080
040080
040F80
041F80
7C1F80
FC1E00
FC0000
FC0000
F00000
ENDCHAR
STARTCHAR 266C
ENCODING 9836
SWIDTH 1000 0
DWIDTH 24 0
BBX 17 22 2 -2
BITMAP
000180
003F80
03FF80
03FC80
038080
040780
04FF80
03FF80
03E080
020080
040080
040080
040080
040080
040080
040F80
041F80
7C1F80
FC1E00
FC0000
FC0000
F00000
ENDCHAR
STARTCHAR 266D
ENCODING 9837
SWIDTH 1000 0
DWIDTH 24 0
BBX 9 20 8 -1
BITMAP
8000
8000
8000
8000
8000
8000
8000
9E00
E300
8180
8180
8180
8180
8300
8300
8600
8C00
9800
A000
C000
ENDCHAR
STARTCHAR 266E
ENCODING 9838
SWIDTH 1000 0
DWIDTH 24 0
BBX 6 19 9 -1
BITMAP
80
80
80
80
80
9C
FC
F4
84
84
84
8C
FC
FC
C4
04
04
04
04
ENDCHAR
STARTCHAR 266F
ENCODING 9839
SWIDTH 1000 0
DWIDTH 24 0
BBX 14 20 5 -1
BITMAP
0840
0840
0840
0840
085C
09FC
3FC0
F840
0840
0840
0840
084C
08FC
1FE0
FC40
C840
0840
0840
0840
0800
ENDCHAR
STARTCHAR 2713
ENCODING 10003
SWIDTH 1000 0
DWIDTH 24 0
BBX 16 16 5 1
BITMAP
0001
0002
0004
000C
0008
0010
0020
0060
40C0
C180
6300
6700
3E00
3C00
3800
1000
ENDCHAR
STARTCHAR 2756
ENCODING 10070
SWIDTH 1000 0
DWIDTH 24 0
BBX 20 20 2 -1
BITMAP
006000
00F000
01F800
03FC00
03FC00
01F800
18F180
3C63C0
7E07E0
FF0FF0
FF0FF0
7E07E0
3C63C0
18F180
01F800
03FC00
03FC00
01F800
00F000
006000
ENDCHAR
STARTCHAR 2776
ENCODING 10102
SWIDTH 1000 0
DWIDTH 24 0
BBX 22 22 1 -2
BITMAP
00FC00
03FF00
0FFFC0
1FFFE0
3F0FF0
3FCFF0
7FCFF8
7FCFF8
FFCFFC
FFCFFC
FFCFFC
FFCFFC
FFCFFC
FFCFFC
7FCFF8
7FCFF8
3FCFF0
3F03F0
1FFFE0
0FFFC0
03FF00
00FC00
ENDCHAR
STARTCHAR 2777
ENCODING 10103
SWIDTH 1000 0
DWIDTH 24 0
BBX 22 22 1 -2
BITMAP
00FC00
03FF00
0FFF80
1FFFE0
3FFFF0
3EF9F0
7EFDF8
7E7CF8
FE7DFC
FFF9FC
FFF3FC
FFF7FC
FFEFFC
FFDFFC
7FBEF8
7F7EF8
3EFEF0
3C00F0
1FFFE0
0FFFC0
03FF00
00FC00
ENDCHAR
STARTCHAR 2778
ENCODING 10104
SWIDTH 1000 0
DWIDTH 24 0
BBX 22 22 1 -2
BITMAP
00FC00
03FF00
0FFFC0
1F87E0
3E71F0
3EFDF0
7E7CF8
7E7DF8
FFFDFC
FFFBFC
FF8FFC
FFF9FC
FFFCFC
FFFCFC
7CFCF8
7CFCF8
3EFDF0
3F7BF0
1FFFE0
0FFFC0
03FF00
00FC00
ENDCHAR
STARTCHAR 2779
ENCODING 10105
SWIDTH 1000 0
DWIDTH 24 0
BBX 22 22 1 -2
BITMAP
00FC00
03FF00
0FFFC0
1FFFE0
3FE7F0
3FE7F0
7FD7F8
7FB7F8
FF77FC
FF77FC
FEF7FC
FDF7FC
FBF7FC
F800FC
7FF7F8
7FF7F8
3FF7F0
3FC1F0
1FFFE0
0FFFC0
03FF00
00FC00
ENDCHAR
STARTCHAR 277A
ENCODING 10106
SWIDTH 1000 0
DWIDTH 24 0
BBX 22 22 1 -2
BITMAP
00FC00
03FF00
07FF80
1FFFE0
3E01E0
3EFFF0
7EFFF8
7EFFF8
FEFFF8
FEFBFC
FEFDFC
FFFCFC
FFFCFC
FFFCFC
7CFCF8
7CFDF8
3EF9F0
3F77F0
1FFFE0
0FFFC0
03FF00
00FC00
ENDCHAR
STARTCHAR 277B
ENCODING 10107
SWIDTH 1000 0
DWIDTH 24 0
BBX 22 22 1 -2
BITMAP
00FC00
03FF00
0FFFC0
1FC7E0
3F39F0
3F79F0
7E79F8
7EFFF8
FCFFFC
FC83FC
FC79FC
FCFDFC
FCFCFC
FCFCFC
7EFCF8
7EFDF8
3F79F0
3FBFF0
1FFFE0
0FFFC0
03FF00
00FC00
ENDCHAR
STARTCHAR 277C
ENCODING 10108
SWIDTH 1000 0
DWIDTH 24 0
BBX 22 22 1 -2
BITMAP
00FC00
03FF00
0FFFC0
1FFFE0
3E00F0
3EFDF0
7EFDF8
7FFBF8
FFFBFC
FFF3FC
FFF7FC
FFF7FC
FFE7FC
FFEFFC
7FEFF8
7FCFF8
3FCFF0
3FCFF0
1FCFE0
0FFFC0
03FF00
00FC00
ENDCHAR
STARTCHAR 277D
ENCODING 10109
SWIDTH 1000 0
DWIDTH 24 0
BBX 22 22 1 -2
BITMAP
00FC00
03FF00
0FFFC0
1F87E0
3E79F0
3EFDF0
7EFDF8
7EFDF8
FE79FC
FF33FC
FFCFFC
FF73FC
FEF9FC
FDFCFC
7DFCF8
7DFCF8
3EFDF0
3F7BF0
1FFFE0
0FFFC0
03FF00
00FC00
ENDCHAR
STARTCHAR 277E
ENCODING 10110
SWIDTH 1000 0
DWIDTH 24 0
BBX 22 22 1 -2
BITMAP
00FC00
03FF00
0FFFC0
1F87E0
3F3BF0
3E79F0
7EFDF8
7CFCF8
FCFCFC
FCFCFC
FEFCFC
FE78FC
FF84FC
FFFDFC
7E7DF8
7E79F8
3EFBF0
3F77F0
1FFFE0
0FFFC0
03FF00
00FC00
ENDCHAR
STARTCHAR 277F
ENCODING 10111
SWIDTH 1000 0
DWIDTH 24 0
BBX 22 22 1 -2
BITMAP
00FC00
03FF00
0FFFC0
1FFFE0
39F8F0
39F670
7DE778
7DEF78
FDEF3C
FDCF3C
FDCF3C
FDCF3C
FDCF3C
FDEF3C
7DEF78
7DEF78
3DF770
3076F0
1FFFE0
0FFFC0
03FF00
00FC00
ENDCHAR
STARTCHAR 2934
ENCODING 10548
SWIDTH 1000 0
DWIDTH 24 0
BBX 19 18 3 0
BITMAP
000200
000700
000F80
000AC0
001260
002220
002200
000200
000200
000200
000200
000200
000200
000200
000400
000C00
001800
FFE000
ENDCHAR
STARTCHAR 2935
ENCODING 10549
SWIDTH 1000 0
DWIDTH 24 0
BBX 19 18 3 0
BITMAP
FFE000
001800
000C00
000400
000200
000200
000200
000200
000200
000200
000200
002200
002220
001260
001AC0
000F80
000700
000200
ENDCHAR
STARTCHAR 29BF
ENCODING 10687
SWIDTH 1000 0
DWIDTH 24 0
BBX 20 20 2 -1
BITMAP
01F800
060600
180180
3000C0
200040
400020
C0F020
81F810
81F810
81F810
81F810
81F810
80F010
400020
400020
200040
3000C0
180180
060600
01F800
ENDCHAR
STARTCHAR 29FA
ENCODING 10746
SWIDTH 1000 0
DWIDTH 24 0
BBX 12 13 6 1
BITMAP
1080
1080
1080
1080
1080
1080
FFF0
1080
1080
1080
1080
1080
1080
ENDCHAR
STARTCHAR 29FB
ENCODING 10747
SWIDTH 1000 0
DWIDTH 24 0
BBX 12 13 6 1
BITMAP
2640
2640
2640
2640
2640
2640
FFF0
2640
2640
2640
2640
2640
2640
ENDCHAR
STARTCHAR 2E83
ENCODING 11907
SWIDTH 1000 0
DWIDTH 24 0
BBX 15 18 6 0
BITMAP
C000
8000
8000
8000
8000
8000
8000
8000
8000
8000
8000
8000
8004
8004
8004
8004
800E
FFFC
ENDCHAR
STARTCHAR 2E85
ENCODING 11909
SWIDTH 1000 0
DWIDTH 24 0
BBX 11 21 5 -2
BITMAP
0060
0060
00C0
0180
0180
0300
0700
0700
0B00
1300
2300
4300
8300
0300
0300
0300
0300
0300
0300
0300
0300
ENDCHAR
STARTCHAR 2E87
ENCODING 11911
SWIDTH 1000 0
DWIDTH 24 0
BBX 22 21 1 -2
BITMAP
100040
1FFFE0
180040
180040
180040
180040
180040
180040
180040
180040
180040
100040
100060
100060
300064
300024
200028
200038
400018
40001C
80000C
ENDCHAR
STARTCHAR 2E89
ENCODING 11913
SWIDTH 1000 0
DWIDTH 24 0
BBX 10 20 8 -1
BITMAP
01C0
0180
C180
C180
C180
C180
C180
C180
C180
C180
C180
C180
C180
C180
C180
0180
0180
0180
3F80
0300
ENDCHAR
STARTCHAR 2E8E
ENCODING 11918
SWIDTH 1000 0
DWIDTH 24 0
BBX 20 20 2 -1
BITMAP
000020
000070
FFFFF0
020800
020800
020800
020800
020800
020800
020800
020800
060800
060800
040820
0C0820
080820
180820
300830
600FF0
800000
ENDCHAR
STARTCHAR 2E8F
ENCODING 11919
SWIDTH 1000 0
DWIDTH 24 0
BBX 20 19 2 0
BITMAP
030800
060600
040300
0C0180
1800C0
300060
231C60
421820
021800
021800
021800
021800
021800
061800
061810
0C1810
081810
300830
E00FF0
ENDCHAR
STARTCHAR 2E90
ENCODING 11920
SWIDTH 1000 0
DWIDTH 24 0
BBX 20 22 2 -2
BITMAP
00C000
00C000
00C000
00C000
00C020
00C060
FFFFF0
00D800
00D000
00D000
00D000
009000
009000
019000
011000
031000
021020
061020
0C1020
101030
601FF0
800000
ENDCHAR
STARTCHAR 2E92
ENCODING 11922
SWIDTH 1000 0
DWIDTH 24 0
BBX 17 18 5 0
BITMAP
800600
FFFE00
800400
800400
800400
800400
800400
800400
FFFC00
800400
800000
800000
800100
800100
800100
800100
C00180
7FFF80
ENDCHAR
STARTCHAR 2E93
ENCODING 11923
SWIDTH 1000 0
DWIDTH 24 0
BBX 19 19 3 0
BITMAP
00E000
00C000
018000
018000
030400
420600
240C00
181800
0C1800
063000
026000
00C000
008400
010200
020180
0401C0
080FC0
FFF060
E00060
ENDCHAR
STARTCHAR 2E94
ENCODING 11924
SWIDTH 1000 0
DWIDTH 24 0
BBX 20 19 2 0
BITMAP
030000
030000
020000
020000
020300
07FF00
060200
040200
040200
040200
0C0600
0C0600
0FFE00
080600
180400
080400
000400
000C00
FFFFF0
ENDCHAR
STARTCHAR 2E96
ENCODING 11926
SWIDTH 1000 0
DWIDTH 24 0
BBX 9 20 7 -1
BITMAP
0E00
0C00
0C00
0C00
4D00
4D80
4C80
4C80
4C80
CC00
8C00
0C00
0C00
0C00
0C00
0C00
0C00
0C00
0C00
0C00
ENDCHAR
STARTCHAR 2E97
ENCODING 11927
SWIDTH 1000 0
DWIDTH 24 0
BBX 22 20 1 -1
BITMAP
018000
018000
018000
018000
018000
018000
119080
118840
118820
118430
318610
218618
618218
61830C
C1830C
018000
018000
018000
1F8000
030000
ENDCHAR
STARTCHAR 2E98
ENCODING 11928
SWIDTH 1000 0
DWIDTH 24 0
BBX 14 21 6 -2
BITMAP
0300
0200
0200
0200
0218
FFF8
0200
0200
0200
0200
021C
03E0
7E00
E200
8200
0200
0200
0200
0200
4200
3E00
ENDCHAR
STARTCHAR 2E99
ENCODING 11929
SWIDTH 1000 0
DWIDTH 24 0
BBX 20 21 2 -2
BITMAP
030000
020000
060000
060000
0C0060
0BFF80
1C0600
140600
320400
220C00
410800
819800
009000
007000
007000
00D800
018E00
070780
0C01F0
700060
800000
ENDCHAR
STARTCHAR 2E9B
ENCODING 11931
SWIDTH 1000 0
DWIDTH 24 0
BBX 21 21 1 -2
BITMAP
000040
000060
1FFF80
002000
0C2000
082000
182000
182020
102030
1FFFF0
306000
207C00
005800
00D800
00D800
019810
031810
061810
0C1818
180FF8
E00000
ENDCHAR
STARTCHAR 2E9E
ENCODING 11934
SWIDTH 1000 0
DWIDTH 24 0
BBX 20 22 2 -2
BITMAP
001000
001000
001000
001030
001FC0
019000
031000
0210C0
07FFC0
0C00C0
0C0180
1C0300
330300
418600
80CC00
005800
003000
00E000
018000
060000
180000
E00000
ENDCHAR
STARTCHAR 2E9F
ENCODING 11935
SWIDTH 1000 0
DWIDTH 24 0
BBX 20 19 2 -1
BITMAP
100180
1FFF80
190100
18C100
106100
106100
102110
100130
FFFFC0
320100
318100
30C100
206100
206100
200130
7FFFC0
600300
006300
001E00
ENDCHAR
STARTCHAR 2EA0
ENCODING 11936
SWIDTH 1000 0
DWIDTH 24 0
BBX 20 20 2 -1
BITMAP
0000C0
1FFFC0
1000C0
1000C0
1000C0
1000C0
1FFFC0
102000
103020
103020
103FF0
1FD000
101800
100800
100C10
100610
106310
1F81B0
F800F0
800030
ENDCHAR
STARTCHAR 2EA1
ENCODING 11937
SWIDTH 1000 0
DWIDTH 24 0
BBX 9 21 8 -2
BITMAP
3000
0C00
0C00
0000
0080
C100
6100
3200
0200
0400
0400
0800
1800
1000
F000
3000
3000
3000
3000
3000
3000
ENDCHAR
STARTCHAR 2EA3
ENCODING 11939
SWIDTH 1000 0
DWIDTH 24 0
BBX 20 6 2 6
BITMAP
120180
1110C0
210860
210C30
E18C30
C10410
ENDCHAR
STARTCHAR 2EA4
ENCODING 11940
SWIDTH 1000 0
DWIDTH 24 0
BBX 18 11 3 5
BITMAP
000700
007F80
1FC000
E00180
0101C0
408180
20C300
304200
184600
180400
000800
ENDCHAR
STARTCHAR 2EA6
ENCODING 11942
SWIDTH 1000 0
DWIDTH 24 0
BBX 10 21 5 -2
BITMAP
00C0
0080
0080
4080
2080
1080
1880
1880
0880
0080
0080
0380
0C80
7080
E080
8080
0080
0080
0080
0080
0080
ENDCHAR
STARTCHAR 2EA8
ENCODING 11944
SWIDTH 1000 0
DWIDTH 24 0
BBX 11 20 5 -2
BITMAP
0840
04E0
04C0
0380
0300
0D00
1980
2080
4080
01C0
0340
0640
0C40
1840
2040
C040
0040
00C0
10C0
0F80
ENDCHAR
STARTCHAR 2EAA
ENCODING 11946
SWIDTH 1000 0
DWIDTH 24 0
BBX 13 20 5 -1
BITMAP
0010
FFF8
0038
0060
0080
0100
0100
3100
3110
31F8
3100
3100
3100
3100
3100
3118
31E0
3F00
F000
8000
ENDCHAR
STARTCHAR 2EAB
ENCODING 11947
SWIDTH 1000 0
DWIDTH 24 0
BBX 19 12 3 3
BITMAP
800040
FFFFE0
8610C0
8610C0
8610C0
8610C0
8610C0
8610C0
8610C0
FFFFC0
8000C0
800000
ENDCHAR
STARTCHAR 2EAD
ENCODING 11949
SWIDTH 1000 0
DWIDTH 24 0
BBX 15 20 4 -1
BITMAP
0180
0100
0100
0108
1EF8
0030
0020
0060
00C0
0180
03E0
05B8
198C
2186
C180
0180
0180
0180
0180
0180
ENDCHAR
STARTCHAR 2EB2
ENCODING 11954
SWIDTH 1000 0
DWIDTH 24 0
BBX 19 12 3 3
BITMAP
800040
FFFFE0
8610C0
8610C0
8610C0
8610C0
8610C0
8610C0
8610C0
FFFFC0
8000C0
800000
ENDCHAR
STARTCHAR 2EB9
ENCODING 11961
SWIDTH 1000 0
DWIDTH 24 0
BBX 20 17 2 2
BITMAP
00E000
00C0C0
00C0C0
00C580
1FFB00
00C600
00CC20
00D830
FFFFF0
002000
00C000
018000
030000
040000
180000
600000
800000
ENDCHAR
STARTCHAR 2EBD
ENCODING 11965
SWIDTH 1000 0
DWIDTH 24 0
BBX 17 21 4 -2
BITMAP
030000
0F0000
380100
E07F80
800100
800100
800100
800100
800100
860100
FE7F00
800100
800100
800100
800100
800100
800100
860100
FE7F00
800100
800100
ENDCHAR
STARTCHAR 2EBE
ENCODING 11966
SWIDTH 1000 0
DWIDTH 24 0
BBX 20 6 2 8
BITMAP
030600
020400
020430
FFFFC0
020400
020400
ENDCHAR
STARTCHAR 2EBF
ENCODING 11967
SWIDTH 1000 0
DWIDTH 24 0
BBX 20 6 2 8
BITMAP
0C0300
0C0200
0D8230
FE1FC0
0C0200
0C0200
ENDCHAR
STARTCHAR 2EC0
ENCODING 11968
SWIDTH 1000 0
DWIDTH 24 0
BBX 20 8 2 7
BITMAP
020400
030600
020400
020430
FE07C0
020400
020400
020400
ENDCHAR
STARTCHAR 2EC1
ENCODING 11969
SWIDTH 1000 0
DWIDTH 24 0
BBX 21 21 1 -2
BITMAP
003000
003060
003F80
003010
1FFFF8
102018
1021A0
107F80
17A020
102020
103FF0
100000
100000
30C600
30C400
30C410
208410
218410
430418
4607F8
980000
ENDCHAR
STARTCHAR 2EC2
ENCODING 11970
SWIDTH 1000 0
DWIDTH 24 0
BBX 13 20 5 -1
BITMAP
0300
0200
0200
0210
3DF0
0060
00C0
0090
0118
0330
0FE0
1B30
2318
C308
0300
0300
0300
0300
0300
0300
ENDCHAR
STARTCHAR 2EC3
ENCODING 11971
SWIDTH 1000 0
DWIDTH 24 0
BBX 21 11 2 6
BITMAP
000030
FFFFF8
010800
010800
010840
3FFFC0
210840
210840
210840
3FFFC0
200040
ENDCHAR
STARTCHAR 2EC4
ENCODING 11972
SWIDTH 1000 0
DWIDTH 24 0
BBX 22 20 1 0
BITMAP
000018
FFFFFC
008800
008800
008800
008810
3FFFF8
208830
218830
2188B0
2108B0
2108B0
230CB0
220FF0
240030
280030
200030
200030
3FFFF0
200030
ENDCHAR
STARTCHAR 2ECA
ENCODING 11978
SWIDTH 1000 0
DWIDTH 24 0
BBX 13 21 5 -2
BITMAP
0030
3FE0
3020
3020
3020
3020
3020
3FE0
0300
0300
3330
33F8
3300
3300
3300
3300
3318
33E0
7F00
F000
4000
ENDCHAR
STARTCHAR 2ECC
ENCODING 11980
SWIDTH 1000 0
DWIDTH 24 0
BBX 22 21 1 -2
BITMAP
200000
180000
0C0000
0C0000
000000
000000
000000
000000
080000
FC0000
0C0000
0C0000
0C0000
0C0000
0C0000
0C0000
0C0000
320000
E1C00C
403FF8
400000
ENDCHAR
STARTCHAR 2ECD
ENCODING 11981
SWIDTH 1000 0
DWIDTH 24 0
BBX 22 21 1 -2
BITMAP
100000
0C0000
060000
060000
400000
300000
180000
080000
000000
000000
0C0000
7C0000
0C0000
0C0000
0C0000
0C0000
0C0000
320000
E1C00C
403FF8
400000
ENDCHAR
STARTCHAR 2ECF
ENCODING 11983
SWIDTH 1000 0
DWIDTH 24 0
BBX 9 21 9 -2
BITMAP
0100
FF00
8200
8200
8400
8400
8800
8400
8200
8100
8100
8180
8180
8100
BF00
8600
8000
8000
8000
8000
8000
ENDCHAR
STARTCHAR 2ED1
ENCODING 11985
SWIDTH 1000 0
DWIDTH 24 0
BBX 22 21 1 -1
BITMAP
040060
07FF80
040080
0401C0
07FE00
040080
0400C0
07FFC0
040000
040018
FFFFFC
042040
041060
0418C0
040900
040600
040300
05F1C0
7F00F0
700038
400000
ENDCHAR
STARTCHAR 2ED2
ENCODING 11986
SWIDTH 1000 0
DWIDTH 24 0
BBX 21 21 2 -1
BITMAP
000080
0800C0
0FFFC0
0C0000
0C0100
0FFF80
0C0000
0C0000
0C0300
0FFC00
0C0000
0C0030
FFFFF8
018000
010000
030600
020100
0600C0
047FE0
7FC060
200030
ENDCHAR
STARTCHAR 2ED6
ENCODING 11990
SWIDTH 1000 0
DWIDTH 24 0
BBX 9 21 9 -2
BITMAP
0100
FF00
8200
8200
8400
8400
8800
8400
8200
8100
8100
8180
8180
8100
BF00
8600
8000
8000
8000
8000
8000
ENDCHAR
STARTCHAR 2ED8
ENCODING 11992
SWIDTH 1000 0
DWIDTH 24 0
BBX 20 22 2 -2
BITMAP
004000
006000
006060
3FFF80
006080
3FFFC0
006000
006030
FFFFF0
000000
000180
0FFF00
080100
0FFF00
080100
080100
0FFF00
080100
080100
082100
081F00
080000
ENDCHAR
STARTCHAR 2EDE
ENCODING 11998
SWIDTH 1000 0
DWIDTH 24 0
BBX 12 21 5 -1
BITMAP
0300
0700
0480
0C60
18B0
17F0
3010
6060
9FC0
1040
1FC0
1040
1040
1FC0
1040
1020
1FC0
1020
1030
1FC0
1000
ENDCHAR
STARTCHAR 2EDF
ENCODING 11999
SWIDTH 1000 0
DWIDTH 24 0
BBX 13 22 5 -1
BITMAP
0200
0300
0780
0460
0BB0
1B18
3300
7FE0
D060
1060
1060
1FE0
1060
1060
1FE0
1060
1080
1040
1060
17B0
F830
4000
ENDCHAR
STARTCHAR 2EE4
ENCODING 12004
SWIDTH 1000 0
DWIDTH 24 0
BBX 21 21 1 -2
BITMAP
007000
006000
104060
1FBFE0
183060
183060
1FFFE0
183060
183060
183060
1FFFE0
199860
199900
019980
011900
031A68
031FE8
061C28
0C1818
300FF8
C00000
ENDCHAR
STARTCHAR 2EE8
ENCODING 12008
SWIDTH 1000 0
DWIDTH 24 0
BBX 21 22 1 -2
BITMAP
003800
003000
003030
3FFFF0
003000
003040
1FFFE0
003000
003018
7FFFF8
00C000
008000
01FF80
030180
068300
0C4600
303C00
403800
00E700
0381F0
0E0038
F00000
ENDCHAR
STARTCHAR 2EE9
ENCODING 12009
SWIDTH 1000 0
DWIDTH 24 0
BBX 21 22 1 -2
BITMAP
018700
010600
010630
3FFFF0
010600
010600
010618
FFFFF8
003000
103040
1FFFE0
183040
183040
1FFFC0
183040
183040
1FFFC0
180040
038780
0700F0
380038
C00000
ENDCHAR
STARTCHAR 2EEB
ENCODING 12011
SWIDTH 1000 0
DWIDTH 24 0
BBX 21 21 1 -1
BITMAP
003800
003010
003010
7FFFF8
020300
010600
00CC00
003800
006C00
0183E0
0E00F8
F60080
07FF80
060080
060080
060080
05FF80
040080
080080
100080
600080
ENDCHAR
STARTCHAR 2EED
ENCODING 12013
SWIDTH 1000 0
DWIDTH 24 0
BBX 22 21 1 -1
BITMAP
001800
061000
041060
041F80
041000
041018
FFFFFC
000000
303138
233330
21B430
2031B0
27FFB0
207030
20F830
20B730
2333B0
2631B0
283030
200030
3FFFF0
ENDCHAR
STARTCHAR 2EEF
ENCODING 12015
SWIDTH 1000 0
DWIDTH 24 0
BBX 19 21 3 -1
BITMAP
00E000
00C000
00C080
FFFFC0
080800
040C00
061800
061060
F9EF80
000100
3FFF80
208100
208100
3FFF00
208100
208100
3FFF40
208140
208040
00C060
00FFE0
ENDCHAR
STARTCHAR 2EF2
ENCODING 12018
SWIDTH 1000 0
DWIDTH 24 0
BBX 22 21 1 -1
BITMAP
030000
060800
07FC00
0C1800
183040
1FEFC0
282040
CFFFC0
082040
0FFFC0
082040
002020
1FFFE0
102020
1FFFE0
102020
102028
1FFFE8
002008
00201C
003FFC
ENDCHAR
STARTCHAR 2F00
ENCODING 12032
SWIDTH 1000 0
DWIDTH 24 0
BBX 20 3 2 9
BITMAP
000020
000070
FFFFF0
ENDCHAR
STARTCHAR 2F01
ENCODING 12033
SWIDTH 1000 0
DWIDTH 24 0
BBX 2 20 11 -1
BITMAP
C0
C0
C0
C0
C0
C0
C0
C0
C0
C0
C0
C0
C0
C0
C0
C0
C0
C0
C0
C0
ENDCHAR
STARTCHAR 2F02
ENCODING 12034
SWIDTH 1000 0
DWIDTH 24 0
BBX 8 7 8 7
BITMAP
C0
30
18
0C
06
03
03
ENDCHAR
STARTCHAR 2F03
ENCODING 12035
SWIDTH 1000 0
DWIDTH 24 0
BBX 6 20 8 -2
BITMAP
0C
0C
0C
0C
0C
0C
0C
0C
0C
0C
08
08
08
18
18
10
30
20
40
80
ENDCHAR
STARTCHAR 2F04
ENCODING 12036
SWIDTH 1000 0
DWIDTH 24 0
BBX 18 18 3 0
BITMAP
000800
7FFC00
001C00
003000
006000
00C000
018000
030000
060000
0C0000
180000
300000
600000
400080
C00080
C00080
C001C0
3FFFC0
ENDCHAR
STARTCHAR 2F05
ENCODING 12037
SWIDTH 1000 0
DWIDTH 24 0
BBX 6 20 7 -1
BITMAP
0C
0C
0C
0C
0C
0C
0C
0C
0C
0C
0C
0C
0C
0C
0C
0C
0C
0C
FC
18
ENDCHAR
STARTCHAR 2F06
ENCODING 12038
SWIDTH 1000 0
DWIDTH 24 0
BBX 20 14 2 3
BITMAP
000180
3FFFC0
000000
000000
000000
000000
000000
000000
000000
000000
000000
000020
000070
FFFFF0
ENDCHAR
STARTCHAR 2F07
ENCODING 12039
SWIDTH 1000 0
DWIDTH 24 0
BBX 20 7 2 10
BITMAP
006000
006000
004000
004000
004020
004030
FFFFF0
ENDCHAR
STARTCHAR 2F08
ENCODING 12040
SWIDTH 1000 0
DWIDTH 24 0
BBX 22 20 1 -1
BITMAP
003000
002000
002000
002000
003000
003000
003000
007000
007000
006800
004800
00C400
008400
018200
010300
030180
0600E0
080070
30003C
C00008
ENDCHAR
STARTCHAR 2F09
ENCODING 12041
SWIDTH 1000 0
DWIDTH 24 0
BBX 20 18 2 0
BITMAP
070C00
060800
060800
060800
060800
060800
060800
060800
060800
060800
060800
040820
0C0820
080820
180820
300830
600FF0
800000
ENDCHAR
STARTCHAR 2F0A
ENCODING 12042
SWIDTH 1000 0
DWIDTH 24 0
BBX 20 19 2 -1
BITMAP
003000
07E000
002000
002000
002000
002000
007000
007000
005000
00C800
008800
018400
030600
020300
060180
0C00C0
100060
600030
800010
ENDCHAR
STARTCHAR 2F0B
ENCODING 12043
SWIDTH 1000 0
DWIDTH 24 0
BBX 22 19 1 -1
BITMAP
000600
007C00
000400
000400
038400
030200
030200
020200
020200
060100
060100
040080
0C0080
080040
180060
300030
200018
40000C
800000
ENDCHAR
STARTCHAR 2F0C
ENCODING 12044
SWIDTH 1000 0
DWIDTH 24 0
BBX 18 20 3 -1
BITMAP
800080
FFFFC0
C000C0
C000C0
C000C0
C000C0
C000C0
C000C0
C000C0
C000C0
C000C0
C000C0
C000C0
C000C0
C000C0
C000C0
C000C0
C000C0
C01FC0
C00180
ENDCHAR
STARTCHAR 2F0D
ENCODING 12045
SWIDTH 1000 0
DWIDTH 24 0
BBX 21 6 1 8
BITMAP
000010
3FFFF8
200018
600030
600020
C00040
ENDCHAR
STARTCHAR 2F0E
ENCODING 12046
SWIDTH 1000 0
DWIDTH 24 0
BBX 8 19 8 -1
BITMAP
C0
60
31
12
02
04
04
04
08
18
10
30
70
20
30
30
30
30
30
ENDCHAR
STARTCHAR 2F0F
ENCODING 12047
SWIDTH 1000 0
DWIDTH 24 0
BBX 21 19 2 -1
BITMAP
080600
0FFC00
0C0400
0C0400
0C0400
0C0400
0C0400
0C0400
0C0400
0C0400
0C0400
080400
080410
180410
100410
300410
200430
4007F8
800000
ENDCHAR
STARTCHAR 2F10
ENCODING 12048
SWIDTH 1000 0
DWIDTH 24 0
BBX 18 19 3 -1
BITMAP
E000C0
C000C0
C000C0
C000C0
C000C0
C000C0
C000C0
C000C0
C000C0
C000C0
C000C0
C000C0
C000C0
C000C0
C000C0
C000C0
FFFFC0
C000C0
C000C0
ENDCHAR
STARTCHAR 2F11
ENCODING 12049
SWIDTH 1000 0
DWIDTH 24 0
BBX 18 19 3 -2
BITMAP
000080
FFFFC0
030080
030080
030080
030080
030080
030080
030080
020080
060080
060180
040180
0C0180
080180
180180
300300
60FF00
800E00
ENDCHAR
STARTCHAR 2F12
ENCODING 12050
SWIDTH 1000 0
DWIDTH 24 0
BBX 19 21 2 -2
BITMAP
008000
00C000
008000
008000
008000
008040
00FFE0
7F8040
008040
008040
018040
018040
010040
030040
0300C0
0600C0
0600C0
0C00C0
184180
303F80
C00300
ENDCHAR
STARTCHAR 2F13
ENCODING 12051
SWIDTH 1000 0
DWIDTH 24 0
BBX 19 21 2 -1
BITMAP
060000
060000
0C0000
0C0060
0FFFE0
180060
100060
300040
600040
400040
800040
000040
000040
0000C0
0000C0
0000C0
000080
000180
000180
007F00
000600
ENDCHAR
STARTCHAR 2F14
ENCODING 12052
SWIDTH 1000 0
DWIDTH 24 0
BBX 15 19 6 -1
BITMAP
C000
8000
8000
8018
8038
80E0
8180
8600
9800
E000
8000
8000
8000
8004
8004
8004
8006
800E
FFFE
ENDCHAR
STARTCHAR 2F15
ENCODING 12053
SWIDTH 1000 0
DWIDTH 24 0
BBX 19 20 3 -1
BITMAP
800180
FFFE00
C00000
C00000
C00000
C00000
C00000
C00000
C00000
C00000
C00000
C00000
C00000
C00000
C00000
C00000
C000C0
FFFFE0
C00000
C00000
ENDCHAR
STARTCHAR 2F16
ENCODING 12054
SWIDTH 1000 0
DWIDTH 24 0
BBX 18 17 3 1
BITMAP
0000C0
FFFF00
300000
300000
300000
300000
300000
300000
300000
300000
300000
300000
300000
300000
300000
3001C0
1FFFC0
ENDCHAR
STARTCHAR 2F17
ENCODING 12055
SWIDTH 1000 0
DWIDTH 24 0
BBX 20 20 2 -1
BITMAP
007000
006000
006000
006000
006000
006000
006000
006000
006030
FFFFC0
006000
006000
006000
006000
006000
006000
006000
006000
006000
006000
ENDCHAR
STARTCHAR 2F18
ENCODING 12056
SWIDTH 1000 0
DWIDTH 24 0
BBX 10 20 9 -1
BITMAP
E000
C000
C000
C000
C000
C000
C000
C000
F800
CE00
C300
C1C0
C0C0
C040
C000
C000
C000
C000
C000
C000
ENDCHAR
STARTCHAR 2F19
ENCODING 12057
SWIDTH 1000 0
DWIDTH 24 0
BBX 11 20 7 -2
BITMAP
8040
FFE0
C040
C040
C040
C040
C040
C040
C040
C040
C040
C040
C040
C040
C040
C7C0
C080
C000
C000
C000
ENDCHAR
STARTCHAR 2F1A
ENCODING 12058
SWIDTH 1000 0
DWIDTH 24 0
BBX 21 20 1 -1
BITMAP
100030
1FFFF8
180000
180000
180000
180000
180000
180000
180000
100000
100000
100000
100000
300000
300000
200000
200000
400000
400000
800000
ENDCHAR
STARTCHAR 2F1B
ENCODING 12059
SWIDTH 1000 0
DWIDTH 24 0
BBX 19 19 3 -1
BITMAP
006000
006000
00C000
00C000
008000
018000
018000
010000
030000
020000
020C00
060600
040300
040100
080180
081FC0
FFE0C0
C00060
000060
ENDCHAR
STARTCHAR 2F1C
ENCODING 12060
SWIDTH 1000 0
DWIDTH 24 0
BBX 21 19 1 -1
BITMAP
0000C0
1FFF80
040180
020180
020100
020300
010200
018600
008400
004C00
007800
003000
003800
006C00
01C700
0301C0
0600F0
180038
E00008
ENDCHAR
STARTCHAR 2F1D
ENCODING 12061
SWIDTH 1000 0
DWIDTH 24 0
BBX 16 17 4 0
BITMAP
8001
FFFF
C003
C003
C003
C003
C003
C003
C003
C003
C003
C003
C003
C003
C003
FFFF
C003
ENDCHAR
STARTCHAR 2F1E
ENCODING 12062
SWIDTH 1000 0
DWIDTH 24 0
BBX 19 21 3 -2
BITMAP
800040
FFFFE0
8000C0
8000C0
8000C0
8000C0
8000C0
8000C0
8000C0
8000C0
8000C0
8000C0
8000C0
8000C0
8000C0
8000C0
8000C0
8000C0
FFFFC0
8000C0
8000C0
ENDCHAR
STARTCHAR 2F1F
ENCODING 12063
SWIDTH 1000 0
DWIDTH 24 0
BBX 20 19 2 0
BITMAP
007000
006000
006000
006000
006000
006000
0060C0
7FFFE0
006000
006000
006000
006000
006000
006000
006000
006000
006020
006070
FFFFF0
ENDCHAR
STARTCHAR 2F20
ENCODING 12064
SWIDTH 1000 0
DWIDTH 24 0
BBX 20 19 2 0
BITMAP
006000
006000
006000
006000
006000
006020
006070
FFFFF0
006000
006000
006000
006000
006000
006000
006000
006000
006040
0060C0
7FFFE0
ENDCHAR
STARTCHAR 2F21
ENCODING 12065
SWIDTH 1000 0
DWIDTH 24 0
BBX 21 21 1 -2
BITMAP
00E000
00C000
008000
018080
01FFC0
010180
030100
070300
048300
0C8600
084400
106C00
203800
003000
007800
00EC00
018700
0301C0
0C00F0
300038
C00000
ENDCHAR
STARTCHAR 2F22
ENCODING 12066
SWIDTH 1000 0
DWIDTH 24 0
BBX 21 21 1 -2
BITMAP
006000
00C000
10C000
088180
09FF80
050180
070300
020300
060600
050600
098C00
108800
205800
407000
007000
00CC00
018700
0303C0
0C00F0
300038
C00000
ENDCHAR
STARTCHAR 2F23
ENCODING 12067
SWIDTH 1000 0
DWIDTH 24 0
BBX 19 21 2 -2
BITMAP
006000
00C000
00C000
008040
01FFE0
0100C0
0300C0
060180
070180
0CC300
186300
303600
201400
C00C00
001800
003000
006000
018000
030000
0C0000
700000
ENDCHAR
STARTCHAR 2F24
ENCODING 12068
SWIDTH 1000 0
DWIDTH 24 0
BBX 20 20 2 -1
BITMAP
004000
006000
004000
004000
004000
004020
004030
7FFFC0
006000
00D000
00D000
00D800
018800
018C00
030600
020300
040180
0800E0
300070
C00010
ENDCHAR
STARTCHAR 2F25
ENCODING 12069
SWIDTH 1000 0
DWIDTH 24 0
BBX 22 22 1 -2
BITMAP
006000
006000
00C000
00C000
008000
018018
FFFFFC
010180
030100
020300
060300
040200
0C0600
0E0600
19CC00
103800
001E00
003380
0060E0
018070
0E0010
700000
ENDCHAR
STARTCHAR 2F26
ENCODING 12070
SWIDTH 1000 0
DWIDTH 24 0
BBX 22 20 1 -2
BITMAP
0000C0
0FFFC0
000300
000600
000800
003800
003000
003000
003018
FFFFFC
003000
003000
003000
003000
003000
003000
003000
043000
03F000
004000
ENDCHAR
STARTCHAR 2F27
ENCODING 12071
SWIDTH 1000 0
DWIDTH 24 0
BBX 22 9 1 8
BITMAP
003800
003000
003000
203018
3FFFFC
20001C
600030
600020
C00000
ENDCHAR
STARTCHAR 2F28
ENCODING 12072
SWIDTH 1000 0
DWIDTH 24 0
BBX 19 20 3 -1
BITMAP
000C00
000800
000800
000800
000840
000860
FFFF80
000800
100800
080800
0C0800
060800
020800
020800
000800
000800
000800
000800
03F800
003800
ENDCHAR
STARTCHAR 2F29
ENCODING 12073
SWIDTH 1000 0
DWIDTH 24 0
BBX 20 20 2 -1
BITMAP
007000
006000
006000
006000
006000
086200
0C6300
186180
186080
1060C0
306060
206060
206030
406030
406030
806010
006000
006000
07E000
01C000
ENDCHAR
STARTCHAR 2F2A
ENCODING 12074
SWIDTH 1000 0
DWIDTH 24 0
BBX 20 22 2 -2
BITMAP
00C000
00C000
00C000
00C000
00C020
00C060
FFFFF0
00D800
00D000
00D000
00D000
009000
009000
019000
011000
031000
021020
061020
0C1020
101030
601FF0
800000
ENDCHAR
STARTCHAR 2F2B
ENCODING 12075
SWIDTH 1000 0
DWIDTH 24 0
BBX 19 20 2 -1
BITMAP
200040
3FFFE0
300040
300040
300040
300040
300040
3FFFC0
300000
300000
300000
300000
200000
200000
200000
600000
400000
400000
800000
800000
ENDCHAR
STARTCHAR 2F2C
ENCODING 12076
SWIDTH 1000 0
DWIDTH 24 0
BBX 17 20 4 -1
BITMAP
01C000
018000
018000
818180
C18100
818100
818100
818100
818100
818100
818100
818100
FF7F00
810100
030000
020000
060000
0C0000
180000
600000
ENDCHAR
STARTCHAR 2F2D
ENCODING 12077
SWIDTH 1000 0
DWIDTH 24 0
BBX 19 20 3 -1
BITMAP
00C000
00C000
00C000
00C000
E0C0E0
C0C0C0
C0C0C0
C0C0C0
C0C0C0
C0C0C0
C0C0C0
C0C0C0
C0C0C0
C0C0C0
C0C0C0
C0C0C0
C0C0C0
FFFFC0
C000C0
C000C0
ENDCHAR
STARTCHAR 2F2E
ENCODING 12078
SWIDTH 1000 0
DWIDTH 24 0
BBX 19 18 2 0
BITMAP
002080
0C30E0
186080
184180
10C100
208200
218200
410400
820400
410400
208200
30C100
104180
186080
0820C0
0C3040
0C3060
0C1060
ENDCHAR
STARTCHAR 2F2F
ENCODING 12079
SWIDTH 1000 0
DWIDTH 24 0
BBX 20 18 2 0
BITMAP
000040
0000C0
7FFFE0
006000
006000
006000
006000
006000
006000
006000
006000
006000
006000
006000
006000
006020
006030
FFFFF0
ENDCHAR
STARTCHAR 2F30
ENCODING 12080
SWIDTH 1000 0
DWIDTH 24 0
BBX 18 18 4 0
BITMAP
000200
FFFE00
000200
000200
000200
000200
000200
400200
7FFE00
400200
400000
400000
400080
400080
400080
400080
4001C0
7FFFC0
ENDCHAR
STARTCHAR 2F31
ENCODING 12081
SWIDTH 1000 0
DWIDTH 24 0
BBX 17 21 4 -2
BITMAP
01C000
018000
018000
018000
018180
FFFF00
818100
818100
818100
818100
818100
818100
818100
818100
818100
819F00
818700
018000
018000
018000
018000
ENDCHAR
STARTCHAR 2F32
ENCODING 12082
SWIDTH 1000 0
DWIDTH 24 0
BBX 19 19 3 0
BITMAP
000180
7FFE00
00C000
00C000
00C000
00C000
00C000
00C040
00C0E0
FFFF00
00C000
00C000
00C000
00C000
00C000
00C000
00C000
00C000
00C000
ENDCHAR
STARTCHAR 2F33
ENCODING 12083
SWIDTH 1000 0
DWIDTH 24 0
BBX 19 19 3 0
BITMAP
00E000
00C000
018000
018000
030400
420600
240C00
181800
0C1800
063000
026000
00C000
008400
010200
020180
0401C0
080FC0
FFF060
E00060
ENDCHAR
STARTCHAR 2F34
ENCODING 12084
SWIDTH 1000 0
DWIDTH 24 0
BBX 21 22 1 -2
BITMAP
003800
003000
003000
003030
1FFFF8
100000
100000
100000
100000
100000
100000
100000
100000
300000
300000
300000
200000
200000
600000
400000
400000
800000
ENDCHAR
STARTCHAR 2F35
ENCODING 12085
SWIDTH 1000 0
DWIDTH 24 0
BBX 22 21 1 -2
BITMAP
060000
7E0000
060000
0C0000
0C0000
180000
180000
310000
2F0000
030000
020000
220000
260000
160000
0C0000
0C0000
1E0000
130000
30E004
401FF8
800000
ENDCHAR
STARTCHAR 2F36
ENCODING 12086
SWIDTH 1000 0
DWIDTH 24 0
BBX 19 19 3 -1
BITMAP
060E00
040C00
040C00
040C00
040C00
040C00
040C40
040C60
FFFF80
0C0C00
0C0C00
0C0C00
080C00
180C00
180C00
300C00
200C00
400C00
800000
ENDCHAR
STARTCHAR 2F37
ENCODING 12087
SWIDTH 1000 0
DWIDTH 24 0
BBX 20 20 2 -1
BITMAP
01C000
019000
018C00
018600
008300
008060
0080F0
01FF00
FEC000
00C000
004000
006000
002000
003020
001020
001820
000C20
000760
0003E0
0000E0
ENDCHAR
STARTCHAR 2F38
ENCODING 12088
SWIDTH 1000 0
DWIDTH 24 0
BBX 18 20 3 -1
BITMAP
000300
FFFF80
000300
000300
000300
200300
3FFF00
300300
200000
200000
600080
7FFFC0
C00080
400080
000180
000180
000180
000100
00C300
003E00
ENDCHAR
STARTCHAR 2F39
ENCODING 12089
SWIDTH 1000 0
DWIDTH 24 0
BBX 20 18 2 0
BITMAP
000200
3FFF00
000200
000200
000200
000200
000200
000200
000200
3FFE00
000200
000200
000200
000200
000200
000220
000220
FFFFF0
ENDCHAR
STARTCHAR 2F3A
ENCODING 12090
SWIDTH 1000 0
DWIDTH 24 0
BBX 15 20 5 -1
BITMAP
0060
00F0
0180
0700
0C00
3010
C038
0060
00C0
0380
0600
1804
600E
801C
0038
0060
01C0
0700
1C00
E000
ENDCHAR
STARTCHAR 2F3B
ENCODING 12091
SWIDTH 1000 0
DWIDTH 24 0
BBX 13 21 5 -2
BITMAP
00E0
01C0
0300
0610
0C38
3030
C060
00C0
0180
0600
0F80
1B00
6300
8300
0300
0300
0300
0300
0300
0300
0300
ENDCHAR
STARTCHAR 2F3C
ENCODING 12092
SWIDTH 1000 0
DWIDTH 24 0
BBX 22 20 1 -1
BITMAP
018000
006000
003000
001800
000C00
01CC00
018000
018080
118040
118060
118030
118030
118018
318018
61808C
61808C
C18080
018180
018180
00FF80
ENDCHAR
STARTCHAR 2F3D
ENCODING 12093
SWIDTH 1000 0
DWIDTH 24 0
BBX 20 20 2 -1
BITMAP
00C000
008C00
008600
008300
008320
008070
01FF80
FEC000
00C1C0
004100
004300
006600
002C00
003800
003010
00F820
018C20
070720
1801E0
600070
ENDCHAR
STARTCHAR 2F3E
ENCODING 12094
SWIDTH 1000 0
DWIDTH 24 0
BBX 19 19 2 -1
BITMAP
000060
7FFF80
000000
000000
0000C0
1FFF80
100080
100080
100080
100080
1FFF80
100080
300080
300000
200000
200000
400000
400000
800000
ENDCHAR
STARTCHAR 2F3F
ENCODING 12095
SWIDTH 1000 0
DWIDTH 24 0
BBX 20 20 2 -1
BITMAP
000300
003F80
07E000
786000
006000
006040
006060
7FFFE0
006000
006000
006000
006030
FFFFC0
006000
006000
006000
006000
006000
07E000
00C000
ENDCHAR
STARTCHAR 2F40
ENCODING 12096
SWIDTH 1000 0
DWIDTH 24 0
BBX 20 20 2 -1
BITMAP
007000
006000
006020
006070
7FFF80
006000
006000
006000
006180
1F9F00
040300
020600
010C00
019800
00F000
007000
01DC00
070780
1C01F0
E00020
ENDCHAR
STARTCHAR 2F41
ENCODING 12097
SWIDTH 1000 0
DWIDTH 24 0
BBX 20 21 2 -2
BITMAP
006000
004000
004000
0040C0
007F00
004000
004000
004100
7FFF80
080300
040300
020600
030C00
010800
009800
006000
00F000
019E00
0607C0
3800F0
C00000
ENDCHAR
STARTCHAR 2F42
ENCODING 12098
SWIDTH 1000 0
DWIDTH 24 0
BBX 20 22 2 -2
BITMAP
006000
006000
006000
006020
006030
FFFFF0
040300
040200
040600
020400
030C00
010C00
009800
00D000
007000
007000
00D800
018E00
060380
0C01E0
300070
C00000
ENDCHAR
STARTCHAR 2F43
ENCODING 12099
SWIDTH 1000 0
DWIDTH 24 0
BBX 19 21 2 -2
BITMAP
000E00
000C00
060C00
038C00
018C00
00CC00
000C00
100C00
0C0C00
060C00
060C00
020C60
000DE0
003E00
0FC400
F00400
000400
000400
000400
000400
000400
ENDCHAR
STARTCHAR 2F44
ENCODING 12100
SWIDTH 1000 0
DWIDTH 24 0
BBX 20 20 2 -2
BITMAP
000100
000F80
10F800
1F0000
180000
180000
180000
180020
180070
1FFF80
180800
180800
180800
100800
100800
300800
200800
600800
400800
800800
ENDCHAR
STARTCHAR 2F45
ENCODING 12101
SWIDTH 1000 0
DWIDTH 24 0
BBX 19 21 3 -2
BITMAP
00C000
00C000
00C000
00C040
00C060
FF3F80
010000
010000
010000
010180
03FFC0
030180
030180
020180
060180
060180
0C0100
080100
180100
204300
C03E00
ENDCHAR
STARTCHAR 2F46
ENCODING 12102
SWIDTH 1000 0
DWIDTH 24 0
BBX 20 20 2 -1
BITMAP
000180
1FFE00
004000
004000
004000
004000
004060
FFFFF0
00C000
00F800
00B000
00B000
01B000
013000
033020
063020
0C3020
181030
601FF0
800000
ENDCHAR
STARTCHAR 2F47
ENCODING 12103
SWIDTH 1000 0
DWIDTH 24 0
BBX 14 19 5 -1
BITMAP
8004
FFFC
800C
800C
800C
800C
800C
800C
FFFC
800C
800C
800C
800C
800C
800C
800C
FFFC
800C
800C
ENDCHAR
STARTCHAR 2F48
ENCODING 12104
SWIDTH 1000 0
DWIDTH 24 0
BBX 16 19 4 -1
BITMAP
8003
FFFF
C003
C002
C002
C002
C002
C002
C032
FFC2
C002
C002
C002
C002
C002
C002
FFFE
C002
C002
ENDCHAR
STARTCHAR 2F49
ENCODING 12105
SWIDTH 1000 0
DWIDTH 24 0
BBX 18 20 2 -2
BITMAP
000080
0FFFC0
080180
080180
080180
080180
0FFF80
080180
080180
080180
080180
080180
0FFF80
080180
180180
100180
100180
200180
603F80
C00300
ENDCHAR
STARTCHAR 2F4A
ENCODING 12106
SWIDTH 1000 0
DWIDTH 24 0
BBX 22 20 1 -1
BITMAP
003800
003000
003000
003000
003010
003038
3FFFC0
007800
00F400
00B400
01B200
033100
023180
0430E0
083070
10303C
203008
C03000
003000
003000
ENDCHAR
STARTCHAR 2F4B
ENCODING 12107
SWIDTH 1000 0
DWIDTH 24 0
BBX 20 20 2 -1
BITMAP
070000
060000
040000
0C0000
0C0020
0BFFE0
104040
1060C0
206080
406100
80E000
00D000
009000
018800
010400
030600
060300
0C01C0
1000F0
E00020
ENDCHAR
STARTCHAR 2F4C
ENCODING 12108
SWIDTH 1000 0
DWIDTH 24 0
BBX 20 19 2 1
BITMAP
003800
003000
003000
003000
003000
0C3000
083000
0830C0
083FE0
083000
083000
083000
083000
083000
083000
083000
083000
083020
FFFFF0
ENDCHAR
STARTCHAR 2F4D
ENCODING 12109
SWIDTH 1000 0
DWIDTH 24 0
BBX 19 20 2 -1
BITMAP
000060
7FFF80
018000
010000
030100
03FF80
060300
0C0200
0C0600
130C00
218C00
C0D800
007000
006000
00C000
018000
060000
0C0000
300000
C00000
ENDCHAR
STARTCHAR 2F4E
ENCODING 12110
SWIDTH 1000 0
DWIDTH 24 0
BBX 20 21 2 -2
BITMAP
040C00
07FC00
060C00
060C00
060C20
040C20
040C20
0C0C30
1807F0
300000
C00200
3FFF00
040300
020600
010C00
009800
007000
00F800
038F00
1E01F0
E00030
ENDCHAR
STARTCHAR 2F4F
ENCODING 12111
SWIDTH 1000 0
DWIDTH 24 0
BBX 20 19 2 -1
BITMAP
100180
1FFF80
186180
184180
104100
104100
104110
104110
FFFFE0
304100
304100
30C100
20C100
20C100
208130
7F7FC0
600300
006300
001E00
ENDCHAR
STARTCHAR 2F50
ENCODING 12112
SWIDTH 1000 0
DWIDTH 24 0
BBX 22 20 1 -1
BITMAP
180800
1C0C00
180C00
180C00
180C00
180C30
184C68
184CC0
1F8F00
180C00
180C00
180C00
180C00
180C08
180C08
186C08
1B8C08
7C0C18
E00FFC
400000
ENDCHAR
STARTCHAR 2F51
ENCODING 12113
SWIDTH 1000 0
DWIDTH 24 0
BBX 20 20 2 -1
BITMAP
000200
001F00
00F000
078000
788000
008080
0080C0
00FF00
7F8000
008000
008030
0080F0
01FF00
FE8000
008020
008020
008020
008020
00C030
00FFF0
ENDCHAR
STARTCHAR 2F52
ENCODING 12114
SWIDTH 1000 0
DWIDTH 24 0
BBX 20 21 2 -2
BITMAP
000300
001F80
11F000
1E3000
103000
101000
101000
101000
101060
1FFF80
101800
101800
100800
100C00
100C20
100620
100620
11E320
7E01A0
E000F0
800070
ENDCHAR
STARTCHAR 2F53
ENCODING 12115
SWIDTH 1000 0
DWIDTH 24 0
BBX 21 22 2 -2
BITMAP
060000
0C0000
0C00C0
0FFFE0
180000
100000
300180
63FE00
400000
800200
3FFF00
000300
000300
000300
000300
000110
000110
000190
000090
0000D0
000078
000038
ENDCHAR
STARTCHAR 2F54
ENCODING 12116
SWIDTH 1000 0
DWIDTH 24 0
BBX 20 20 2 -1
BITMAP
007000
006000
006000
006000
007070
0370E0
7F70C0
026900
066A00
066400
046600
0C6200
086300
106180
3060E0
606070
806030
006000
03E000
00C000
ENDCHAR
STARTCHAR 2F55
ENCODING 12117
SWIDTH 1000 0
DWIDTH 24 0
BBX 20 21 2 -2
BITMAP
007000
006000
006000
006000
006060
0860C0
086180
086100
186300
185600
305400
30D000
60C800
008C00
018400
010200
030180
0600C0
180070
700030
800000
ENDCHAR
STARTCHAR 2F56
ENCODING 12118
SWIDTH 1000 0
DWIDTH 24 0
BBX 21 20 2 -1
BITMAP
000180
001FC0
1FE200
106200
104200
104200
104200
104200
104100
104100
104100
104180
104080
304080
3040C0
204060
604060
404030
C04038
804010
ENDCHAR
STARTCHAR 2F57
ENCODING 12119
SWIDTH 1000 0
DWIDTH 24 0
BBX 20 19 2 0
BITMAP
070C00
060300
0C0180
0800C0
100060
300660
640430
820C00
010C00
011800
009000
007000
006000
00F000
019800
030E00
060380
1800F0
E00020
ENDCHAR
STARTCHAR 2F58
ENCODING 12120
SWIDTH 1000 0
DWIDTH 24 0
BBX 20 21 2 -2
BITMAP
000380
080300
060E00
01D800
003000
00FC00
038700
0E0380
700080
040600
020600
010C00
010800
009800
007000
007000
00D800
038F00
0603E0
380070
C00000
ENDCHAR
STARTCHAR 2F59
ENCODING 12121
SWIDTH 1000 0
DWIDTH 24 0
BBX 14 22 4 -2
BITMAP
000C
1C0C
180C
180C
180C
180C
180C
1FFC
180C
180C
000C
000C
FFFC
0C0C
0C0C
0C0C
080C
180C
100C
300C
600C
800C
ENDCHAR
STARTCHAR 2F5A
ENCODING 12122
SWIDTH 1000 0
DWIDTH 24 0
BBX 20 22 2 -2
BITMAP
001000
1C1800
181000
181000
181000
181000
181060
1FFFF0
180000
180000
180000
180400
1FFE00
180400
180400
100400
100400
300400
200400
600400
400400
800400
ENDCHAR
STARTCHAR 2F5B
ENCODING 12123
SWIDTH 1000 0
DWIDTH 24 0
BBX 20 20 2 -1
BITMAP
000040
0000E0
3FFF00
000800
0C0800
180800
180800
180820
100830
1FFFC0
006800
00C800
018800
030800
060800
0C0800
180800
600800
81F800
003800
ENDCHAR
STARTCHAR 2F5C
ENCODING 12124
SWIDTH 1000 0
DWIDTH 24 0
BBX 20 21 2 -2
BITMAP
007000
086000
0C6000
186000
186000
1060C0
1FFF00
206000
206000
406000
006000
006030
FFFFF0
006000
006000
006000
006000
006000
006000
006000
006000
ENDCHAR
STARTCHAR 2F5D
ENCODING 12125
SWIDTH 1000 0
DWIDTH 24 0
BBX 20 20 2 0
BITMAP
006000
004C00
004200
004100
004180
004020
004030
FFFFF0
006000
00E000
00E000
00D000
009800
018800
030400
030600
060380
0C01C0
300070
E00030
ENDCHAR
STARTCHAR 2F5E
ENCODING 12126
SWIDTH 1000 0
DWIDTH 24 0
BBX 20 22 2 -2
BITMAP
004000
006000
006000
006020
006070
FFFFF0
004000
00E000
00C000
018000
330700
1A0E00
060C00
071800
033000
016600
00C100
010080
0200C0
FFFF60
780060
400020
ENDCHAR
STARTCHAR 2F5F
ENCODING 12127
SWIDTH 1000 0
DWIDTH 24 0
BBX 19 18 3 1
BITMAP
0000C0
FFFFC0
00C000
00C000
00C000
00C000
00C000
00C100
00C180
3FFE00
00C000
00C800
00C400
00C600
00C300
00C300
00C040
FFFFE0
ENDCHAR
STARTCHAR 2F60
ENCODING 12128
SWIDTH 1000 0
DWIDTH 24 0
BBX 22 21 1 -2
BITMAP
0001C0
087FA0
0F8100
082100
082100
082100
082100
082080
082080
082080
182080
1820C0
182040
182460
102260
102330
302730
23F998
67819C
440188
800000
ENDCHAR
STARTCHAR 2F61
ENCODING 12129
SWIDTH 1000 0
DWIDTH 24 0
BBX 20 19 2 0
BITMAP
000060
7FFF80
060000
060000
040000
040400
07FC00
040400
058400
0C8400
0C4400
0C6400
086400
080420
080420
081420
1FE430
FC0430
8007F0
ENDCHAR
STARTCHAR 2F62
ENCODING 12130
SWIDTH 1000 0
DWIDTH 24 0
BBX 19 20 3 -1
BITMAP
1C0700
180600
180600
180600
180660
FFFF80
180600
180600
180600
180600
180600
1FFE00
180600
180600
180600
180600
180600
180600
1FFE00
180600
ENDCHAR
STARTCHAR 2F63
ENCODING 12131
SWIDTH 1000 0
DWIDTH 24 0
BBX 20 20 2 0
BITMAP
007000
086000
0C6000
086000
186000
186060
1FFFE0
306000
206000
206000
406000
406080
8060C0
1FFF00
006000
006000
006000
006000
006000
7FFFF0
ENDCHAR
STARTCHAR 2F64
ENCODING 12132
SWIDTH 1000 0
DWIDTH 24 0
BBX 20 21 1 -2
BITMAP
100030
1FFFF0
183030
183030
183030
183030
1FFFF0
183030
183030
183030
183030
183030
17FFF0
103030
103030
103030
203030
203030
603230
4001E0
800000
ENDCHAR
STARTCHAR 2F65
ENCODING 12133
SWIDTH 1000 0
DWIDTH 24 0
BBX 18 19 3 -1
BITMAP
800080
FFFFC0
C08080
C08080
C08080
C08080
C08080
C08080
FFFF80
C08080
C08080
C08080
C08080
C08080
C08080
C08080
FFFF80
C00080
C00080
ENDCHAR
STARTCHAR 2F66
ENCODING 12134
SWIDTH 1000 0
DWIDTH 24 0
BBX 20 19 2 -2
BITMAP
000040
7FFFE0
006060
0060C0
006080
006100
006000
1C6000
1860C0
187F00
186000
186000
146000
346000
226000
236000
61E000
407FF0
801FF0
ENDCHAR
STARTCHAR 2F67
ENCODING 12135
SWIDTH 1000 0
DWIDTH 24 0
BBX 21 21 1 -1
BITMAP
000800
000800
000800
080818
0FF7E0
4C0000
6C0000
2C0000
2C0000
2C0000
0C0000
0C0000
3C0000
E80000
880000
180000
180000
100000
200000
200000
400000
ENDCHAR
STARTCHAR 2F68
ENCODING 12136
SWIDTH 1000 0
DWIDTH 24 0
BBX 22 13 1 4
BITMAP
003000
1FF080
0071C0
307300
18CA38
0CC460
058640
030380
0601C0
0C0060
18003C
200008
C00000
ENDCHAR
STARTCHAR 2F69
ENCODING 12137
SWIDTH 1000 0
DWIDTH 24 0
BBX 17 22 4 -2
BITMAP
030000
030000
020000
060000
840300
FFFF80
800300
800300
800300
800300
800300
800300
FFFF00
800300
800300
800300
800300
800300
800300
FFFF00
800300
800300
ENDCHAR
STARTCHAR 2F6A
ENCODING 12138
SWIDTH 1000 0
DWIDTH 24 0
BBX 21 22 1 -2
BITMAP
001800
001000
001000
101030
1FFFF0
181030
181060
181040
181000
181080
1FFFC0
190180
190180
188300
104600
102400
301800
303C00
206700
4181E0
460078
980000
ENDCHAR
STARTCHAR 2F6B
ENCODING 12139
SWIDTH 1000 0
DWIDTH 24 0
BBX 21 17 2 0
BITMAP
2000C0
3FFFC0
3118C0
3118C0
3118C0
3118C0
3118C0
3118C0
3118C0
3118C0
3118C0
3118C0
3118C0
3118C0
3118C0
3118D0
FFFFF8
ENDCHAR
STARTCHAR 2F6C
ENCODING 12140
SWIDTH 1000 0
DWIDTH 24 0
BBX 15 20 5 -1
BITMAP
0004
FFFE
8004
8004
8004
8004
8004
FFFC
8004
8004
8004
8004
FFFC
8004
8004
8004
8004
8004
FFFC
8004
ENDCHAR
STARTCHAR 2F6D
ENCODING 12141
SWIDTH 1000 0
DWIDTH 24 0
BBX 21 21 1 -2
BITMAP
000080
1FFFC0
000380
020600
01C800
007000
003800
001810
7FFFF8
007030
005060
00D0C0
019180
031000
041000
181000
201000
C01000
021000
01F000
002000
ENDCHAR
STARTCHAR 2F6E
ENCODING 12142
SWIDTH 1000 0
DWIDTH 24 0
BBX 21 22 1 -2
BITMAP
020000
070000
060040
040060
07FFE0
0C3000
083000
183000
103000
203000
003030
7FFFF8
003000
002800
006800
004400
00C600
018300
0301C0
060070
180038
E00008
ENDCHAR
STARTCHAR 2F6F
ENCODING 12143
SWIDTH 1000 0
DWIDTH 24 0
BBX 21 19 1 0
BITMAP
000018
3FFFE0
008000
018000
018000
030000
030000
060000
060030
0FFFE0
1A0020
120020
220020
420020
820020
020020
020020
03FFE0
020020
ENDCHAR
STARTCHAR 2F70
ENCODING 12144
SWIDTH 1000 0
DWIDTH 24 0
BBX 21 20 1 -1
BITMAP
0000C0
1FFFE0
000000
000000
000000
000000
000038
3FFFC0
003000
043300
0E3180
0C30C0
083060
183030
303030
203018
403018
803008
03F000
004000
ENDCHAR
STARTCHAR 2F71
ENCODING 12145
SWIDTH 1000 0
DWIDTH 24 0
BBX 19 22 3 -2
BITMAP
008000
00E000
00C000
008000
808040
FFFFE0
C180C0
C100C0
C100C0
C120C0
C210C0
C208C0
C20CC0
C41CC0
DFE6C0
D006C0
C002C0
C000C0
C000C0
C000C0
C00FC0
C00180
ENDCHAR
STARTCHAR 2F72
ENCODING 12146
SWIDTH 1000 0
DWIDTH 24 0
BBX 22 21 1 -2
BITMAP
0001C0
000FE0
00F800
3F3000
003000
003000
003010
003018
7FFFF8
007000
007800
00F400
01B200
033100
0630C0
0C3070
10303C
603008
803000
003000
003000
ENDCHAR
STARTCHAR 2F73
ENCODING 12147
SWIDTH 1000 0
DWIDTH 24 0
BBX 22 20 1 -1
BITMAP
003000
003000
003000
203018
3FCFFC
200030
600020
418400
010400
010400
030200
030200
020300
060180
040080
0C00C0
180060
300038
600018
800000
ENDCHAR
STARTCHAR 2F74
ENCODING 12148
SWIDTH 1000 0
DWIDTH 24 0
BBX 19 19 3 0
BITMAP
00E000
00C000
00C000
00C000
00C0C0
7F3F00
000200
200700
100600
180600
080400
0C0C00
040C00
040800
060800
061800
061000
061040
FFFFE0
ENDCHAR
STARTCHAR 2F75
ENCODING 12149
SWIDTH 1000 0
DWIDTH 24 0
BBX 22 22 1 -2
BITMAP
080400
0E0700
0C0400
080400
084C08
184808
1FEFFC
361880
261080
663080
462080
864080
060080
060080
060080
060080
060080
060080
060080
060080
060F80
060100
ENDCHAR
STARTCHAR 2F76
ENCODING 12150
SWIDTH 1000 0
DWIDTH 24 0
BBX 20 21 2 -1
BITMAP
006000
006080
2060E0
106180
186100
0C6300
0C6200
046400
006030
FFFFF0
00E000
01F000
016800
036600
066300
0861C0
1060E0
606030
806000
006000
006000
ENDCHAR
STARTCHAR 2F77
ENCODING 12151
SWIDTH 1000 0
DWIDTH 24 0
BBX 20 22 2 -2
BITMAP
004000
007000
00C000
018200
110700
0E0E00
060C00
031800
012100
004080
0180C0
FFFF60
F86030
806030
0C6600
0E6300
1860C0
3060E0
606060
C06020
006000
006000
ENDCHAR
STARTCHAR 2F78
ENCODING 12152
SWIDTH 1000 0
DWIDTH 24 0
BBX 20 22 2 -2
BITMAP
040000
060000
0C0000
0C00C0
0FFFC0
186000
106000
206000
406000
006030
FFFFF0
006000
006000
3860C0
306080
306080
306080
306080
306080
3FFF80
300080
300080
ENDCHAR
STARTCHAR 2F79
ENCODING 12153
SWIDTH 1000 0
DWIDTH 24 0
BBX 19 20 3 -1
BITMAP
800040
FFFFE0
8000C0
820CC0
8308C0
8208C0
8208C0
B2C8C0
8E38C0
8618C0
8718C0
8514C0
8DB6C0
8822C0
8820C0
9040C0
9040C0
A080C0
8008C0
8007C0
ENDCHAR
STARTCHAR 2F7A
ENCODING 12154
SWIDTH 1000 0
DWIDTH 24 0
BBX 19 21 3 -1
BITMAP
180C00
0C1800
061800
061000
0620C0
FFFFC0
008000
008000
008100
008180
3FFE00
008000
008000
008040
008060
FFFF80
008000
008000
008000
008000
008000
ENDCHAR
STARTCHAR 2F7B
ENCODING 12155
SWIDTH 1000 0
DWIDTH 24 0
BBX 21 21 1 -2
BITMAP
004010
7FFFF8
004010
004010
204C10
304610
184310
0C4310
0C4110
004010
0140D0
064190
0C4310
384C10
E05810
404810
004010
004010
08C210
07C1F0
010000
ENDCHAR
STARTCHAR 2F7C
ENCODING 12156
SWIDTH 1000 0
DWIDTH 24 0
BBX 20 21 2 -1
BITMAP
01C000
0180C0
018180
018F00
3FFF00
018600
018C00
018800
019830
7E67C0
00C000
018100
030780
051C00
197000
218040
C10040
010040
010040
0100E0
01FFC0
ENDCHAR
STARTCHAR 2F7D
ENCODING 12157
SWIDTH 1000 0
DWIDTH 24 0
BBX 20 20 2 -1
BITMAP
000030
FFFFC0
004000
004000
408060
7FFFE0
610860
610860
610860
610860
610860
610860
610860
610860
610860
610860
610860
610BE0
6108C0
600000
ENDCHAR
STARTCHAR 2F7E
ENCODING 12158
SWIDTH 1000 0
DWIDTH 24 0
BBX 21 21 2 -2
BITMAP
006000
006000
0067C0
00F800
7F6000
006000
006080
3FFFC0
006000
006000
006060
7FFF80
00F000
016800
026600
046300
1861C0
206078
C06030
006000
006000
ENDCHAR
STARTCHAR 2F7F
ENCODING 12159
SWIDTH 1000 0
DWIDTH 24 0
BBX 20 22 2 -2
BITMAP
000020
000070
FFFFF0
080200
080200
080200
080200
0FFE00
080200
080200
080200
0FFE00
080200
080200
080200
0803F0
0BFE00
FF0200
800200
000200
000200
000200
ENDCHAR
STARTCHAR 2F80
ENCODING 12160
SWIDTH 1000 0
DWIDTH 24 0
BBX 20 21 2 -1
BITMAP
007000
006000
006080
3FFFC0
006080
006090
006090
FFFFE0
006080
006080
1FFF80
006000
0060C0
7FFFE0
006000
006000
006030
FFFFC0
006000
006000
006000
ENDCHAR
STARTCHAR 2F81
ENCODING 12161
SWIDTH 1000 0
DWIDTH 24 0
BBX 19 22 3 -2
BITMAP
00C000
00C000
00C000
0080C0
FFFFE0
8080C0
81C0C0
8130C0
830CC0
8686C0
88C2C0
B080C0
80C0C0
81B0C0
811CC0
820CC0
8C06C0
9800C0
8000C0
8000C0
800FC0
800000
ENDCHAR
STARTCHAR 2F82
ENCODING 12162
SWIDTH 1000 0
DWIDTH 24 0
BBX 18 21 4 -1
BITMAP
000180
FFFF80
818000
818000
818000
818000
818200
FE7E00
800200
800200
800200
800200
FFFE00
818200
818000
818000
818000
8180C0
FFFFC0
800000
800000
ENDCHAR
STARTCHAR 2F83
ENCODING 12163
SWIDTH 1000 0
DWIDTH 24 0
BBX 15 21 5 -1
BITMAP
0300
0200
0600
0404
FFFE
8004
8004
8004
8004
FFFC
8004
8004
8004
8004
FFFC
8004
8004
8004
8004
FFFC
8004
ENDCHAR
STARTCHAR 2F84
ENCODING 12164
SWIDTH 1000 0
DWIDTH 24 0
BBX 20 19 2 1
BITMAP
000060
FFFFF0
00C000
018000
010400
030300
020180
1FFEC0
3E0060
206020
006000
006000
006180
3FFFC0
006000
006000
006000
006000
FFFFF0
ENDCHAR
STARTCHAR 2F85
ENCODING 12165
SWIDTH 1000 0
DWIDTH 24 0
BBX 17 21 4 -2
BITMAP
030000
0F0000
380100
E07F80
800100
800100
800100
800100
800100
860100
FE7F00
800100
800100
800100
800100
800100
800100
800100
FFFF00
800100
800100
ENDCHAR
STARTCHAR 2F86
ENCODING 12166
SWIDTH 1000 0
DWIDTH 24 0
BBX 19 20 3 -1
BITMAP
000600
003F00
0FC000
F0C000
00C000
00C040
00C060
FFFF80
00C000
00C000
00C000
20C100
3F3F00
200300
200300
200300
200300
200300
3FFF00
200300
ENDCHAR
STARTCHAR 2F87
ENCODING 12167
SWIDTH 1000 0
DWIDTH 24 0
BBX 21 21 2 -2
BITMAP
0C01C0
080180
180180
188180
1FC1B0
10BFF0
308180
309980
219180
791180
4D3180
873180
8231B0
063FF8
042180
0C2180
080180
100180
200180
400180
800180
ENDCHAR
STARTCHAR 2F88
ENCODING 12168
SWIDTH 1000 0
DWIDTH 24 0
BBX 20 21 2 -2
BITMAP
006000
00C000
008180
0F7F00
088100
08C100
086100
082100
082100
080130
7FFFC0
186100
184100
184100
184100
104100
304100
200100
602100
401F00
800000
ENDCHAR
STARTCHAR 2F89
ENCODING 12169
SWIDTH 1000 0
DWIDTH 24 0
BBX 20 21 2 -2
BITMAP
100100
1FFF80
180100
180100
180100
1FFF00
180100
180100
180100
1FFF00
184100
1840E0
182180
183100
181A00
180C00
186600
1F8380
F801E0
C00070
400000
ENDCHAR
STARTCHAR 2F8A
ENCODING 12170
SWIDTH 1000 0
DWIDTH 24 0
BBX 20 19 2 1
BITMAP
070000
060400
0DFC00
081800
101000
102040
3FFFC0
5060C0
9060C0
1060C0
1060C0
1060C0
1F9FC0
100000
100020
100020
100020
100070
1FFFF0
ENDCHAR
STARTCHAR 2F8B
ENCODING 12171
SWIDTH 1000 0
DWIDTH 24 0
BBX 21 22 2 -2
BITMAP
0C0380
080300
080300
080300
C99B38
C99330
C99330
C99330
C99330
C99330
C99330
C99330
C99330
FF9FF0
C99330
D81300
180300
100300
300300
200300
400300
800300
ENDCHAR
STARTCHAR 2F8C
ENCODING 12172
SWIDTH 1000 0
DWIDTH 24 0
BBX 21 22 1 -2
BITMAP
003800
003000
003020
003FF0
003000
103010
1FFFF8
100018
107020
106040
106000
106038
1067C0
17F800
106000
306000
306010
206010
206030
403FF8
400000
800000
ENDCHAR
STARTCHAR 2F8D
ENCODING 12173
SWIDTH 1000 0
DWIDTH 24 0
BBX 20 21 2 -2
BITMAP
007000
004000
004000
004000
204040
3FFFC0
2040C0
2040C0
2040C0
2040C0
2040C0
3FFFC0
2040C0
2040C0
004200
004180
0040C0
004060
FFFFB0
FC0030
800010
ENDCHAR
STARTCHAR 2F8E
ENCODING 12174
SWIDTH 1000 0
DWIDTH 24 0
BBX 22 20 1 0
BITMAP
004000
007000
004000
004000
108020
1FFFF0
188C60
188C60
188C60
188C60
188C60
188C60
188C60
188C60
188C60
188C60
188C60
188C68
188C68
FFFFFC
ENDCHAR
STARTCHAR 2F8F
ENCODING 12175
SWIDTH 1000 0
DWIDTH 24 0
BBX 21 21 1 -2
BITMAP
020000
060030
0C3FC0
180000
320000
430000
060000
040018
087FE0
1C0080
1C0080
2C0080
4C0080
8C0080
0C0080
0C0080
0C0080
0C0080
0C1080
0C0F80
0C0000
ENDCHAR
STARTCHAR 2F90
ENCODING 12176
SWIDTH 1000 0
DWIDTH 24 0
BBX 21 22 2 -2
BITMAP
004000
006000
006000
006020
006030
FFFFF0
00E000
01A040
01A060
0310C0
061180
0E1900
160A00
660C00
860600
060200
060300
0619C0
07E0E0
3F0078
700010
200000
ENDCHAR
STARTCHAR 2F91
ENCODING 12177
SWIDTH 1000 0
DWIDTH 24 0
BBX 20 18 2 1
BITMAP
000030
FFFFF0
030800
030800
030800
030840
7FFFE0
430860
430860
430860
430860
430860
430860
43F860
430860
400060
400060
400060
ENDCHAR
STARTCHAR 2F92
ENCODING 12178
SWIDTH 1000 0
DWIDTH 24 0
BBX 20 20 2 -1
BITMAP
100180
1FFF80
180180
180180
1FFF80
180180
180180
180180
1FFF80
180180
180180
180180
1FFF80
191000
011000
031020
061020
0C1030
181830
E00FF0
ENDCHAR
STARTCHAR 2F93
ENCODING 12179
SWIDTH 1000 0
DWIDTH 24 0
BBX 19 21 2 -1
BITMAP
030000
060800
07FC00
0C1800
081000
182040
3FFFE0
3820C0
5820C0
9820C0
1FFFC0
1820C0
1820C0
1820C0
1020C0
1FDFC0
1000C0
3000C0
2000C0
401FC0
800180
ENDCHAR
STARTCHAR 2F94
ENCODING 12180
SWIDTH 1000 0
DWIDTH 24 0
BBX 20 20 2 0
BITMAP
000300
0FFF80
000000
000060
FFFFF0
000000
000100
1FFF80
000000
000100
000380
0FFC00
000000
100080
1FFF80
100080
100080
100080
100080
1FFF80
ENDCHAR
STARTCHAR 2F95
ENCODING 12181
SWIDTH 1000 0
DWIDTH 24 0
BBX 21 20 1 -2
BITMAP
030200
020180
0600C0
0C3060
187030
30F830
40CC00
018600
030380
0601C0
1C00F8
37FF98
C40080
040080
040080
040080
040080
07FF80
040080
040080
ENDCHAR
STARTCHAR 2F96
ENCODING 12182
SWIDTH 1000 0
DWIDTH 24 0
BBX 20 20 2 0
BITMAP
000060
FFFFF0
000000
000000
000000
100180
1FFF80
100180
100180
100180
100180
1FFF80
100180
000400
040700
060600
030400
030820
030830
FFFFF0
ENDCHAR
STARTCHAR 2F97
ENCODING 12183
SWIDTH 1000 0
DWIDTH 24 0
BBX 20 21 2 -1
BITMAP
000020
000030
FFFFF0
00D000
019000
031040
048860
18C8C0
60C980
032700
062400
0C3600
307200
40D300
019180
0610C0
0C1060
301070
401030
823000
01E000
ENDCHAR
STARTCHAR 2F98
ENCODING 12184
SWIDTH 1000 0
DWIDTH 24 0
BBX 15 20 4 -1
BITMAP
0070
00C0
0300
0CC4
706E
1878
0460
05C0
0740
1860
E0E0
0190
0318
0C38
30C8
4188
0308
0C08
3018
01F8
ENDCHAR
STARTCHAR 2F99
ENCODING 12185
SWIDTH 1000 0
DWIDTH 24 0
BBX 20 21 2 -2
BITMAP
100080
1FFFC0
100180
100180
100180
1FFF80
100180
100180
100180
1FFF80
100180
100180
100180
1FFF80
100180
020800
070700
0C01C0
180070
600030
800000
ENDCHAR
STARTCHAR 2F9A
ENCODING 12186
SWIDTH 1000 0
DWIDTH 24 0
BBX 20 21 2 -2
BITMAP
007000
006000
006000
0060C0
3FFFC0
006000
006000
006020
006030
7F9FC0
018800
198900
110880
310840
210860
630830
420830
860800
040800
08F800
301800
ENDCHAR
STARTCHAR 2F9B
ENCODING 12187
SWIDTH 1000 0
DWIDTH 24 0
BBX 21 20 2 -2
BITMAP
007000
004000
004000
0040C0
1FFF00
004000
004000
004060
FFFFF0
004000
004000
0C4000
184080
187F00
184000
344000
234000
61C000
407008
801FF0
ENDCHAR
STARTCHAR 2F9C
ENCODING 12188
SWIDTH 1000 0
DWIDTH 24 0
BBX 20 20 2 -1
BITMAP
100080
1FFFC0
100080
100080
100080
100080
100080
100080
1FFF80
006000
006000
0C6040
186060
187F80
146000
366000
236000
60E000
407800
800FF0
ENDCHAR
STARTCHAR 2F9D
ENCODING 12189
SWIDTH 1000 0
DWIDTH 24 0
BBX 22 22 1 -2
BITMAP
007000
006000
004180
07FF80
040180
040180
07FF80
040180
04019C
040198
07FFB0
0401E0
0403C0
1FFF80
7C0780
401D80
003180
00C180
030180
1C0180
E01F80
000200
ENDCHAR
STARTCHAR 2F9E
ENCODING 12190
SWIDTH 1000 0
DWIDTH 24 0
BBX 19 20 3 -1
BITMAP
00C000
00C000
00C060
FFFF80
00C000
40C180
7FFF00
60C100
60C100
7FFF00
60C100
60C100
7FFF00
60C100
00C000
00C060
FFFF80
00C000
00C000
00C000
ENDCHAR
STARTCHAR 2F9F
ENCODING 12191
SWIDTH 1000 0
DWIDTH 24 0
BBX 19 21 3 -2
BITMAP
00E000
00C000
00C080
00C0C0
7F3F00
080E00
0C0C00
060800
061040
061060
F9EF80
00C000
00C000
00C0C0
FFFFC0
00C000
00C000
00C000
00C000
00C000
00C000
ENDCHAR
STARTCHAR 2FA0
ENCODING 12192
SWIDTH 1000 0
DWIDTH 24 0
BBX 21 21 1 -1
BITMAP
100030
1FFFF8
100000
100000
1000C0
13FFE0
100000
100000
100018
1FFFF8
118800
118820
118470
3184C0
318380
218300
218180
619CE0
4FE038
8E0018
840000
ENDCHAR
STARTCHAR 2FA1
ENCODING 12193
SWIDTH 1000 0
DWIDTH 24 0
BBX 20 21 2 -1
BITMAP
000080
0007C0
003C00
0FC000
7003C0
001E00
01E000
3E00E0
000780
00F800
3F2000
403000
0C2000
0C20C0
083FE0
182000
1C2000
322000
21A000
407000
800FF0
ENDCHAR
STARTCHAR 2FA2
ENCODING 12194
SWIDTH 1000 0
DWIDTH 24 0
BBX 18 20 4 -1
BITMAP
000400
3FFC00
200C00
200C00
3FFC00
200C00
000000
000100
FFFF00
810300
810300
810300
810300
FEFF00
800040
800040
800040
8000C0
8003C0
FFFF80
ENDCHAR
STARTCHAR 2FA3
ENCODING 12195
SWIDTH 1000 0
DWIDTH 24 0
BBX 22 21 1 -1
BITMAP
000018
FFFFFC
008800
008800
008800
208830
3FFFE0
308820
318920
310920
3108A0
3209A0
360FA0
380020
300020
3FFFE0
300020
300020
300020
3FFFE0
300020
ENDCHAR
STARTCHAR 2FA4
ENCODING 12196
SWIDTH 1000 0
DWIDTH 24 0
BBX 22 21 1 -2
BITMAP
0000C0
000FE0
01F800
3E30C0
1030E0
0C3080
063180
063100
063210
003018
3FFFE0
007800
00F400
01B200
033180
0630C0
083070
30301C
403008
803000
003000
ENDCHAR
STARTCHAR 2FA5
ENCODING 12197
SWIDTH 1000 0
DWIDTH 24 0
BBX 20 20 2 -1
BITMAP
000080
1FFFC0
106080
106080
106080
106080
1FFF80
106080
106080
106080
1FFF80
106080
106000
006000
0060C0
3FFF00
006000
006000
006030
FFFFF0
ENDCHAR
STARTCHAR 2FA6
ENCODING 12198
SWIDTH 1000 0
DWIDTH 24 0
BBX 22 21 1 -1
BITMAP
003800
003000
006800
00C400
008600
018300
030180
0603E0
0FFF70
18301C
203008
C03020
003030
1FFFC0
0830C0
0430C0
063180
023100
023200
003030
7FFFF8
ENDCHAR
STARTCHAR 2FA7
ENCODING 12199
SWIDTH 1000 0
DWIDTH 24 0
BBX 22 21 1 -1
BITMAP
040060
07FF80
040080
0401C0
07FE00
040080
0400C0
07FFC0
040000
040018
FFFFFC
042040
041060
0418C0
040900
040600
040300
05F1C0
7F00F0
700038
400000
ENDCHAR
STARTCHAR 2FA8
ENCODING 12200
SWIDTH 1000 0
DWIDTH 24 0
BBX 19 21 3 -2
BITMAP
030040
FE3FE0
823040
823040
FE3FC0
823040
823040
FE3FC0
823040
820040
800040
800040
800040
800040
800040
800040
800040
800040
800840
8007C0
800000
ENDCHAR
STARTCHAR 2FA9
ENCODING 12201
SWIDTH 1000 0
DWIDTH 24 0
BBX 20 22 2 -2
BITMAP
00C000
008000
008100
1FFF80
100100
100100
100100
1FFF00
100000
1000C0
1FFF80
100080
100080
1FFF80
106080
006000
006030
FFFFC0
006000
006000
006000
006000
ENDCHAR
STARTCHAR 2FAA
ENCODING 12202
SWIDTH 1000 0
DWIDTH 24 0
BBX 21 22 2 -2
BITMAP
006000
006000
006080
3FFFC0
006180
006190
FFFFF8
006180
006180
006180
1FFF80
2060C0
187080
0C6900
046A00
016400
066300
386180
E060F0
406030
07C000
008000
ENDCHAR
STARTCHAR 2FAB
ENCODING 12203
SWIDTH 1000 0
DWIDTH 24 0
BBX 21 21 1 -2
BITMAP
030600
020400
060C00
040800
0C0830
0FFFC0
1C1800
1C1800
2C1860
4FFFE0
4C1800
8C1800
0C1860
0FFFE0
0C1800
0C1800
0C1800
0C1818
0FFFF8
0C0000
0C0000
ENDCHAR
STARTCHAR 2FAC
ENCODING 12204
SWIDTH 1000 0
DWIDTH 24 0
BBX 19 20 3 -1
BITMAP
000060
FFFF80
00C000
00C000
80C0C0
FFFFC0
C0C0C0
D8D8C0
CCCCC0
C4C4C0
C0C0C0
C0C0C0
D8D8C0
CCCCC0
C6C4C0
C0C0C0
C0C0C0
C0C8C0
C0C7C0
C00000
ENDCHAR
STARTCHAR 2FAD
ENCODING 12205
SWIDTH 1000 0
DWIDTH 24 0
BBX 19 22 3 -2
BITMAP
008000
00C000
00C0C0
7FFF00
00C100
7FFF80
00C000
00C060
FF3F80
000200
1FFF00
10C200
10C200
10C200
10C200
1FFE00
100200
100200
100200
100200
101E00
100000
ENDCHAR
STARTCHAR 2FAE
ENCODING 12206
SWIDTH 1000 0
DWIDTH 24 0
BBX 21 22 1 -2
BITMAP
018600
018400
018400
018400
018418
7F87F8
018400
018400
018400
018430
3F87C0
018400
019400
01E400
0F8418
F907E0
430400
020400
060400
0C0400
300400
400000
ENDCHAR
STARTCHAR 2FAF
ENCODING 12207
SWIDTH 1000 0
DWIDTH 24 0
BBX 22 21 1 -1
BITMAP
000018
FFFFFC
002000
006000
004000
204030
3FBFF0
318430
318430
318430
31FC30
318430
318430
318430
31FC30
318430
318430
318430
318430
3E7BF0
300030
ENDCHAR
STARTCHAR 2FB0
ENCODING 12208
SWIDTH 1000 0
DWIDTH 24 0
BBX 22 22 1 -2
BITMAP
010600
018600
010618
3FFFE0
010600
010600
01FE00
013600
103040
1FFFE0
183040
183040
183040
1FFFC0
183040
003018
FFFFFC
003000
003000
003000
003000
003000
ENDCHAR
STARTCHAR 2FB1
ENCODING 12209
SWIDTH 1000 0
DWIDTH 24 0
BBX 20 21 2 -1
BITMAP
00C000
008300
1FFE00
018220
010230
7EFDC0
000100
0FFF80
080100
080100
0FFF00
081100
001040
1FFFE0
181000
181020
FFFFF0
001000
001000
001000
001000
ENDCHAR
STARTCHAR 2FB2
ENCODING 12210
SWIDTH 1000 0
DWIDTH 24 0
BBX 20 19 2 0
BITMAP
001000
019C00
011800
011800
011830
7F1FC0
011800
011840
011860
3F1F80
011800
011800
011860
7F1FE0
011800
011800
011800
011800
FFFFF0
ENDCHAR
STARTCHAR 2FB3
ENCODING 12211
SWIDTH 1000 0
DWIDTH 24 0
BBX 20 22 2 -2
BITMAP
006000
006000
0060C0
7FFFE0
000400
040700
020400
030C20
030830
FFFFF0
000000
000100
0FFF80
080100
080100
080100
0FFF00
080100
080100
0FFF00
080100
080100
ENDCHAR
STARTCHAR 2FB4
ENCODING 12212
SWIDTH 1000 0
DWIDTH 24 0
BBX 20 22 2 -2
BITMAP
000020
000030
7FFFC0
004000
008080
1FFFC0
100180
100180
100180
1FFF80
100180
100180
1FFF80
100180
100180
100180
1FFF80
100180
031C00
0E03C0
3800E0
C00030
ENDCHAR
STARTCHAR 2FB5
ENCODING 12213
SWIDTH 1000 0
DWIDTH 24 0
BBX 22 21 1 -2
BITMAP
000060
1FFFC0
100040
101E40
17E040
102040
102040
122240
13FE60
122260
122260
122260
13FE60
322224
322024
202224
202334
602F94
4FF09C
84008C
800004
ENDCHAR
STARTCHAR 2FB6
ENCODING 12214
SWIDTH 1000 0
DWIDTH 24 0
BBX 22 21 1 -2
BITMAP
000300
7FFF20
000330
012360
03B1C0
1C2130
642198
0420C8
042078
04223C
7FFF00
042330
042360
0C23C0
0C2130
082190
182088
1020E8
302078
60201C
800000
ENDCHAR
STARTCHAR 2FB7
ENCODING 12215
SWIDTH 1000 0
DWIDTH 24 0
BBX 22 22 1 -2
BITMAP
003000
007000
004800
00C400
01B300
0321C0
0420F0
0FFFBC
340188
C40180
07FF80
040180
040180
07FFC0
0421E0
0410C0
040900
040600
041B00
07E1E0
3C0078
200000
ENDCHAR
STARTCHAR 2FB8
ENCODING 12216
SWIDTH 1000 0
DWIDTH 24 0
BBX 20 22 2 -2
BITMAP
080400
040700
060400
030C00
030830
FCF7C0
00C000
008000
108180
1F7F80
100180
100180
1FFF80
100180
100180
100180
1FFF80
100180
100180
1FFF80
100180
100180
ENDCHAR
STARTCHAR 2FB9
ENCODING 12217
SWIDTH 1000 0
DWIDTH 24 0
BBX 20 20 2 -1
BITMAP
000300
00FF80
3F6000
006000
006030
7FFFC0
01F800
036400
046300
1861E0
206070
D00180
1FFF80
180180
180180
1FFF80
180180
180180
180180
1FFF80
ENDCHAR
STARTCHAR 2FBA
ENCODING 12218
SWIDTH 1000 0
DWIDTH 24 0
BBX 21 21 1 -1
BITMAP
000020
0FFFF0
081000
081040
0FFFE0
081000
081000
081040
0FFFE0
081000
081000
081010
0FFFF8
080010
004610
122310
123110
331030
631030
C303E0
000080
ENDCHAR
STARTCHAR 2FBB
ENCODING 12219
SWIDTH 1000 0
DWIDTH 24 0
BBX 20 22 2 -2
BITMAP
080100
0FFF80
080300
080300
087F00
084300
084300
484330
77BCF0
480160
CFFFC0
880300
080300
0FFF00
080300
080300
0FFF00
080300
080300
080300
081F00
080000
ENDCHAR
STARTCHAR 2FBC
ENCODING 12220
SWIDTH 1000 0
DWIDTH 24 0
BBX 20 22 2 -2
BITMAP
007000
006020
006020
FFFFF0
000000
000300
07FE00
040200
040200
07FE00
400020
7FFFF0
400020
400420
43FE20
420420
420420
43FC20
420420
400060
4003E0
400000
ENDCHAR
STARTCHAR 2FBD
ENCODING 12221
SWIDTH 1000 0
DWIDTH 24 0
BBX 22 20 1 -1
BITMAP
106030
1FF070
1800E0
1840C0
1FE180
180610
180C38
184030
1F8060
1800C0
183180
FFF208
0C0C1C
088030
18C070
106060
13A0C0
3C3300
603600
401800
ENDCHAR
STARTCHAR 2FBE
ENCODING 12222
SWIDTH 1000 0
DWIDTH 24 0
BBX 19 21 3 -2
BITMAP
C10360
9E3C40
8C0840
8D0A40
9E3C40
8C0840
8D0B40
BF7F40
800040
800040
800040
800040
800040
800040
800040
800040
800040
800040
800840
8007C0
800000
ENDCHAR
STARTCHAR 2FBF
ENCODING 12223
SWIDTH 1000 0
DWIDTH 24 0
BBX 19 21 3 -1
BITMAP
020000
C19CE0
9090C0
8C30C0
A36CC0
98C2C0
89B2C0
8618C0
8C84C0
B040C0
8040C0
FFFFC0
8000C0
300000
200700
203C00
27C040
380040
200040
200060
3FFFC0
ENDCHAR
STARTCHAR 2FC0
ENCODING 12224
SWIDTH 1000 0
DWIDTH 24 0
BBX 20 21 2 -1
BITMAP
000060
FFFFF0
000000
0FFF80
080100
080100
080100
0FFF00
080100
400020
7FFFE0
611160
631160
621FE0
6C0060
600660
67F860
606060
606460
6063E0
600000
ENDCHAR
STARTCHAR 2FC1
ENCODING 12225
SWIDTH 1000 0
DWIDTH 24 0
BBX 21 21 1 -2
BITMAP
007000
006000
104060
1FBFE0
183060
183060
1FFFE0
183060
183060
183060
1FFFE0
199860
199900
019980
011900
031A68
031FE8
061C28
0C1818
300FF8
C00000
ENDCHAR
STARTCHAR 2FC2
ENCODING 12226
SWIDTH 1000 0
DWIDTH 24 0
BBX 20 22 2 -2
BITMAP
038000
020800
07FC00
061800
0C1000
182080
1FFFC0
3020C0
5020C0
9020C0
1FFFC0
1020C0
1020C0
1020C0
1FFFC0
1000C0
020000
2118C0
210C30
618C30
C10410
C00000
ENDCHAR
ENDFONT
